<svg xmlns="http://www.w3.org/2000/svg" xmlns:svg="http://www.w3.org/2000/svg" id="svg2656" width="419.424" height="215.904" version="1.1" viewBox="0 0 419.424 215.904" xml:space="preserve"><metadata id="metadata2662"/><defs id="defs2660"><clipPath id="clipPath2732" clipPathUnits="userSpaceOnUse"><path id="path2730" d="M 0,0 H 720 V 540 H 0 Z"/></clipPath><clipPath id="clipPath2748" clipPathUnits="userSpaceOnUse"><path id="path2746" d="M 0,0 H 720 V 540 H 0 Z"/></clipPath><clipPath id="clipPath2764" clipPathUnits="userSpaceOnUse"><path id="path2762" d="M 0,0 H 720 V 540 H 0 Z"/></clipPath><clipPath id="clipPath2780" clipPathUnits="userSpaceOnUse"><path id="path2778" d="M 0,0 H 720 V 540 H 0 Z"/></clipPath><clipPath id="clipPath2796" clipPathUnits="userSpaceOnUse"><path id="path2794" d="M 0,0 H 720 V 540 H 0 Z"/></clipPath><clipPath id="clipPath2816" clipPathUnits="userSpaceOnUse"><path id="path2814" d="M 0,0 H 720 V 540 H 0 Z"/></clipPath><clipPath id="clipPath2836" clipPathUnits="userSpaceOnUse"><path id="path2834" d="M 0,0 H 720 V 540 H 0 Z"/></clipPath><clipPath id="clipPath2856" clipPathUnits="userSpaceOnUse"><path id="path2854" d="M 0,0 H 720 V 540 H 0 Z"/></clipPath><clipPath id="clipPath2868" clipPathUnits="userSpaceOnUse"><path id="path2866" d="M 0,0 H 720 V 540 H 0 Z"/></clipPath><clipPath id="clipPath2880" clipPathUnits="userSpaceOnUse"><path id="path2878" d="M 0,0 H 720 V 540 H 0 Z"/></clipPath><clipPath id="clipPath2892" clipPathUnits="userSpaceOnUse"><path id="path2890" d="M 0,0 H 720 V 540 H 0 Z"/></clipPath><clipPath id="clipPath2904" clipPathUnits="userSpaceOnUse"><path id="path2902" d="M 0,0 H 720 V 540 H 0 Z"/></clipPath><clipPath id="clipPath2916" clipPathUnits="userSpaceOnUse"><path id="path2914" d="M 0,0 H 720 V 540 H 0 Z"/></clipPath><clipPath id="clipPath2928" clipPathUnits="userSpaceOnUse"><path id="path2926" d="M 0,0 H 720 V 540 H 0 Z"/></clipPath><clipPath id="clipPath2940" clipPathUnits="userSpaceOnUse"><path id="path2938" d="M 0,0 H 720 V 540 H 0 Z"/></clipPath><clipPath id="clipPath2952" clipPathUnits="userSpaceOnUse"><path id="path2950" d="M 0,0 H 720 V 540 H 0 Z"/></clipPath><clipPath id="clipPath2964" clipPathUnits="userSpaceOnUse"><path id="path2962" d="M 0,0 H 720 V 540 H 0 Z"/></clipPath><clipPath id="clipPath2976" clipPathUnits="userSpaceOnUse"><path id="path2974" d="M 0,0 H 720 V 540 H 0 Z"/></clipPath><clipPath id="clipPath2988" clipPathUnits="userSpaceOnUse"><path id="path2986" d="M 0,0 H 720 V 540 H 0 Z"/></clipPath><clipPath id="clipPath3044" clipPathUnits="userSpaceOnUse"><path id="path3042" d="M 0,0 H 720 V 540 H 0 Z"/></clipPath><clipPath id="clipPath3060" clipPathUnits="userSpaceOnUse"><path id="path3058" d="M 0,0 H 720 V 540 H 0 Z"/></clipPath><clipPath id="clipPath3076" clipPathUnits="userSpaceOnUse"><path id="path3074" d="M 0,0 H 720 V 540 H 0 Z"/></clipPath><clipPath id="clipPath3092" clipPathUnits="userSpaceOnUse"><path id="path3090" d="M 0,0 H 720 V 540 H 0 Z"/></clipPath></defs><g id="g2664" transform="matrix(1.3333333,0,0,-1.3333333,-218.592,386.496)"><g id="g2666" transform="translate(387.2999,154.2346)"><path style="fill:none;stroke:#000;stroke-width:.5;stroke-linecap:butt;stroke-linejoin:round;stroke-miterlimit:10;stroke-dasharray:2,1.5;stroke-dashoffset:0;stroke-opacity:1" id="path2668" d="M 0,0 10.2,106.2"/></g><g id="g2670" transform="translate(459.5999,195.9346)"><path style="fill:none;stroke:#000;stroke-width:.5;stroke-linecap:butt;stroke-linejoin:round;stroke-miterlimit:10;stroke-dasharray:2,1.5;stroke-dashoffset:0;stroke-opacity:1" id="path2672" d="M 0,0 -45.6,74.1"/></g><g id="g2674" transform="translate(411.8998,195.9346)"><path style="fill:none;stroke:#000;stroke-width:.5;stroke-linecap:butt;stroke-linejoin:round;stroke-miterlimit:10;stroke-dasharray:2,1.5;stroke-dashoffset:0;stroke-opacity:1" id="path2676" d="M 0,0 -9.3,74.1"/></g><g id="g2678" transform="translate(434.64,155.31461)"><path style="fill:none;stroke:#000;stroke-width:.5;stroke-linecap:butt;stroke-linejoin:round;stroke-miterlimit:10;stroke-dasharray:2,1.5;stroke-dashoffset:0;stroke-opacity:1" id="path2680" d="M 0,0 -26.64,105.12"/></g><g id="g2682" transform="translate(249.98669,190.8519)"><path style="fill:none;stroke:#000;stroke-width:2.5;stroke-linecap:butt;stroke-linejoin:round;stroke-miterlimit:10;stroke-dasharray:none;stroke-opacity:1" id="path2684" d="M 0,0 54,93.531"/></g><g id="g2686" transform="translate(258.72121,178.7899)"><path style="fill:none;stroke:#000;stroke-width:2.5;stroke-linecap:butt;stroke-linejoin:round;stroke-miterlimit:10;stroke-dasharray:none;stroke-opacity:1" id="path2688" d="M 0,0 H 108"/></g><text style="font-style:italic;font-variant:normal;font-weight:700;font-stretch:normal;font-size:20.04000092px;font-family:'Times New Roman';-inkscape-font-specification:TimesNewRomanPS-BoldItalicMT;writing-mode:lr-tb;fill:#000;fill-opacity:1;fill-rule:nonzero;stroke:none" id="text2700" transform="matrix(1,0,0,-1,222.8768,234.149)"><tspan id="tspan2690" x="0 10.08 20.16 27.956 33.467 38.156" y="0">part 1</tspan><tspan id="tspan2692" x="-42.004 -31.924 -21.844 -14.048 -8.537 -3.848" y="42.244">part 2</tspan><tspan id="tspan2694" x="-42.725 -32.645 -22.565 -14.769 -9.258 -4.569" y="72.004">part 3</tspan><tspan id="tspan2696" x="0 10.08 20.16 27.956 33.467 38.156" y="96.012">part 4</tspan><tspan id="tspan2698" x="65.992 76.072 86.152 93.948 99.459 104.148" y="78.236">part 5</tspan></text><g id="g2702" transform="translate(312.72121,184.8497)"><path style="fill:none;stroke:#000;stroke-width:1;stroke-linecap:butt;stroke-linejoin:round;stroke-miterlimit:10;stroke-dasharray:none;stroke-opacity:1" id="path2704" d="M 0,0 V -3.36"/></g><g id="g2706" transform="translate(314.72121,182.4897)"><path style="fill:#000;fill-opacity:1;fill-rule:evenodd;stroke:none" id="path2708" d="M 0,0 -2,-4 -4,0 Z"/></g><g id="g2710" transform="translate(310.72079,183.8499)"><path style="fill:#000;fill-opacity:1;fill-rule:evenodd;stroke:none" id="path2712" d="M 0,0 2,4 4,0 Z"/></g><g id="g2714" transform="translate(277.2132,232.04449)"><path style="fill:none;stroke:#000;stroke-width:1;stroke-linecap:butt;stroke-linejoin:round;stroke-miterlimit:10;stroke-dasharray:none;stroke-opacity:1" id="path2716" d="M 0,0 2.91,-1.68"/></g><g id="g2718" transform="translate(280.2572,232.5966)"><path style="fill:#000;fill-opacity:1;fill-rule:evenodd;stroke:none" id="path2720" d="M 0,0 2.464,-3.732 -2,-3.464 Z"/></g><g id="g2722" transform="translate(277.07941,229.81261)"><path style="fill:#000;fill-opacity:1;fill-rule:evenodd;stroke:none" id="path2724" d="M 0,0 -2.464,3.732 2,3.464 Z"/></g><g id="g2726"><g id="g2728" clip-path="url(#clipPath2732)"><g id="g2734" transform="translate(255.9334,187.5995)"><path style="fill:#000;fill-opacity:1;fill-rule:evenodd;stroke:none" id="path2736" d="M 0,0 C 0,1.455 1.161,2.635 2.594,2.635 4.027,2.635 5.188,1.455 5.188,0 5.188,-1.455 4.027,-2.635 2.594,-2.635 1.161,-2.635 0,-1.455 0,0"/></g><g id="g2738" transform="translate(255.9334,187.5995)"><path style="fill:none;stroke:#000;stroke-width:.75;stroke-linecap:butt;stroke-linejoin:round;stroke-miterlimit:10;stroke-dasharray:none;stroke-opacity:1" id="path2740" d="M 0,0 C 0,1.455 1.161,2.635 2.594,2.635 4.027,2.635 5.188,1.455 5.188,0 5.188,-1.455 4.027,-2.635 2.594,-2.635 1.161,-2.635 0,-1.455 0,0 Z"/></g></g></g><g id="g2742"><g id="g2744" clip-path="url(#clipPath2748)"><g id="g2750" transform="translate(247.2334,173.79939)"><path style="fill:#000;fill-opacity:1;fill-rule:evenodd;stroke:none" id="path2752" d="M 0,0 C 0,1.455 1.161,2.635 2.594,2.635 4.027,2.635 5.188,1.455 5.188,0 5.188,-1.455 4.027,-2.635 2.594,-2.635 1.161,-2.635 0,-1.455 0,0"/></g><g id="g2754" transform="translate(247.2334,173.79939)"><path style="fill:none;stroke:#000;stroke-width:.75;stroke-linecap:butt;stroke-linejoin:round;stroke-miterlimit:10;stroke-dasharray:none;stroke-opacity:1" id="path2756" d="M 0,0 C 0,1.455 1.161,2.635 2.594,2.635 4.027,2.635 5.188,1.455 5.188,0 5.188,-1.455 4.027,-2.635 2.594,-2.635 1.161,-2.635 0,-1.455 0,0 Z"/></g></g></g><g id="g2758"><g id="g2760" clip-path="url(#clipPath2764)"><g id="g2766" transform="translate(237.9604,178.8994)"><path style="fill:#000;fill-opacity:1;fill-rule:evenodd;stroke:none" id="path2768" d="M 0,0 C 0,1.455 1.161,2.635 2.594,2.635 4.027,2.635 5.188,1.455 5.188,0 5.188,-1.455 4.027,-2.635 2.594,-2.635 1.161,-2.635 0,-1.455 0,0"/></g><g id="g2770" transform="translate(237.9604,178.8994)"><path style="fill:none;stroke:#000;stroke-width:.75;stroke-linecap:butt;stroke-linejoin:round;stroke-miterlimit:10;stroke-dasharray:none;stroke-opacity:1" id="path2772" d="M 0,0 C 0,1.455 1.161,2.635 2.594,2.635 4.027,2.635 5.188,1.455 5.188,0 5.188,-1.455 4.027,-2.635 2.594,-2.635 1.161,-2.635 0,-1.455 0,0 Z"/></g></g></g><g id="g2774"><g id="g2776" clip-path="url(#clipPath2780)"><g id="g2782" transform="translate(237.9334,187.5995)"><path style="fill:#000;fill-opacity:1;fill-rule:evenodd;stroke:none" id="path2784" d="M 0,0 C 0,1.455 1.161,2.635 2.594,2.635 4.027,2.635 5.188,1.455 5.188,0 5.188,-1.455 4.027,-2.635 2.594,-2.635 1.161,-2.635 0,-1.455 0,0"/></g><g id="g2786" transform="translate(237.9334,187.5995)"><path style="fill:none;stroke:#000;stroke-width:.75;stroke-linecap:butt;stroke-linejoin:round;stroke-miterlimit:10;stroke-dasharray:none;stroke-opacity:1" id="path2788" d="M 0,0 C 0,1.455 1.161,2.635 2.594,2.635 4.027,2.635 5.188,1.455 5.188,0 5.188,-1.455 4.027,-2.635 2.594,-2.635 1.161,-2.635 0,-1.455 0,0 Z"/></g></g></g><g id="g2790"><g id="g2792" clip-path="url(#clipPath2796)"><g id="g2798" transform="translate(255.8571,182.81841)"><path style="fill:none;stroke:#000;stroke-width:1;stroke-linecap:butt;stroke-linejoin:round;stroke-miterlimit:10;stroke-dasharray:none;stroke-opacity:1" id="path2800" d="M 0,0 -2.912,-4.368"/></g><g id="g2802" transform="translate(255.164,178.17349)"><path style="fill:#000;fill-opacity:1;fill-rule:evenodd;stroke:none" id="path2804" d="m 0,0 -3.883,-2.219 0.555,4.438 z"/></g><g id="g2806" transform="translate(253.6382,183.0959)"><path style="fill:#000;fill-opacity:1;fill-rule:evenodd;stroke:none" id="path2808" d="M 0,0 3.883,2.219 3.328,-2.219 Z"/></g></g></g><g id="g2810"><g id="g2812" clip-path="url(#clipPath2816)"><g id="g2818" transform="translate(252.72121,187.2346)"><path style="fill:none;stroke:#000;stroke-width:1;stroke-linecap:butt;stroke-linejoin:round;stroke-miterlimit:10;stroke-dasharray:none;stroke-opacity:1" id="path2820" d="M 0,0 H -6.6"/></g><g id="g2822" transform="translate(247.12131,185.2348)"><path style="fill:#000;fill-opacity:1;fill-rule:evenodd;stroke:none" id="path2824" d="M 0,0 -4,2 0,4 Z"/></g><g id="g2826" transform="translate(251.7213,189.2348)"><path style="fill:#000;fill-opacity:1;fill-rule:evenodd;stroke:none" id="path2828" d="M 0,0 4,-2 0,-4 Z"/></g></g></g><g id="g2830"><g id="g2832" clip-path="url(#clipPath2836)"><g id="g2838" transform="translate(253.5797,184.5161)"><path style="fill:none;stroke:#000;stroke-width:1;stroke-linecap:butt;stroke-linejoin:round;stroke-miterlimit:10;stroke-dasharray:none;stroke-opacity:1" id="path2840" d="M 0,0 -8.017,-3.563"/></g><g id="g2842" transform="translate(247.2887,179.53169)"><path style="fill:#000;fill-opacity:1;fill-rule:evenodd;stroke:none" id="path2844" d="m 0,0 -4.468,0.203 2.843,3.452 z"/></g><g id="g2846" transform="translate(251.8537,185.93781)"><path style="fill:#000;fill-opacity:1;fill-rule:evenodd;stroke:none" id="path2848" d="M 0,0 4.468,-0.203 1.624,-3.655 Z"/></g></g></g><g id="g2850"><g id="g2852" clip-path="url(#clipPath2856)"><g id="g2858" transform="translate(258.72121,187.2346)"><path style="fill:none;stroke:#000;stroke-width:2.5;stroke-linecap:butt;stroke-linejoin:round;stroke-miterlimit:10;stroke-dasharray:none;stroke-opacity:1" id="path2860" d="M 0,0 H 108"/></g></g></g><g id="g2862"><g id="g2864" clip-path="url(#clipPath2868)"><g id="g2870" transform="translate(366.72121,187.2346)"><path style="fill:none;stroke:#000;stroke-width:2.5;stroke-linecap:butt;stroke-linejoin:round;stroke-miterlimit:10;stroke-dasharray:none;stroke-opacity:1" id="path2872" d="M 0,0 54,93.531"/></g></g></g><g id="g2874"><g id="g2876" clip-path="url(#clipPath2880)"><g id="g2882" transform="translate(258.72121,187.2346)"><path style="fill:none;stroke:#000;stroke-width:2.5;stroke-linecap:butt;stroke-linejoin:round;stroke-miterlimit:10;stroke-dasharray:none;stroke-opacity:1" id="path2884" d="M 0,0 54,93.531"/></g></g></g><g id="g2886"><g id="g2888" clip-path="url(#clipPath2892)"><g id="g2894" transform="translate(312.72121,280.2547)"><path style="fill:none;stroke:#000;stroke-width:2.5;stroke-linecap:butt;stroke-linejoin:round;stroke-miterlimit:10;stroke-dasharray:none;stroke-opacity:1" id="path2896" d="M 0,0 H 108"/></g></g></g><g id="g2898"><g id="g2900" clip-path="url(#clipPath2904)"><g id="g2906" transform="translate(264.72121,197.4194)"><path style="fill:none;stroke:#000;stroke-width:.75;stroke-linecap:butt;stroke-linejoin:round;stroke-miterlimit:10;stroke-dasharray:none;stroke-opacity:1" id="path2908" d="M 0,0 H 18"/></g></g></g><g id="g2910"><g id="g2912" clip-path="url(#clipPath2916)"><g id="g2918" transform="translate(270.72121,187.23441)"><path style="fill:none;stroke:#000;stroke-width:.75;stroke-linecap:butt;stroke-linejoin:round;stroke-miterlimit:10;stroke-dasharray:none;stroke-opacity:1" id="path2920" d="M 0,0 9,15.588"/></g></g></g><g id="g2922"><g id="g2924" clip-path="url(#clipPath2928)"><g id="g2930" transform="translate(282.72121,187.2346)"><path style="fill:none;stroke:#000;stroke-width:.75;stroke-linecap:butt;stroke-linejoin:round;stroke-miterlimit:10;stroke-dasharray:none;stroke-opacity:1" id="path2932" d="M 0,0 3.6,6.235"/></g></g></g><g id="g2934"><g id="g2936" clip-path="url(#clipPath2940)"><g id="g2942" transform="translate(270.72121,207.60429)"><path style="fill:none;stroke:#000;stroke-width:.75;stroke-linecap:butt;stroke-linejoin:round;stroke-miterlimit:10;stroke-dasharray:none;stroke-opacity:1" id="path2944" d="M 0,0 H 7.2"/></g></g></g><g id="g2946"><g id="g2948" clip-path="url(#clipPath2952)"><g id="g2954" transform="translate(414.72121,270.01939)"><path style="fill:none;stroke:#000;stroke-width:.75;stroke-linecap:butt;stroke-linejoin:round;stroke-miterlimit:10;stroke-dasharray:none;stroke-opacity:1" id="path2956" d="M 0,0 H -18"/></g></g></g><g id="g2958"><g id="g2960" clip-path="url(#clipPath2964)"><g id="g2966" transform="translate(408.72121,280.2045)"><path style="fill:none;stroke:#000;stroke-width:.75;stroke-linecap:butt;stroke-linejoin:round;stroke-miterlimit:10;stroke-dasharray:none;stroke-opacity:1" id="path2968" d="M 0,0 -9,-15.588"/></g></g></g><g id="g2970"><g id="g2972" clip-path="url(#clipPath2976)"><g id="g2978" transform="translate(396.72121,280.2043)"><path style="fill:none;stroke:#000;stroke-width:.75;stroke-linecap:butt;stroke-linejoin:round;stroke-miterlimit:10;stroke-dasharray:none;stroke-opacity:1" id="path2980" d="M 0,0 -3.6,-6.235"/></g></g></g><g id="g2982"><g id="g2984" clip-path="url(#clipPath2988)"><g id="g2990" transform="translate(408.72121,259.83459)"><path style="fill:none;stroke:#000;stroke-width:.75;stroke-linecap:butt;stroke-linejoin:round;stroke-miterlimit:10;stroke-dasharray:none;stroke-opacity:1" id="path2992" d="M 0,0 H -7.2"/></g></g></g><text style="font-style:italic;font-variant:normal;font-weight:700;font-stretch:normal;font-size:20.04000092px;font-family:'Times New Roman';-inkscape-font-specification:TimesNewRomanPS-BoldItalicMT;writing-mode:lr-tb;fill:#000;fill-opacity:1;fill-rule:nonzero;stroke:none" id="text2996" transform="matrix(1,0,0,-1,312.6158,227.9146)"><tspan id="tspan2994" x="0 10.08 20.16 27.956 33.467 38.156" y="0">part 0</tspan></text><text style="font-style:italic;font-variant:normal;font-weight:400;font-stretch:normal;font-size:12px;font-family:'Times New Roman';-inkscape-font-specification:TimesNewRomanPS-ItalicMT;writing-mode:lr-tb;fill:#000;fill-opacity:1;fill-rule:nonzero;stroke:none" id="text3000" transform="matrix(1,0,0,-1,439.4749,275.1744)"><tspan id="tspan2998" x="0 3.84 9.84 12.84 18.84" y="0">(9,9)</tspan></text><g id="g3002" transform="translate(437.51109,279.6512)"><path style="fill:none;stroke:#000;stroke-width:1;stroke-linecap:butt;stroke-linejoin:round;stroke-miterlimit:10;stroke-dasharray:none;stroke-opacity:1" id="path3004" d="M 0,0 -25.421,-4.406"/></g><g id="g3006" transform="translate(413.5876,272.46069)"><path style="fill:#000;fill-opacity:1;fill-rule:evenodd;stroke:none" id="path3008" d="m 0,0 -4.454,2.273 3.429,3.639 z"/></g><text style="font-style:italic;font-variant:normal;font-weight:400;font-stretch:normal;font-size:12px;font-family:'Times New Roman';-inkscape-font-specification:TimesNewRomanPS-ItalicMT;writing-mode:lr-tb;fill:#000;fill-opacity:1;fill-rule:nonzero;stroke:none" id="text3012" transform="matrix(1,0,0,-1,296.7354,193.6045)"><tspan id="tspan3010" x="0 3.84 9.84 12.84 18.84" y="0">(1,1)</tspan></text><g id="g3014" transform="translate(295.3262,197.76019)"><path style="fill:none;stroke:#000;stroke-width:1;stroke-linecap:butt;stroke-linejoin:round;stroke-miterlimit:10;stroke-dasharray:none;stroke-opacity:1" id="path3016" d="M 0,0 -25.421,-4.406"/></g><g id="g3018" transform="translate(271.40269,190.56979)"><path style="fill:#000;fill-opacity:1;fill-rule:evenodd;stroke:none" id="path3020" d="m 0,0 -4.454,2.273 3.429,3.639 z"/></g><g id="g3022" transform="translate(387.3,154.0192)"><path style="fill:none;stroke:#000;stroke-width:.75;stroke-linecap:butt;stroke-linejoin:round;stroke-miterlimit:10;stroke-dasharray:none;stroke-opacity:1" id="path3024" d="M 0,0 H 48"/></g><g id="g3026" transform="translate(435.3,154.45)"><path style="fill:none;stroke:#000;stroke-width:.75;stroke-linecap:butt;stroke-linejoin:round;stroke-miterlimit:10;stroke-dasharray:none;stroke-opacity:1" id="path3028" d="M 0,0 24,41.569"/></g><g id="g3030" transform="translate(387.3,154.45)"><path style="fill:none;stroke:#000;stroke-width:.75;stroke-linecap:butt;stroke-linejoin:round;stroke-miterlimit:10;stroke-dasharray:none;stroke-opacity:1" id="path3032" d="M 0,0 24,41.569"/></g><g id="g3034" transform="translate(411.3,196.0192)"><path style="fill:none;stroke:#000;stroke-width:.75;stroke-linecap:butt;stroke-linejoin:round;stroke-miterlimit:10;stroke-dasharray:none;stroke-opacity:1" id="path3036" d="M 0,0 H 48"/></g><g id="g3038"><g id="g3040" clip-path="url(#clipPath3044)"><g id="g3046" transform="translate(408.8,196.08411)"><path style="fill:#000;fill-opacity:1;fill-rule:evenodd;stroke:none" id="path3048" d="M 0,0 C 0,1.455 1.161,2.635 2.594,2.635 4.027,2.635 5.188,1.455 5.188,0 5.188,-1.455 4.027,-2.635 2.594,-2.635 1.161,-2.635 0,-1.455 0,0"/></g><g id="g3050" transform="translate(408.8,196.08411)"><path style="fill:none;stroke:#000;stroke-width:.75;stroke-linecap:butt;stroke-linejoin:round;stroke-miterlimit:10;stroke-dasharray:none;stroke-opacity:1" id="path3052" d="M 0,0 C 0,1.455 1.161,2.635 2.594,2.635 4.027,2.635 5.188,1.455 5.188,0 5.188,-1.455 4.027,-2.635 2.594,-2.635 1.161,-2.635 0,-1.455 0,0 Z"/></g></g></g><g id="g3054"><g id="g3056" clip-path="url(#clipPath3060)"><g id="g3062" transform="translate(456.81219,196.08411)"><path style="fill:#000;fill-opacity:1;fill-rule:evenodd;stroke:none" id="path3064" d="M 0,0 C 0,1.455 1.161,2.635 2.594,2.635 4.027,2.635 5.188,1.455 5.188,0 5.188,-1.455 4.027,-2.635 2.594,-2.635 1.161,-2.635 0,-1.455 0,0"/></g><g id="g3066" transform="translate(456.81219,196.08411)"><path style="fill:none;stroke:#000;stroke-width:.75;stroke-linecap:butt;stroke-linejoin:round;stroke-miterlimit:10;stroke-dasharray:none;stroke-opacity:1" id="path3068" d="M 0,0 C 0,1.455 1.161,2.635 2.594,2.635 4.027,2.635 5.188,1.455 5.188,0 5.188,-1.455 4.027,-2.635 2.594,-2.635 1.161,-2.635 0,-1.455 0,0 Z"/></g></g></g><g id="g3070"><g id="g3072" clip-path="url(#clipPath3076)"><g id="g3078" transform="translate(384.3,154.08411)"><path style="fill:#000;fill-opacity:1;fill-rule:evenodd;stroke:none" id="path3080" d="M 0,0 C 0,1.455 1.161,2.635 2.594,2.635 4.027,2.635 5.188,1.455 5.188,0 5.188,-1.455 4.027,-2.635 2.594,-2.635 1.161,-2.635 0,-1.455 0,0"/></g><g id="g3082" transform="translate(384.3,154.08411)"><path style="fill:none;stroke:#000;stroke-width:.75;stroke-linecap:butt;stroke-linejoin:round;stroke-miterlimit:10;stroke-dasharray:none;stroke-opacity:1" id="path3084" d="M 0,0 C 0,1.455 1.161,2.635 2.594,2.635 4.027,2.635 5.188,1.455 5.188,0 5.188,-1.455 4.027,-2.635 2.594,-2.635 1.161,-2.635 0,-1.455 0,0 Z"/></g></g></g><g id="g3086"><g id="g3088" clip-path="url(#clipPath3092)"><g id="g3094" transform="translate(432.31219,154.08411)"><path style="fill:#000;fill-opacity:1;fill-rule:evenodd;stroke:none" id="path3096" d="M 0,0 C 0,1.455 1.161,2.635 2.594,2.635 4.027,2.635 5.188,1.455 5.188,0 5.188,-1.455 4.027,-2.635 2.594,-2.635 1.161,-2.635 0,-1.455 0,0"/></g><g id="g3098" transform="translate(432.31219,154.08411)"><path style="fill:none;stroke:#000;stroke-width:.75;stroke-linecap:butt;stroke-linejoin:round;stroke-miterlimit:10;stroke-dasharray:none;stroke-opacity:1" id="path3100" d="M 0,0 C 0,1.455 1.161,2.635 2.594,2.635 4.027,2.635 5.188,1.455 5.188,0 5.188,-1.455 4.027,-2.635 2.594,-2.635 1.161,-2.635 0,-1.455 0,0 Z"/></g></g></g><text style="font-style:italic;font-variant:normal;font-weight:400;font-stretch:normal;font-size:12px;font-family:'Times New Roman';-inkscape-font-specification:TimesNewRomanPS-ItalicMT;writing-mode:lr-tb;fill:#000;fill-opacity:1;fill-rule:nonzero;stroke:none" id="text3110" transform="matrix(1,0,0,-1,389.5245,139.8289)"><tspan id="tspan3102" x="0" y="0">0</tspan><tspan id="tspan3104" x="48" y=".12">1</tspan><tspan id="tspan3106" x="72.6" y="-41.88">2</tspan><tspan id="tspan3108" x="24.6" y="-42">3</tspan></text></g></svg>