<svg xmlns="http://www.w3.org/2000/svg" xmlns:svg="http://www.w3.org/2000/svg" id="svg6878" width="352.455" height="207.495" version="1.1" viewBox="0 0 352.455 207.495" xml:space="preserve"><metadata id="metadata6884"/><g id="g6886" transform="matrix(1.3333333,0,0,-1.3333333,-4.732357,212.22761)"><g id="g6888" transform="scale(0.1)"><g id="g6890"><path style="fill:none;stroke:#000;stroke-width:1;stroke-linecap:round;stroke-linejoin:round;stroke-miterlimit:10;stroke-dasharray:none;stroke-opacity:1" id="path6892" d="M 93.5999,1353.6 V 35.9998"/><path style="fill:none;stroke:#000;stroke-width:1;stroke-linecap:round;stroke-linejoin:round;stroke-miterlimit:10;stroke-dasharray:none;stroke-opacity:1" id="path6894" d="M 216,1476 V 35.9998"/><path style="fill:none;stroke:#000;stroke-width:1;stroke-linecap:round;stroke-linejoin:round;stroke-miterlimit:10;stroke-dasharray:none;stroke-opacity:1" id="path6896" d="M 453.6,1591.2 V 35.9998"/><path style="fill:none;stroke:#000;stroke-width:1;stroke-linecap:round;stroke-linejoin:round;stroke-miterlimit:10;stroke-dasharray:none;stroke-opacity:1" id="path6898" d="M 338.4,1591.2 V 35.9998"/><path style="fill:none;stroke:#000;stroke-width:1;stroke-linecap:round;stroke-linejoin:round;stroke-miterlimit:10;stroke-dasharray:none;stroke-opacity:1" id="path6900" d="M 576,1591.2 V 35.9998"/><path style="fill:none;stroke:#000;stroke-width:1;stroke-linecap:round;stroke-linejoin:round;stroke-miterlimit:10;stroke-dasharray:none;stroke-opacity:1" id="path6902" d="M 698.4,1591.2 V 35.9998"/><path style="fill:none;stroke:#000;stroke-width:1;stroke-linecap:round;stroke-linejoin:round;stroke-miterlimit:10;stroke-dasharray:none;stroke-opacity:1" id="path6904" d="M 813.6,1591.2 V 35.9998"/><path style="fill:none;stroke:#000;stroke-width:1;stroke-linecap:round;stroke-linejoin:round;stroke-miterlimit:10;stroke-dasharray:none;stroke-opacity:1" id="path6906" d="M 936,1591.2 V 35.9998"/><path style="fill:none;stroke:#000;stroke-width:1;stroke-linecap:round;stroke-linejoin:round;stroke-miterlimit:10;stroke-dasharray:none;stroke-opacity:1" id="path6908" d="M 1058.4,1591.2 V 35.9998"/><path style="fill:none;stroke:#000;stroke-width:1;stroke-linecap:round;stroke-linejoin:round;stroke-miterlimit:10;stroke-dasharray:none;stroke-opacity:1" id="path6910" d="M 1173.6,1591.2 V 35.9998"/><path style="fill:none;stroke:#000;stroke-width:1;stroke-linecap:round;stroke-linejoin:round;stroke-miterlimit:10;stroke-dasharray:none;stroke-opacity:1" id="path6912" d="M 1296,1591.2 V 35.9998"/><path style="fill:none;stroke:#000;stroke-width:1;stroke-linecap:round;stroke-linejoin:round;stroke-miterlimit:10;stroke-dasharray:none;stroke-opacity:1" id="path6914" d="M 1411.2,1591.2 V 35.9998"/><path style="fill:none;stroke:#000;stroke-width:1;stroke-linecap:round;stroke-linejoin:round;stroke-miterlimit:10;stroke-dasharray:none;stroke-opacity:1" id="path6916" d="M 1533.6,1591.2 V 35.9998"/><path style="fill:none;stroke:#000;stroke-width:1;stroke-linecap:round;stroke-linejoin:round;stroke-miterlimit:10;stroke-dasharray:none;stroke-opacity:1" id="path6918" d="M 1771.2,1231.2 V 35.9998"/><path style="fill:none;stroke:#000;stroke-width:1;stroke-linecap:round;stroke-linejoin:round;stroke-miterlimit:10;stroke-dasharray:none;stroke-opacity:1" id="path6920" d="M 1656,1353.6 V 35.9998"/><path style="fill:none;stroke:#000;stroke-width:1;stroke-linecap:round;stroke-linejoin:round;stroke-miterlimit:10;stroke-dasharray:none;stroke-opacity:1" id="path6922" d="M 1893.6,1231.2 V 35.9998"/><path style="fill:none;stroke:#000;stroke-width:1;stroke-linecap:round;stroke-linejoin:round;stroke-miterlimit:10;stroke-dasharray:none;stroke-opacity:1" id="path6924" d="M 2016,1116 V 35.9998"/><path style="fill:none;stroke:#000;stroke-width:1;stroke-linecap:round;stroke-linejoin:round;stroke-miterlimit:10;stroke-dasharray:none;stroke-opacity:1" id="path6926" d="M 2131.2,1116 V 35.9998"/><path style="fill:none;stroke:#000;stroke-width:1;stroke-linecap:round;stroke-linejoin:round;stroke-miterlimit:10;stroke-dasharray:none;stroke-opacity:1" id="path6928" d="M 2253.6,1116 V 35.9998"/><path style="fill:none;stroke:#000;stroke-width:1;stroke-linecap:round;stroke-linejoin:round;stroke-miterlimit:10;stroke-dasharray:none;stroke-opacity:1" id="path6930" d="M 2376,1116 V 35.9998"/><path style="fill:none;stroke:#000;stroke-width:1;stroke-linecap:round;stroke-linejoin:round;stroke-miterlimit:10;stroke-dasharray:none;stroke-opacity:1" id="path6932" d="M 2491.2,1116 V 35.9998"/><path style="fill:none;stroke:#000;stroke-width:1;stroke-linecap:round;stroke-linejoin:round;stroke-miterlimit:10;stroke-dasharray:none;stroke-opacity:1" id="path6934" d="M 2613.6,1116 V 151.2"/><path style="fill:none;stroke:#000;stroke-width:1;stroke-linecap:round;stroke-linejoin:round;stroke-miterlimit:10;stroke-dasharray:none;stroke-opacity:1" id="path6936" d="M 273.6,1533.6 H 1598.4"/><path style="fill:none;stroke:#000;stroke-width:1;stroke-linecap:round;stroke-linejoin:round;stroke-miterlimit:10;stroke-dasharray:none;stroke-opacity:1" id="path6938" d="m 158.4,1411.2 h 1440"/><path style="fill:none;stroke:#000;stroke-width:1;stroke-linecap:round;stroke-linejoin:round;stroke-miterlimit:10;stroke-dasharray:none;stroke-opacity:1" id="path6940" d="M 35.9998,1296 H 1713.6"/><path style="fill:none;stroke:#000;stroke-width:1;stroke-linecap:round;stroke-linejoin:round;stroke-miterlimit:10;stroke-dasharray:none;stroke-opacity:1" id="path6942" d="M 35.9998,1173.6 H 1958.4"/><path style="fill:none;stroke:#000;stroke-width:1;stroke-linecap:round;stroke-linejoin:round;stroke-miterlimit:10;stroke-dasharray:none;stroke-opacity:1" id="path6944" d="M 35.9998,1051.2 H 2678.4"/><path style="fill:none;stroke:#000;stroke-width:1;stroke-linecap:round;stroke-linejoin:round;stroke-miterlimit:10;stroke-dasharray:none;stroke-opacity:1" id="path6946" d="M 35.9998,928.8 H 2678.4"/><path style="fill:none;stroke:#000;stroke-width:1;stroke-linecap:round;stroke-linejoin:round;stroke-miterlimit:10;stroke-dasharray:none;stroke-opacity:1" id="path6948" d="M 35.9998,813.6 H 2678.4"/><path style="fill:none;stroke:#000;stroke-width:1;stroke-linecap:round;stroke-linejoin:round;stroke-miterlimit:10;stroke-dasharray:none;stroke-opacity:1" id="path6950" d="M 35.9998,691.2 H 2678.4"/><path style="fill:none;stroke:#000;stroke-width:1;stroke-linecap:round;stroke-linejoin:round;stroke-miterlimit:10;stroke-dasharray:none;stroke-opacity:1" id="path6952" d="M 35.9998,568.8 H 2678.4"/><path style="fill:none;stroke:#000;stroke-width:1;stroke-linecap:round;stroke-linejoin:round;stroke-miterlimit:10;stroke-dasharray:none;stroke-opacity:1" id="path6954" d="M 35.9998,446.4 H 2678.4"/><path style="fill:none;stroke:#000;stroke-width:1;stroke-linecap:round;stroke-linejoin:round;stroke-miterlimit:10;stroke-dasharray:none;stroke-opacity:1" id="path6956" d="M 35.9998,331.2 H 2678.4"/><path style="fill:none;stroke:#000;stroke-width:1;stroke-linecap:round;stroke-linejoin:round;stroke-miterlimit:10;stroke-dasharray:none;stroke-opacity:1" id="path6958" d="M 35.9998,216 H 2678.4"/><path style="fill:none;stroke:#000;stroke-width:1;stroke-linecap:round;stroke-linejoin:round;stroke-miterlimit:10;stroke-dasharray:none;stroke-opacity:1" id="path6960" d="M 35.9998,93.5999 H 2556"/><path style="fill:silver;fill-opacity:1;fill-rule:evenodd;stroke:none" id="path6962" d="m 216,93.5999 h 1202.4 v 1202.4 H 216 Z"/><path style="fill:none;stroke:#000;stroke-width:22.5;stroke-linecap:round;stroke-linejoin:round;stroke-miterlimit:10;stroke-dasharray:none;stroke-opacity:1" id="path6964" d="m 216,93.5999 h 1202.4 v 1202.4 H 216 Z"/><path style="fill:none;stroke:#000;stroke-width:7.5;stroke-linecap:round;stroke-linejoin:round;stroke-miterlimit:10;stroke-dasharray:none;stroke-opacity:1" id="path6966" d="M 338.4,273.6 V 93.5999"/><path style="fill:none;stroke:#000;stroke-width:7.5;stroke-linecap:round;stroke-linejoin:round;stroke-miterlimit:10;stroke-dasharray:none;stroke-opacity:1" id="path6968" d="M 216,216 H 396"/><path style="fill:none;stroke:#000;stroke-width:7.5;stroke-linecap:round;stroke-linejoin:round;stroke-miterlimit:10;stroke-dasharray:none;stroke-opacity:1" id="path6970" d="M 453.6,151.2 V 93.5999"/><path style="fill:none;stroke:#000;stroke-width:7.5;stroke-linecap:round;stroke-linejoin:round;stroke-miterlimit:10;stroke-dasharray:none;stroke-opacity:1" id="path6972" d="m 216,331.2 h 57.6"/><path style="fill:#000;fill-opacity:1;fill-rule:evenodd;stroke:none" id="path6974" d="m 302.4,165.603 c -0.011,11.084 -11.998,18.003 -21.602,12.467 -9.602,-5.571 -9.585,-19.412 0.018,-24.95 9.611,-5.522 21.575,1.395 21.584,12.48"/><path style="fill:none;stroke:#000;stroke-width:22.5;stroke-linecap:round;stroke-linejoin:round;stroke-miterlimit:10;stroke-dasharray:none;stroke-opacity:1" id="path6976" d="m 302.4,165.603 c -0.011,11.084 -11.998,18.003 -21.602,12.467 -9.602,-5.571 -9.585,-19.412 0.018,-24.95 9.611,-5.522 21.575,1.395 21.584,12.48"/><path style="fill:none;stroke:#000;stroke-width:7.5;stroke-linecap:round;stroke-linejoin:round;stroke-miterlimit:10;stroke-dasharray:none;stroke-opacity:1" id="path6978" d="m 1296,1288.8 v -180"/><path style="fill:none;stroke:#000;stroke-width:7.5;stroke-linecap:round;stroke-linejoin:round;stroke-miterlimit:10;stroke-dasharray:none;stroke-opacity:1" id="path6980" d="m 1231.2,1173.6 h 180"/><path style="fill:none;stroke:#000;stroke-width:7.5;stroke-linecap:round;stroke-linejoin:round;stroke-miterlimit:10;stroke-dasharray:none;stroke-opacity:1" id="path6982" d="m 1173.6,1288.8 v -57.6"/><path style="fill:none;stroke:#000;stroke-width:7.5;stroke-linecap:round;stroke-linejoin:round;stroke-miterlimit:10;stroke-dasharray:none;stroke-opacity:1" id="path6984" d="m 1353.6,1051.2 h 57.6"/><path style="fill:#000;fill-opacity:1;fill-rule:evenodd;stroke:none" id="path6986" d="m 1368,1231.2 c -0.01,11.09 -12,18.01 -21.6,12.47 -9.6,-5.57 -9.59,-19.41 0.02,-24.95 9.61,-5.52 21.57,1.39 21.58,12.48"/><path style="fill:none;stroke:#000;stroke-width:22.5;stroke-linecap:round;stroke-linejoin:round;stroke-miterlimit:10;stroke-dasharray:none;stroke-opacity:1" id="path6988" d="m 1368,1231.2 c -0.01,11.09 -12,18.01 -21.6,12.47 -9.6,-5.57 -9.59,-19.41 0.02,-24.95 9.61,-5.52 21.57,1.39 21.58,12.48"/><path style="fill:silver;fill-opacity:1;fill-rule:evenodd;stroke:none" id="path6990" d="m 1418.4,216 h 1080 v 723.6 h -1080 z"/><path style="fill:none;stroke:#000;stroke-width:22.5;stroke-linecap:round;stroke-linejoin:round;stroke-miterlimit:10;stroke-dasharray:none;stroke-opacity:1" id="path6992" d="m 1418.4,216 h 1080 v 723.6 h -1080 z"/><path style="fill:none;stroke:#000;stroke-width:7.5;stroke-linecap:round;stroke-linejoin:round;stroke-miterlimit:10;stroke-dasharray:none;stroke-opacity:1" id="path6994" d="M 1533.6,396 V 216"/><path style="fill:none;stroke:#000;stroke-width:7.5;stroke-linecap:round;stroke-linejoin:round;stroke-miterlimit:10;stroke-dasharray:none;stroke-opacity:1" id="path6996" d="m 1418.4,331.2 h 180"/><path style="fill:none;stroke:#000;stroke-width:7.5;stroke-linecap:round;stroke-linejoin:round;stroke-miterlimit:10;stroke-dasharray:none;stroke-opacity:1" id="path6998" d="M 1656,273.6 V 216"/><path style="fill:none;stroke:#000;stroke-width:7.5;stroke-linecap:round;stroke-linejoin:round;stroke-miterlimit:10;stroke-dasharray:none;stroke-opacity:1" id="path7000" d="M 1418.4,446.4 H 1476"/><path style="fill:#000;fill-opacity:1;fill-rule:evenodd;stroke:none" id="path7002" d="m 1497.6,280.803 c -0.01,11.084 -12,18.003 -21.6,12.467 -9.6,-5.571 -9.59,-19.412 0.02,-24.95 9.61,-5.522 21.57,1.395 21.58,12.48"/><path style="fill:none;stroke:#000;stroke-width:22.5;stroke-linecap:round;stroke-linejoin:round;stroke-miterlimit:10;stroke-dasharray:none;stroke-opacity:1" id="path7004" d="m 1497.6,280.803 c -0.01,11.084 -12,18.003 -21.6,12.467 -9.6,-5.571 -9.59,-19.412 0.02,-24.95 9.61,-5.522 21.57,1.395 21.58,12.48"/><path style="fill:none;stroke:#000;stroke-width:7.5;stroke-linecap:round;stroke-linejoin:round;stroke-miterlimit:10;stroke-dasharray:none;stroke-opacity:1" id="path7006" d="m 2376,928.8 v -180"/><path style="fill:none;stroke:#000;stroke-width:7.5;stroke-linecap:round;stroke-linejoin:round;stroke-miterlimit:10;stroke-dasharray:none;stroke-opacity:1" id="path7008" d="m 2311.2,813.6 h 180"/><path style="fill:none;stroke:#000;stroke-width:7.5;stroke-linecap:round;stroke-linejoin:round;stroke-miterlimit:10;stroke-dasharray:none;stroke-opacity:1" id="path7010" d="M 2253.6,928.8 V 871.2"/><path style="fill:none;stroke:#000;stroke-width:7.5;stroke-linecap:round;stroke-linejoin:round;stroke-miterlimit:10;stroke-dasharray:none;stroke-opacity:1" id="path7012" d="m 2433.6,691.2 h 57.6"/><path style="fill:#000;fill-opacity:1;fill-rule:evenodd;stroke:none" id="path7014" d="m 2448,871.203 c -0.01,11.084 -12,18.003 -21.6,12.467 -9.6,-5.571 -9.59,-19.412 0.02,-24.95 9.61,-5.522 21.57,1.395 21.58,12.48"/><path style="fill:none;stroke:#000;stroke-width:22.5;stroke-linecap:round;stroke-linejoin:round;stroke-miterlimit:10;stroke-dasharray:none;stroke-opacity:1" id="path7016" d="m 2448,871.203 c -0.01,11.084 -12,18.003 -21.6,12.467 -9.6,-5.571 -9.59,-19.412 0.02,-24.95 9.61,-5.522 21.57,1.395 21.58,12.48"/><g id="g7018" transform="scale(10)"><text style="font-style:italic;font-variant:normal;font-size:10px;font-family:'Times New Roman';-inkscape-font-specification:Times-Italic;writing-mode:lr-tb;fill:#000;fill-opacity:1;fill-rule:nonzero;stroke:none" id="text7028" transform="matrix(0.871795,0,0,-1,42.84,39.6)"><tspan id="tspan7020" x="0 3.33 6.66 11.66 14.16 19.16 22.49" y="0">(-3,2)</tspan><tspan id="tspan7022" x="59.051 62.381 67.381 69.881 74.881 79.881 83.211" y="-52.56">(6,11)</tspan><tspan id="tspan7024" x="138.748 142.078 147.078 149.578 154.578 157.908" y="-12.24">(7,3)</tspan><tspan id="tspan7026" x="183.759 187.089 192.089 197.089 199.589 204.589 207.919" y="-16.56">(15,8)</tspan></text></g><path style="fill:none;stroke:#000;stroke-width:7.5;stroke-linecap:round;stroke-linejoin:round;stroke-miterlimit:10;stroke-dasharray:none;stroke-opacity:1" id="path7030" d="M 318,195.6 482.4,360"/><path style="fill:#000;fill-opacity:1;fill-rule:evenodd;stroke:none" id="path7032" d="m 302.4,180 21.6,52.8 -2.4,-33.6 33.6,2.4 -52.8,-21.6"/><path style="fill:none;stroke:#000;stroke-width:7.5;stroke-linecap:round;stroke-linejoin:round;stroke-miterlimit:10;stroke-dasharray:none;stroke-opacity:1" id="path7034" d="m 302.4,180 21.6,52.8 -2.4,-33.6 33.6,2.4 -52.8,-21.6"/><path style="fill:none;stroke:#000;stroke-width:7.5;stroke-linecap:round;stroke-linejoin:round;stroke-miterlimit:10;stroke-dasharray:none;stroke-opacity:1" id="path7036" d="m 1513.2,310.8 164.4,164.4"/><path style="fill:#000;fill-opacity:1;fill-rule:evenodd;stroke:none" id="path7038" d="m 1497.6,295.2 21.6,52.8 -2.4,-33.6 33.6,2.4 -52.8,-21.6"/><path style="fill:none;stroke:#000;stroke-width:7.5;stroke-linecap:round;stroke-linejoin:round;stroke-miterlimit:10;stroke-dasharray:none;stroke-opacity:1" id="path7040" d="m 1497.6,295.2 21.6,52.8 -2.4,-33.6 33.6,2.4 -52.8,-21.6"/><path style="fill:none;stroke:#000;stroke-width:7.5;stroke-linecap:round;stroke-linejoin:round;stroke-miterlimit:10;stroke-dasharray:none;stroke-opacity:1" id="path7042" d="M 1152,1029.6 1316.4,1194"/><path style="fill:#000;fill-opacity:1;fill-rule:evenodd;stroke:none" id="path7044" d="m 1332,1209.6 -21.6,-52.8 2.4,33.6 -33.6,-2.4 52.8,21.6"/><path style="fill:none;stroke:#000;stroke-width:7.5;stroke-linecap:round;stroke-linejoin:round;stroke-miterlimit:10;stroke-dasharray:none;stroke-opacity:1" id="path7046" d="m 1332,1209.6 -21.6,-52.8 2.4,33.6 -33.6,-2.4 52.8,21.6"/><path style="fill:none;stroke:#000;stroke-width:7.5;stroke-linecap:round;stroke-linejoin:round;stroke-miterlimit:10;stroke-dasharray:none;stroke-opacity:1" id="path7048" d="M 2232,669.6 2396.4,834"/><path style="fill:#000;fill-opacity:1;fill-rule:evenodd;stroke:none" id="path7050" d="m 2412,849.6 -21.6,-52.8 2.4,33.6 -33.6,-2.4 52.8,21.6"/><path style="fill:none;stroke:#000;stroke-width:7.5;stroke-linecap:round;stroke-linejoin:round;stroke-miterlimit:10;stroke-dasharray:none;stroke-opacity:1" id="path7052" d="m 2412,849.6 -21.6,-52.8 2.4,33.6 -33.6,-2.4 52.8,21.6"/><g id="g7054" transform="scale(10)"><text style="font-style:italic;font-variant:normal;font-weight:700;font-size:12px;font-family:'Times New Roman';-inkscape-font-specification:Times-BoldItalic;writing-mode:lr-tb;fill:#000;fill-opacity:1;fill-rule:nonzero;stroke:none" id="text7058" transform="matrix(0.893617,0,0,-1,187.56,133.2)"><tspan id="tspan7056" x="0 4.668 11.34 17.34 22.668 28.668 31.668 38.34 44.34 50.34 55.668 60.996" y="0">Index Space</tspan></text></g><path style="fill:none;stroke:#000;stroke-width:15;stroke-linecap:round;stroke-linejoin:round;stroke-miterlimit:10;stroke-dasharray:none;stroke-opacity:1" id="path7060" d="m 1706.4,1415.15 c 0.07,29.8 -81.99,55.37 -193.76,60.1"/><path style="fill:#000;fill-opacity:1;fill-rule:evenodd;stroke:none" id="path7062" d="m 1476,1476 109.2,36 -52.8,-39.6 46.8,-45.6 -103.2,49.2"/><path style="fill:none;stroke:#000;stroke-width:7.5;stroke-linecap:round;stroke-linejoin:round;stroke-miterlimit:10;stroke-dasharray:none;stroke-opacity:1" id="path7064" d="m 1476,1476 109.2,36 -52.8,-39.6 46.8,-45.6 -103.2,49.2"/><path style="fill:none;stroke:#000;stroke-width:15;stroke-linecap:round;stroke-linejoin:round;stroke-miterlimit:10;stroke-dasharray:none;stroke-opacity:1" id="path7066" d="m 1706.4,1414.71 c 0.11,-33.98 58.21,-61.25 129.84,-61.11"/><path style="fill:none;stroke:#000;stroke-width:15;stroke-linecap:round;stroke-linejoin:round;stroke-miterlimit:10;stroke-dasharray:none;stroke-opacity:1" id="path7068" d="m 1635.73,1119.09 c 75.17,12.6 128.33,60.68 128.27,115.85"/><path style="fill:#000;fill-opacity:1;fill-rule:evenodd;stroke:none" id="path7070" d="m 1598.4,1116 91.2,69.6 -36,-55.2 58.8,-27.6 -114,13.2"/><path style="fill:none;stroke:#000;stroke-width:7.5;stroke-linecap:round;stroke-linejoin:round;stroke-miterlimit:10;stroke-dasharray:none;stroke-opacity:1" id="path7072" d="m 1598.4,1116 91.2,69.6 -36,-55.2 58.8,-27.6 -114,13.2"/><path style="fill:none;stroke:#000;stroke-width:15;stroke-linecap:round;stroke-linejoin:round;stroke-miterlimit:10;stroke-dasharray:none;stroke-opacity:1" id="path7074" d="m 1835.88,1353.6 c -39.93,-0.14 -72.03,-53.41 -71.88,-119.07"/></g></g></g></svg>