<svg xmlns="http://www.w3.org/2000/svg" xmlns:svg="http://www.w3.org/2000/svg" id="svg1952" width="483.361" height="483.201" version="1.1" viewBox="0 0 483.361 483.201" xml:space="preserve"><metadata id="metadata1958"/><g id="g1960" transform="matrix(1.3333333,0,0,-1.3333333,-3.2786095,486.47919)"><g id="g1962" transform="scale(0.1)"><g id="g1964"><path style="fill:none;stroke:#000;stroke-width:7.5;stroke-linecap:round;stroke-linejoin:round;stroke-miterlimit:10;stroke-dasharray:none;stroke-opacity:1" id="path1966" d="M 35.9998,757.2 H 1474.8"/><path style="fill:none;stroke:#000;stroke-width:7.5;stroke-linecap:round;stroke-linejoin:round;stroke-miterlimit:10;stroke-dasharray:none;stroke-opacity:1" id="path1968" d="M 35.9998,1117.2 H 1474.8"/><path style="fill:none;stroke:#000;stroke-width:7.5;stroke-linecap:round;stroke-linejoin:round;stroke-miterlimit:10;stroke-dasharray:none;stroke-opacity:1" id="path1970" d="M 35.9998,397.2 H 1474.8"/><path style="fill:none;stroke:#000;stroke-width:7.5;stroke-linecap:round;stroke-linejoin:round;stroke-miterlimit:10;stroke-dasharray:none;stroke-opacity:1" id="path1972" d="M 394.8,1477.2 V 37.2"/><path style="fill:none;stroke:#000;stroke-width:7.5;stroke-linecap:round;stroke-linejoin:round;stroke-miterlimit:10;stroke-dasharray:none;stroke-opacity:1" id="path1974" d="M 754.8,1477.2 V 37.2"/><path style="fill:none;stroke:#000;stroke-width:7.5;stroke-linecap:round;stroke-linejoin:round;stroke-miterlimit:10;stroke-dasharray:none;stroke-opacity:1" id="path1976" d="M 1114.8,1477.2 V 37.2"/><path style="fill:none;stroke:#000;stroke-width:22.5;stroke-linecap:round;stroke-linejoin:round;stroke-miterlimit:10;stroke-dasharray:none;stroke-opacity:1" id="path1978" d="M 35.9998,1477.2 V 37.2"/><path style="fill:none;stroke:#000;stroke-width:22.5;stroke-linecap:round;stroke-linejoin:round;stroke-miterlimit:10;stroke-dasharray:none;stroke-opacity:1" id="path1980" d="M 1474.8,1477.2 V 37.2"/><path style="fill:none;stroke:#000;stroke-width:22.5;stroke-linecap:round;stroke-linejoin:round;stroke-miterlimit:10;stroke-dasharray:none;stroke-opacity:1" id="path1982" d="M 35.9998,1477.2 H 1474.8"/><path style="fill:none;stroke:#000;stroke-width:22.5;stroke-linecap:round;stroke-linejoin:round;stroke-miterlimit:10;stroke-dasharray:none;stroke-opacity:1" id="path1984" d="M 35.9998,37.2 H 1476"/><path style="fill:none;stroke:#000;stroke-width:22.5;stroke-linecap:round;stroke-linejoin:round;stroke-miterlimit:10;stroke-dasharray:none;stroke-opacity:1" id="path1986" d="M 1476,1476 V 35.9998"/><path style="fill:none;stroke:#000;stroke-width:22.5;stroke-linecap:round;stroke-linejoin:round;stroke-miterlimit:10;stroke-dasharray:none;stroke-opacity:1" id="path1988" d="M 35.9998,1476 H 1476"/><path style="fill:none;stroke:#000;stroke-width:22.5;stroke-linecap:round;stroke-linejoin:round;stroke-miterlimit:10;stroke-dasharray:none;stroke-opacity:1" id="path1990" d="M 1836,1477.2 V 37.2"/><path style="fill:none;stroke:#000;stroke-width:7.5;stroke-linecap:round;stroke-linejoin:round;stroke-miterlimit:10;stroke-dasharray:none;stroke-opacity:1" id="path1992" d="M 1837.2,756 3276,399.6"/><path style="fill:none;stroke:#000;stroke-width:7.5;stroke-linecap:round;stroke-linejoin:round;stroke-miterlimit:10;stroke-dasharray:none;stroke-opacity:1" id="path1994" d="M 1837.2,1116 3276,579.6"/><path style="fill:none;stroke:#000;stroke-width:7.5;stroke-linecap:round;stroke-linejoin:round;stroke-miterlimit:10;stroke-dasharray:none;stroke-opacity:1" id="path1996" d="m 1837.2,396 1440,-178.8"/><path style="fill:none;stroke:#000;stroke-width:7.5;stroke-linecap:round;stroke-linejoin:round;stroke-miterlimit:10;stroke-dasharray:none;stroke-opacity:1" id="path1998" d="M 2187.6,1302 V 39.5999"/><path style="fill:none;stroke:#000;stroke-width:7.5;stroke-linecap:round;stroke-linejoin:round;stroke-miterlimit:10;stroke-dasharray:none;stroke-opacity:1" id="path2000" d="M 2547.6,1122 V 39.5999"/><path style="fill:none;stroke:#000;stroke-width:7.5;stroke-linecap:round;stroke-linejoin:round;stroke-miterlimit:10;stroke-dasharray:none;stroke-opacity:1" id="path2002" d="M 2907.6,942 V 39.5999"/><path style="fill:none;stroke:#000;stroke-width:22.5;stroke-linecap:round;stroke-linejoin:round;stroke-miterlimit:10;stroke-dasharray:none;stroke-opacity:1" id="path2004" d="M 1837.2,1476 V 35.9998"/><path style="fill:none;stroke:#000;stroke-width:22.5;stroke-linecap:round;stroke-linejoin:round;stroke-miterlimit:10;stroke-dasharray:none;stroke-opacity:1" id="path2006" d="M 3276,757.2 V 35.9998"/><path style="fill:none;stroke:#000;stroke-width:22.5;stroke-linecap:round;stroke-linejoin:round;stroke-miterlimit:10;stroke-dasharray:none;stroke-opacity:1" id="path2008" d="M 1837.2,1476 3276,757.2"/><path style="fill:none;stroke:#000;stroke-width:22.5;stroke-linecap:round;stroke-linejoin:round;stroke-miterlimit:10;stroke-dasharray:none;stroke-opacity:1" id="path2010" d="m 1837.2,35.9998 h 1440"/><path style="fill:none;stroke:#000;stroke-width:22.5;stroke-linecap:round;stroke-linejoin:round;stroke-miterlimit:10;stroke-dasharray:none;stroke-opacity:1" id="path2012" d="m 1837.2,1477.2 1440,-720"/><path style="fill:none;stroke:#000;stroke-width:22.5;stroke-linecap:round;stroke-linejoin:round;stroke-miterlimit:10;stroke-dasharray:none;stroke-opacity:1" id="path2014" d="M 2018.4,1778.4 3457.2,1059.6"/><path style="fill:none;stroke:#000;stroke-width:22.5;stroke-linecap:round;stroke-linejoin:round;stroke-miterlimit:10;stroke-dasharray:none;stroke-opacity:1" id="path2016" d="m 2018.4,1779.6 900,900"/><path style="fill:none;stroke:#000;stroke-width:7.5;stroke-linecap:round;stroke-linejoin:round;stroke-miterlimit:10;stroke-dasharray:none;stroke-opacity:1" id="path2018" d="m 2554.8,2317.2 996,-597.6"/><path style="fill:none;stroke:#000;stroke-width:7.5;stroke-linecap:round;stroke-linejoin:round;stroke-miterlimit:10;stroke-dasharray:none;stroke-opacity:1" id="path2020" d="m 2734.8,2496 858,-478.8"/><path style="fill:none;stroke:#000;stroke-width:7.5;stroke-linecap:round;stroke-linejoin:round;stroke-miterlimit:10;stroke-dasharray:none;stroke-opacity:1" id="path2022" d="M 2310,2074.8 3506.4,1417.2"/><path style="fill:none;stroke:#000;stroke-width:7.5;stroke-linecap:round;stroke-linejoin:round;stroke-miterlimit:10;stroke-dasharray:none;stroke-opacity:1" id="path2024" d="M 2377.2,1600.8 3105.6,2586"/><path style="fill:none;stroke:#000;stroke-width:7.5;stroke-linecap:round;stroke-linejoin:round;stroke-miterlimit:10;stroke-dasharray:none;stroke-opacity:1" id="path2026" d="m 2737.2,1420.8 540,1080"/><path style="fill:none;stroke:#000;stroke-width:7.5;stroke-linecap:round;stroke-linejoin:round;stroke-miterlimit:10;stroke-dasharray:none;stroke-opacity:1" id="path2028" d="m 3097.2,1240.8 360,1170"/><path style="fill:none;stroke:#000;stroke-width:22.5;stroke-linecap:round;stroke-linejoin:round;stroke-miterlimit:10;stroke-dasharray:none;stroke-opacity:1" id="path2030" d="m 3457.2,1059.6 181.2,1260"/><path style="fill:none;stroke:#000;stroke-width:22.5;stroke-linecap:round;stroke-linejoin:round;stroke-miterlimit:10;stroke-dasharray:none;stroke-opacity:1" id="path2032" d="m 2918.4,2679.6 720,-360"/><path style="fill:none;stroke:#000;stroke-width:22.5;stroke-linecap:round;stroke-linejoin:round;stroke-miterlimit:10;stroke-dasharray:none;stroke-opacity:1" id="path2034" d="m 2018.4,1779.6 1440,-720"/><path style="fill:none;stroke:#000;stroke-width:22.5;stroke-linecap:round;stroke-linejoin:round;stroke-miterlimit:10;stroke-dasharray:none;stroke-opacity:1" id="path2036" d="m 2016,1783.2 897.6,891.6"/><path style="fill:none;stroke:#000;stroke-width:22.5;stroke-linecap:round;stroke-linejoin:round;stroke-miterlimit:10;stroke-dasharray:none;stroke-opacity:1" id="path2038" d="M 1051.2,3457.2 1770,2017.2"/><path style="fill:none;stroke:#000;stroke-width:22.5;stroke-linecap:round;stroke-linejoin:round;stroke-miterlimit:10;stroke-dasharray:none;stroke-opacity:1" id="path2040" d="m 1771.2,2017.2 900,900"/><path style="fill:none;stroke:#000;stroke-width:7.5;stroke-linecap:round;stroke-linejoin:round;stroke-miterlimit:10;stroke-dasharray:none;stroke-opacity:1" id="path2042" d="M 1706.4,3550.8 2310,2557.2"/><path style="fill:none;stroke:#000;stroke-width:7.5;stroke-linecap:round;stroke-linejoin:round;stroke-miterlimit:10;stroke-dasharray:none;stroke-opacity:1" id="path2044" d="M 2008.8,3594 2490,2736"/><path style="fill:none;stroke:#000;stroke-width:7.5;stroke-linecap:round;stroke-linejoin:round;stroke-miterlimit:10;stroke-dasharray:none;stroke-opacity:1" id="path2046" d="M 1408.8,3507.6 2072.4,2322"/><path style="fill:none;stroke:#000;stroke-width:7.5;stroke-linecap:round;stroke-linejoin:round;stroke-miterlimit:10;stroke-dasharray:none;stroke-opacity:1" id="path2048" d="m 1230,3099.6 1167.6,360"/><path style="fill:none;stroke:#000;stroke-width:7.5;stroke-linecap:round;stroke-linejoin:round;stroke-miterlimit:10;stroke-dasharray:none;stroke-opacity:1" id="path2050" d="m 1410,2739.6 1072.8,546"/><path style="fill:none;stroke:#000;stroke-width:7.5;stroke-linecap:round;stroke-linejoin:round;stroke-miterlimit:10;stroke-dasharray:none;stroke-opacity:1" id="path2052" d="m 1590,2379.6 980.4,726"/><path style="fill:none;stroke:#000;stroke-width:22.5;stroke-linecap:round;stroke-linejoin:round;stroke-miterlimit:10;stroke-dasharray:none;stroke-opacity:1" id="path2054" d="m 1051.2,3457.2 1260,180"/><path style="fill:none;stroke:#000;stroke-width:22.5;stroke-linecap:round;stroke-linejoin:round;stroke-miterlimit:10;stroke-dasharray:none;stroke-opacity:1" id="path2056" d="m 1768.8,2020.8 897.6,891.6"/><path style="fill:none;stroke:#000;stroke-width:22.5;stroke-linecap:round;stroke-linejoin:round;stroke-miterlimit:10;stroke-dasharray:none;stroke-opacity:1" id="path2058" d="m 2311.2,3637.2 355.2,-724.8"/><path style="fill:none;stroke:#000;stroke-width:22.5;stroke-linecap:round;stroke-linejoin:round;stroke-miterlimit:10;stroke-dasharray:none;stroke-opacity:1" id="path2060" d="M 1051.2,3457.2 1771.2,2016"/><path style="fill:none;stroke:#000;stroke-width:22.5;stroke-linecap:round;stroke-linejoin:round;stroke-miterlimit:10;stroke-dasharray:none;stroke-opacity:1" id="path2062" d="M 35.9998,1837.2 H 1474.8"/><path style="fill:none;stroke:#000;stroke-width:7.5;stroke-linecap:round;stroke-linejoin:round;stroke-miterlimit:10;stroke-dasharray:none;stroke-opacity:1" id="path2064" d="M 35.9998,2556 1113.6,2558.4"/><path style="fill:none;stroke:#000;stroke-width:7.5;stroke-linecap:round;stroke-linejoin:round;stroke-miterlimit:10;stroke-dasharray:none;stroke-opacity:1" id="path2066" d="M 35.9998,2916 933.6,2918.4"/><path style="fill:none;stroke:#000;stroke-width:7.5;stroke-linecap:round;stroke-linejoin:round;stroke-miterlimit:10;stroke-dasharray:none;stroke-opacity:1" id="path2068" d="M 35.9998,2196 1292.4,2198.4"/><path style="fill:none;stroke:#000;stroke-width:7.5;stroke-linecap:round;stroke-linejoin:round;stroke-miterlimit:10;stroke-dasharray:none;stroke-opacity:1" id="path2070" d="M 216,3276 394.8,1837.2"/><path style="fill:none;stroke:#000;stroke-width:7.5;stroke-linecap:round;stroke-linejoin:round;stroke-miterlimit:10;stroke-dasharray:none;stroke-opacity:1" id="path2072" d="M 396,3277.2 754.8,1836"/><path style="fill:none;stroke:#000;stroke-width:7.5;stroke-linecap:round;stroke-linejoin:round;stroke-miterlimit:10;stroke-dasharray:none;stroke-opacity:1" id="path2074" d="M 576,3276 1114.8,1836"/><path style="fill:none;stroke:#000;stroke-width:22.5;stroke-linecap:round;stroke-linejoin:round;stroke-miterlimit:10;stroke-dasharray:none;stroke-opacity:1" id="path2076" d="M 35.9998,3276 V 1836"/><path style="fill:none;stroke:#000;stroke-width:22.5;stroke-linecap:round;stroke-linejoin:round;stroke-miterlimit:10;stroke-dasharray:none;stroke-opacity:1" id="path2078" d="m 756,3277.2 718.8,-1440"/><path style="fill:none;stroke:#000;stroke-width:22.5;stroke-linecap:round;stroke-linejoin:round;stroke-miterlimit:10;stroke-dasharray:none;stroke-opacity:1" id="path2080" d="M 35.9998,3276 756,3277.2"/><path style="fill:none;stroke:#000;stroke-width:22.5;stroke-linecap:round;stroke-linejoin:round;stroke-miterlimit:10;stroke-dasharray:none;stroke-opacity:1" id="path2082" d="M 35.9998,1836 H 1476"/><path style="fill:none;stroke:#000;stroke-width:22.5;stroke-linecap:round;stroke-linejoin:round;stroke-miterlimit:10;stroke-dasharray:none;stroke-opacity:1" id="path2084" d="M 756,3277.2 1476,1836"/><path style="fill:none;stroke:#000;stroke-width:7.5;stroke-linecap:round;stroke-linejoin:round;stroke-miterlimit:10;stroke-dasharray:none;stroke-opacity:1" id="path2086" d="m 396,1762.8 v -204"/><path style="fill:#000;fill-opacity:1;fill-rule:evenodd;stroke:none" id="path2088" d="m 396,1779.6 14.4,-48 -14.4,22.8 -14.4,-22.8 14.4,48"/><path style="fill:none;stroke:#000;stroke-width:7.5;stroke-linecap:round;stroke-linejoin:round;stroke-miterlimit:10;stroke-dasharray:none;stroke-opacity:1" id="path2090" d="m 396,1779.6 14.4,-48 -14.4,22.8 -14.4,-22.8 14.4,48"/><path style="fill:#000;fill-opacity:1;fill-rule:evenodd;stroke:none" id="path2092" d="m 396,1542 -14.4,48 14.4,-22.8 14.4,22.8 -14.4,-48"/><path style="fill:none;stroke:#000;stroke-width:7.5;stroke-linecap:round;stroke-linejoin:round;stroke-miterlimit:10;stroke-dasharray:none;stroke-opacity:1" id="path2094" d="m 396,1542 -14.4,48 14.4,-22.8 14.4,22.8 -14.4,-48"/><path style="fill:none;stroke:#000;stroke-width:7.5;stroke-linecap:round;stroke-linejoin:round;stroke-miterlimit:10;stroke-dasharray:none;stroke-opacity:1" id="path2096" d="m 1116,1755.6 v -204"/><path style="fill:#000;fill-opacity:1;fill-rule:evenodd;stroke:none" id="path2098" d="m 1116,1772.4 14.4,-48 -14.4,22.8 -14.4,-22.8 14.4,48"/><path style="fill:none;stroke:#000;stroke-width:7.5;stroke-linecap:round;stroke-linejoin:round;stroke-miterlimit:10;stroke-dasharray:none;stroke-opacity:1" id="path2100" d="m 1116,1772.4 14.4,-48 -14.4,22.8 -14.4,-22.8 14.4,48"/><path style="fill:#000;fill-opacity:1;fill-rule:evenodd;stroke:none" id="path2102" d="m 1116,1534.8 -14.4,48 14.4,-22.8 14.4,22.8 -14.4,-48"/><path style="fill:none;stroke:#000;stroke-width:7.5;stroke-linecap:round;stroke-linejoin:round;stroke-miterlimit:10;stroke-dasharray:none;stroke-opacity:1" id="path2104" d="m 1116,1534.8 -14.4,48 14.4,-22.8 14.4,22.8 -14.4,-48"/><path style="fill:none;stroke:#000;stroke-width:7.5;stroke-linecap:round;stroke-linejoin:round;stroke-miterlimit:10;stroke-dasharray:none;stroke-opacity:1" id="path2106" d="m 1550.4,1117.2 h 204"/><path style="fill:#000;fill-opacity:1;fill-rule:evenodd;stroke:none" id="path2108" d="m 1533.6,1117.2 48,14.4 -22.8,-14.4 22.8,-15.6 -48,15.6"/><path style="fill:none;stroke:#000;stroke-width:7.5;stroke-linecap:round;stroke-linejoin:round;stroke-miterlimit:10;stroke-dasharray:none;stroke-opacity:1" id="path2110" d="m 1533.6,1117.2 48,14.4 -22.8,-14.4 22.8,-15.6 -48,15.6"/><path style="fill:#000;fill-opacity:1;fill-rule:evenodd;stroke:none" id="path2112" d="m 1771.2,1117.2 -48,-14.4 22.8,14.4 -22.8,15.6 48,-15.6"/><path style="fill:none;stroke:#000;stroke-width:7.5;stroke-linecap:round;stroke-linejoin:round;stroke-miterlimit:10;stroke-dasharray:none;stroke-opacity:1" id="path2114" d="m 1771.2,1117.2 -48,-14.4 22.8,14.4 -22.8,15.6 48,-15.6"/><path style="fill:none;stroke:#000;stroke-width:7.5;stroke-linecap:round;stroke-linejoin:round;stroke-miterlimit:10;stroke-dasharray:none;stroke-opacity:1" id="path2116" d="m 1550.4,397.2 h 204"/><path style="fill:#000;fill-opacity:1;fill-rule:evenodd;stroke:none" id="path2118" d="m 1533.6,397.2 48,14.4 -22.8,-14.4 22.8,-15.6 -48,15.6"/><path style="fill:none;stroke:#000;stroke-width:7.5;stroke-linecap:round;stroke-linejoin:round;stroke-miterlimit:10;stroke-dasharray:none;stroke-opacity:1" id="path2120" d="m 1533.6,397.2 48,14.4 -22.8,-14.4 22.8,-15.6 -48,15.6"/><path style="fill:#000;fill-opacity:1;fill-rule:evenodd;stroke:none" id="path2122" d="m 1771.2,397.2 -48,-14.4 22.8,14.4 -22.8,15.6 48,-15.6"/><path style="fill:none;stroke:#000;stroke-width:7.5;stroke-linecap:round;stroke-linejoin:round;stroke-miterlimit:10;stroke-dasharray:none;stroke-opacity:1" id="path2124" d="m 1771.2,397.2 -48,-14.4 22.8,14.4 -22.8,15.6 48,-15.6"/><path style="fill:none;stroke:#000;stroke-width:7.5;stroke-linecap:round;stroke-linejoin:round;stroke-miterlimit:10;stroke-dasharray:none;stroke-opacity:1" id="path2126" d="m 2538,2683.2 146.4,-146.4"/><path style="fill:#000;fill-opacity:1;fill-rule:evenodd;stroke:none" id="path2128" d="m 2527.2,2694 45.6,-22.8 -28.8,6 6,-28.8 -22.8,45.6"/><path style="fill:none;stroke:#000;stroke-width:7.5;stroke-linecap:round;stroke-linejoin:round;stroke-miterlimit:10;stroke-dasharray:none;stroke-opacity:1" id="path2130" d="m 2527.2,2694 45.6,-22.8 -28.8,6 6,-28.8 -22.8,45.6"/><path style="fill:#000;fill-opacity:1;fill-rule:evenodd;stroke:none" id="path2132" d="m 2695.2,2526 -45.6,22.8 28.8,-6 -6,28.8 22.8,-45.6"/><path style="fill:none;stroke:#000;stroke-width:7.5;stroke-linecap:round;stroke-linejoin:round;stroke-miterlimit:10;stroke-dasharray:none;stroke-opacity:1" id="path2134" d="m 2695.2,2526 -45.6,22.8 28.8,-6 -6,28.8 22.8,-45.6"/><path style="fill:none;stroke:#000;stroke-width:7.5;stroke-linecap:round;stroke-linejoin:round;stroke-miterlimit:10;stroke-dasharray:none;stroke-opacity:1" id="path2136" d="M 2113.2,2258.4 2259.6,2112"/><path style="fill:#000;fill-opacity:1;fill-rule:evenodd;stroke:none" id="path2138" d="m 2102.4,2269.2 45.6,-22.8 -28.8,6 6,-28.8 -22.8,45.6"/><path style="fill:none;stroke:#000;stroke-width:7.5;stroke-linecap:round;stroke-linejoin:round;stroke-miterlimit:10;stroke-dasharray:none;stroke-opacity:1" id="path2140" d="m 2102.4,2269.2 45.6,-22.8 -28.8,6 6,-28.8 -22.8,45.6"/><path style="fill:#000;fill-opacity:1;fill-rule:evenodd;stroke:none" id="path2142" d="m 2270.4,2101.2 -45.6,22.8 28.8,-6 -6,28.8 22.8,-45.6"/><path style="fill:none;stroke:#000;stroke-width:7.5;stroke-linecap:round;stroke-linejoin:round;stroke-miterlimit:10;stroke-dasharray:none;stroke-opacity:1" id="path2144" d="m 2270.4,2101.2 -45.6,22.8 28.8,-6 -6,28.8 22.8,-45.6"/><path style="fill:none;stroke:#000;stroke-width:7.5;stroke-linecap:round;stroke-linejoin:round;stroke-miterlimit:10;stroke-dasharray:none;stroke-opacity:1" id="path2146" d="M 2233.2,1353.6 2346,1528.8"/><path style="fill:#000;fill-opacity:1;fill-rule:evenodd;stroke:none" id="path2148" d="m 2224.8,1340.4 13.2,49.2 v -28.8 l 26.4,12 -39.6,-32.4"/><path style="fill:none;stroke:#000;stroke-width:7.5;stroke-linecap:round;stroke-linejoin:round;stroke-miterlimit:10;stroke-dasharray:none;stroke-opacity:1" id="path2150" d="m 2224.8,1340.4 13.2,49.2 v -28.8 l 26.4,12 -39.6,-32.4"/><path style="fill:#000;fill-opacity:1;fill-rule:evenodd;stroke:none" id="path2152" d="m 2354.4,1542 -13.2,-49.2 v 28.8 l -26.4,-12 39.6,32.4"/><path style="fill:none;stroke:#000;stroke-width:7.5;stroke-linecap:round;stroke-linejoin:round;stroke-miterlimit:10;stroke-dasharray:none;stroke-opacity:1" id="path2154" d="m 2354.4,1542 -13.2,-49.2 v 28.8 l -26.4,-12 39.6,32.4"/><path style="fill:none;stroke:#000;stroke-width:7.5;stroke-linecap:round;stroke-linejoin:round;stroke-miterlimit:10;stroke-dasharray:none;stroke-opacity:1" id="path2156" d="m 2946,1008 112.8,175.2"/><path style="fill:#000;fill-opacity:1;fill-rule:evenodd;stroke:none" id="path2158" d="m 2937.6,994.8 13.2,49.2 v -28.8 l 26.4,12 -39.6,-32.4"/><path style="fill:none;stroke:#000;stroke-width:7.5;stroke-linecap:round;stroke-linejoin:round;stroke-miterlimit:10;stroke-dasharray:none;stroke-opacity:1" id="path2160" d="m 2937.6,994.8 13.2,49.2 v -28.8 l 26.4,12 -39.6,-32.4"/><path style="fill:#000;fill-opacity:1;fill-rule:evenodd;stroke:none" id="path2162" d="m 3067.2,1196.4 -13.2,-49.2 v 28.8 l -26.4,-12 39.6,32.4"/><path style="fill:none;stroke:#000;stroke-width:7.5;stroke-linecap:round;stroke-linejoin:round;stroke-miterlimit:10;stroke-dasharray:none;stroke-opacity:1" id="path2164" d="m 3067.2,1196.4 -13.2,-49.2 v 28.8 l -26.4,-12 39.6,32.4"/><path style="fill:none;stroke:#000;stroke-width:7.5;stroke-linecap:round;stroke-linejoin:round;stroke-miterlimit:10;stroke-dasharray:none;stroke-opacity:1" id="path2166" d="M 1359.6,2227.2 1542,2340"/><path style="fill:#000;fill-opacity:1;fill-rule:evenodd;stroke:none" id="path2168" d="m 1346.4,2218.8 32.4,38.4 -12,-25.2 28.8,-1.2 -49.2,-12"/><path style="fill:none;stroke:#000;stroke-width:7.5;stroke-linecap:round;stroke-linejoin:round;stroke-miterlimit:10;stroke-dasharray:none;stroke-opacity:1" id="path2170" d="m 1346.4,2218.8 32.4,38.4 -12,-25.2 28.8,-1.2 -49.2,-12"/><path style="fill:#000;fill-opacity:1;fill-rule:evenodd;stroke:none" id="path2172" d="m 1555.2,2348.4 -32.4,-38.4 12,25.2 -28.8,1.2 49.2,12"/><path style="fill:none;stroke:#000;stroke-width:7.5;stroke-linecap:round;stroke-linejoin:round;stroke-miterlimit:10;stroke-dasharray:none;stroke-opacity:1" id="path2174" d="m 1555.2,2348.4 -32.4,-38.4 12,25.2 -28.8,1.2 49.2,12"/><path style="fill:none;stroke:#000;stroke-width:7.5;stroke-linecap:round;stroke-linejoin:round;stroke-miterlimit:10;stroke-dasharray:none;stroke-opacity:1" id="path2176" d="M 999.6,2947.2 1182,3060"/><path style="fill:#000;fill-opacity:1;fill-rule:evenodd;stroke:none" id="path2178" d="m 986.4,2938.8 32.4,38.4 -12,-25.2 28.8,-1.2 -49.2,-12"/><path style="fill:none;stroke:#000;stroke-width:7.5;stroke-linecap:round;stroke-linejoin:round;stroke-miterlimit:10;stroke-dasharray:none;stroke-opacity:1" id="path2180" d="m 986.4,2938.8 32.4,38.4 -12,-25.2 28.8,-1.2 -49.2,-12"/><path style="fill:#000;fill-opacity:1;fill-rule:evenodd;stroke:none" id="path2182" d="m 1195.2,3068.4 -32.4,-38.4 12,25.2 -28.8,1.2 49.2,12"/><path style="fill:none;stroke:#000;stroke-width:7.5;stroke-linecap:round;stroke-linejoin:round;stroke-miterlimit:10;stroke-dasharray:none;stroke-opacity:1" id="path2184" d="m 1195.2,3068.4 -32.4,-38.4 12,25.2 -28.8,1.2 49.2,12"/><g id="g2186" transform="scale(10)"><text style="font-style:italic;font-variant:normal;font-size:10px;font-family:'Times New Roman';-inkscape-font-specification:Times-Italic;writing-mode:lr-tb;fill:#000;fill-opacity:1;fill-rule:nonzero;stroke:none" id="text2206" transform="matrix(0.871795,0,0,-1,12.24,18.12)"><tspan id="tspan2188" x="0 3.33 8.33 10.83 15.83 19.16" y="0">(1,1)</tspan><tspan id="tspan2190" x="204.406 207.736 212.736 215.236 220.236 223.566" y=".72">(1,1)</tspan><tspan id="tspan2192" x="-2.065 1.265 6.265 8.765 13.765 17.095" y="-179.28">(1,1)</tspan><tspan id="tspan2194" x="240.744 244.074 249.074 251.574 256.574 259.904" y="-162">(1,1)</tspan><tspan id="tspan2196" x="183.758 187.088 192.088 194.588 199.588 202.918" y="-210.96">(1,1)</tspan><tspan id="tspan2198" x="377.427 380.757 385.757 388.257 393.257 396.587" y="-242.64">(4,4)</tspan><tspan id="tspan2200" x="284.102 287.432 292.432 294.932 299.932 303.262" y="-330.48">(4,4)</tspan><tspan id="tspan2202" x="379.079 382.409 387.409 389.909 394.909 398.239" y="-38.88">(4,4)</tspan><tspan id="tspan2204" x="45.423 48.753 53.753 56.253 61.253 64.583" y="-327.6">(4,4)</tspan></text></g><path style="fill:none;stroke:#000;stroke-width:7.5;stroke-linecap:round;stroke-linejoin:round;stroke-miterlimit:10;stroke-dasharray:none;stroke-opacity:1" id="path2208" d="m 3123.6,728.4 274.8,-108"/><path style="fill:#000;fill-opacity:1;fill-rule:evenodd;stroke:none" id="path2210" d="m 3103.2,735.6 h 56.4 l -30,-9.6 14.4,-28.8 -40.8,38.4"/><path style="fill:none;stroke:#000;stroke-width:7.5;stroke-linecap:round;stroke-linejoin:round;stroke-miterlimit:10;stroke-dasharray:none;stroke-opacity:1" id="path2212" d="m 3103.2,735.6 h 56.4 l -30,-9.6 14.4,-28.8 -40.8,38.4"/><path style="fill:none;stroke:#000;stroke-width:7.5;stroke-linecap:round;stroke-linejoin:round;stroke-miterlimit:10;stroke-dasharray:none;stroke-opacity:1" id="path2214" d="m 626.4,3399.6 114,-282"/><path style="fill:#000;fill-opacity:1;fill-rule:evenodd;stroke:none" id="path2216" d="m 748.8,3097.2 -39.6,40.8 28.8,-14.4 10.8,30 v -56.4"/><path style="fill:none;stroke:#000;stroke-width:7.5;stroke-linecap:round;stroke-linejoin:round;stroke-miterlimit:10;stroke-dasharray:none;stroke-opacity:1" id="path2218" d="m 748.8,3097.2 -39.6,40.8 28.8,-14.4 10.8,30 v -56.4"/><path style="fill:none;stroke:#000;stroke-width:7.5;stroke-linecap:round;stroke-linejoin:round;stroke-miterlimit:10;stroke-dasharray:none;stroke-opacity:1" id="path2220" d="M 2222.4,3522 H 2556"/><path style="fill:#000;fill-opacity:1;fill-rule:evenodd;stroke:none" id="path2222" d="m 2203.2,3522 52.8,20.4 -24,-20.4 24,-20.4 -52.8,20.4"/><path style="fill:none;stroke:#000;stroke-width:7.5;stroke-linecap:round;stroke-linejoin:round;stroke-miterlimit:10;stroke-dasharray:none;stroke-opacity:1" id="path2224" d="m 2203.2,3522 52.8,20.4 -24,-20.4 24,-20.4 -52.8,20.4"/><path style="fill:none;stroke:#000;stroke-width:7.5;stroke-linecap:round;stroke-linejoin:round;stroke-miterlimit:10;stroke-dasharray:none;stroke-opacity:1" id="path2226" d="M 3513.6,2557.2 V 2223.6"/><path style="fill:#000;fill-opacity:1;fill-rule:evenodd;stroke:none" id="path2228" d="m 3513.6,2204.4 -21.6,52.8 21.6,-24 21.6,24 -21.6,-52.8"/><path style="fill:none;stroke:#000;stroke-width:7.5;stroke-linecap:round;stroke-linejoin:round;stroke-miterlimit:10;stroke-dasharray:none;stroke-opacity:1" id="path2230" d="m 3513.6,2204.4 -21.6,52.8 21.6,-24 21.6,24 -21.6,-52.8"/><path style="fill:#fff;fill-opacity:1;fill-rule:evenodd;stroke:none" id="path2232" d="M 1129.2,751.9 C 1128.93,901.11 824.254,994.317 580.166,919.428 336.302,844.333 336.44,656.981 580.414,582.507 824.612,508.239 1129.15,602.22 1129.2,751.864"/><g id="g2234" transform="scale(10)"><text style="font-style:italic;font-variant:normal;font-weight:700;font-size:19.75px;font-family:'Times New Roman';-inkscape-font-specification:Times-BoldItalic;writing-mode:lr-tb;fill:#000;fill-opacity:1;fill-rule:nonzero;stroke:none" id="text2238" transform="matrix(0.873418,0,0,-1,51.84,68.76)"><tspan id="tspan2236" x="0 9.875 19.75 27.433 32.923 37.861 47.736" y="0">part 0</tspan></text></g><path style="fill:#fff;fill-opacity:1;fill-rule:evenodd;stroke:none" id="path2240" d="m 2857.2,564.7 c -0.27,149.21 -304.95,242.417 -549.03,167.528 -243.87,-75.095 -243.73,-262.447 0.24,-336.921 244.2,-74.268 548.74,19.713 548.79,169.357"/><g id="g2242" transform="scale(10)"><text style="font-style:italic;font-variant:normal;font-weight:700;font-size:19.75px;font-family:'Times New Roman';-inkscape-font-specification:Times-BoldItalic;writing-mode:lr-tb;fill:#000;fill-opacity:1;fill-rule:nonzero;stroke:none" id="text2246" transform="matrix(0.873418,0,0,-1,224.64,50.04)"><tspan id="tspan2244" x="0 9.875 19.75 27.433 32.923 37.861 47.736" y="0">part 1</tspan></text></g><path style="fill:#fff;fill-opacity:1;fill-rule:evenodd;stroke:none" id="path2248" d="m 3339.6,1939.9 c -0.27,149.21 -304.95,242.42 -549.03,167.53 -243.87,-75.1 -243.73,-262.45 0.24,-336.92 244.2,-74.27 548.74,19.71 548.79,169.35"/><g id="g2250" transform="scale(10)"><text style="font-style:italic;font-variant:normal;font-weight:700;font-size:19.75px;font-family:'Times New Roman';-inkscape-font-specification:Times-BoldItalic;writing-mode:lr-tb;fill:#000;fill-opacity:1;fill-rule:nonzero;stroke:none" id="text2254" transform="matrix(0.873418,0,0,-1,272.88,187.56)"><tspan id="tspan2252" x="0 9.875 19.75 27.433 32.923 37.861 47.736" y="0">part 2</tspan></text></g><path style="fill:#fff;fill-opacity:1;fill-rule:evenodd;stroke:none" id="path2256" d="m 2317.2,2962.3 c -0.27,149.21 -304.95,242.42 -549.03,167.53 -243.87,-75.1 -243.73,-262.45 0.24,-336.92 244.2,-74.27 548.74,19.71 548.79,169.35"/><g id="g2258" transform="scale(10)"><text style="font-style:italic;font-variant:normal;font-weight:700;font-size:19.75px;font-family:'Times New Roman';-inkscape-font-specification:Times-BoldItalic;writing-mode:lr-tb;fill:#000;fill-opacity:1;fill-rule:nonzero;stroke:none" id="text2262" transform="matrix(0.873418,0,0,-1,170.64,289.8)"><tspan id="tspan2260" x="0 9.875 19.75 27.433 32.923 37.861 47.736" y="0">part 3</tspan></text></g><path style="fill:#fff;fill-opacity:1;fill-rule:evenodd;stroke:none" id="path2264" d="m 941.999,2479.9 c -0.271,149.21 -304.945,242.42 -549.033,167.53 -243.864,-75.1 -243.726,-262.45 0.248,-336.92 244.198,-74.27 548.734,19.71 548.785,169.35"/><g id="g2266" transform="scale(10)"><text style="font-style:italic;font-variant:normal;font-weight:700;font-size:19.75px;font-family:'Times New Roman';-inkscape-font-specification:Times-BoldItalic;writing-mode:lr-tb;fill:#000;fill-opacity:1;fill-rule:nonzero;stroke:none" id="text2270" transform="matrix(0.873418,0,0,-1,33.12,241.56)"><tspan id="tspan2268" x="0 9.875 19.75 27.433 32.923 37.861 47.736" y="0">part 4</tspan></text><text style="font-style:italic;font-variant:normal;font-size:10px;font-family:'Times New Roman';-inkscape-font-specification:Times-Italic;writing-mode:lr-tb;fill:#000;fill-opacity:1;fill-rule:nonzero;stroke:none" id="text2274" transform="matrix(0.871795,0,0,-1,120.24,126.12)"><tspan id="tspan2272" x="0 3.33 8.33 10.83 15.83 19.16" y="0">(4,4)</tspan></text></g></g></g></g></svg>