<svg xmlns="http://www.w3.org/2000/svg" xmlns:svg="http://www.w3.org/2000/svg" id="svg3624" width="529.243" height="524.749" version="1.1" viewBox="0 0 529.243 524.749" xml:space="preserve"><metadata id="metadata3630"/><defs id="defs3628"><clipPath id="clipPath3982" clipPathUnits="userSpaceOnUse"><path id="path3980" d="M 0,0 H 720 V 540 H 0 Z"/></clipPath><clipPath id="clipPath3994" clipPathUnits="userSpaceOnUse"><path id="path3992" d="M 0,0 H 720 V 540 H 0 Z"/></clipPath><clipPath id="clipPath4006" clipPathUnits="userSpaceOnUse"><path id="path4004" d="M 0,0 H 720 V 540 H 0 Z"/></clipPath><clipPath id="clipPath4022" clipPathUnits="userSpaceOnUse"><path id="path4020" d="M 0,0 H 720 V 540 H 0 Z"/></clipPath></defs><g id="g3632" transform="matrix(1.3333333,0,0,-1.3333333,-238.68667,591.90533)"><g id="g3634" transform="translate(360,252)"><path style="fill:none;stroke:#000;stroke-width:2.5;stroke-linecap:butt;stroke-linejoin:round;stroke-miterlimit:10;stroke-dasharray:none;stroke-opacity:1" id="path3636" d="M 0,0 H 108"/></g><g id="g3638" transform="translate(468,252.00011)"><path style="fill:none;stroke:#000;stroke-width:2.5;stroke-linecap:butt;stroke-linejoin:round;stroke-miterlimit:10;stroke-dasharray:none;stroke-opacity:1" id="path3640" d="M 0,0 54,93.531"/></g><g id="g3642" transform="translate(360,252.00011)"><path style="fill:none;stroke:#000;stroke-width:2.5;stroke-linecap:butt;stroke-linejoin:round;stroke-miterlimit:10;stroke-dasharray:none;stroke-opacity:1" id="path3644" d="M 0,0 54,93.531"/></g><g id="g3646" transform="translate(414,345.0201)"><path style="fill:none;stroke:#000;stroke-width:2.5;stroke-linecap:butt;stroke-linejoin:round;stroke-miterlimit:10;stroke-dasharray:none;stroke-opacity:1" id="path3648" d="M 0,0 H 108"/></g><g id="g3650" transform="translate(366,262.18491)"><path style="fill:none;stroke:#000;stroke-width:.75;stroke-linecap:butt;stroke-linejoin:round;stroke-miterlimit:10;stroke-dasharray:none;stroke-opacity:1" id="path3652" d="M 0,0 H 18"/></g><g id="g3654" transform="translate(372,251.9998)"><path style="fill:none;stroke:#000;stroke-width:.75;stroke-linecap:butt;stroke-linejoin:round;stroke-miterlimit:10;stroke-dasharray:none;stroke-opacity:1" id="path3656" d="M 0,0 9,15.588"/></g><g id="g3658" transform="translate(384,252)"><path style="fill:none;stroke:#000;stroke-width:.75;stroke-linecap:butt;stroke-linejoin:round;stroke-miterlimit:10;stroke-dasharray:none;stroke-opacity:1" id="path3660" d="M 0,0 3.6,6.235"/></g><g id="g3662" transform="translate(372,272.3698)"><path style="fill:none;stroke:#000;stroke-width:.75;stroke-linecap:butt;stroke-linejoin:round;stroke-miterlimit:10;stroke-dasharray:none;stroke-opacity:1" id="path3664" d="M 0,0 H 7.2"/></g><g id="g3666" transform="translate(516,334.7849)"><path style="fill:none;stroke:#000;stroke-width:.75;stroke-linecap:butt;stroke-linejoin:round;stroke-miterlimit:10;stroke-dasharray:none;stroke-opacity:1" id="path3668" d="M 0,0 H -18"/></g><g id="g3670" transform="translate(510,344.96989)"><path style="fill:none;stroke:#000;stroke-width:.75;stroke-linecap:butt;stroke-linejoin:round;stroke-miterlimit:10;stroke-dasharray:none;stroke-opacity:1" id="path3672" d="M 0,0 -9,-15.588"/></g><g id="g3674" transform="translate(498,344.9697)"><path style="fill:none;stroke:#000;stroke-width:.75;stroke-linecap:butt;stroke-linejoin:round;stroke-miterlimit:10;stroke-dasharray:none;stroke-opacity:1" id="path3676" d="M 0,0 -3.6,-6.235"/></g><g id="g3678" transform="translate(510,324.60001)"><path style="fill:none;stroke:#000;stroke-width:.75;stroke-linecap:butt;stroke-linejoin:round;stroke-miterlimit:10;stroke-dasharray:none;stroke-opacity:1" id="path3680" d="M 0,0 H -7.2"/></g><g id="g3682" transform="translate(351.2655,255.61729)"><path style="fill:none;stroke:#000;stroke-width:2.5;stroke-linecap:butt;stroke-linejoin:round;stroke-miterlimit:10;stroke-dasharray:none;stroke-opacity:1" id="path3684" d="M 0,0 54,93.531"/></g><g id="g3686" transform="translate(405.2654,349.1481)"><path style="fill:none;stroke:#000;stroke-width:2.5;stroke-linecap:butt;stroke-linejoin:round;stroke-miterlimit:10;stroke-dasharray:none;stroke-opacity:1" id="path3688" d="M 0,0 -54,93.531"/></g><g id="g3690" transform="translate(351.2654,255.6174)"><path style="fill:none;stroke:#000;stroke-width:2.5;stroke-linecap:butt;stroke-linejoin:round;stroke-miterlimit:10;stroke-dasharray:none;stroke-opacity:1" id="path3692" d="M 0,0 -54,93.531"/></g><g id="g3694" transform="translate(297.7076,348.89281)"><path style="fill:none;stroke:#000;stroke-width:2.5;stroke-linecap:butt;stroke-linejoin:round;stroke-miterlimit:10;stroke-dasharray:none;stroke-opacity:1" id="path3696" d="M 0,0 54,93.531"/></g><g id="g3698" transform="translate(345.4451,265.9059)"><path style="fill:none;stroke:#000;stroke-width:.75;stroke-linecap:butt;stroke-linejoin:round;stroke-miterlimit:10;stroke-dasharray:none;stroke-opacity:1" id="path3700" d="M 0,0 9,15.588"/></g><g id="g3702" transform="translate(357.26559,266.0096)"><path style="fill:none;stroke:#000;stroke-width:.75;stroke-linecap:butt;stroke-linejoin:round;stroke-miterlimit:10;stroke-dasharray:none;stroke-opacity:1" id="path3704" d="M 0,0 -9,15.588"/></g><g id="g3706" transform="translate(363.2654,276.40199)"><path style="fill:none;stroke:#000;stroke-width:.75;stroke-linecap:butt;stroke-linejoin:round;stroke-miterlimit:10;stroke-dasharray:none;stroke-opacity:1" id="path3708" d="M 0,0 -3.6,6.235"/></g><g id="g3710" transform="translate(339.62469,276.1945)"><path style="fill:none;stroke:#000;stroke-width:.75;stroke-linecap:butt;stroke-linejoin:round;stroke-miterlimit:10;stroke-dasharray:none;stroke-opacity:1" id="path3712" d="M 0,0 3.6,6.235"/></g><g id="g3714" transform="translate(357.5717,432.1097)"><path style="fill:none;stroke:#000;stroke-width:.75;stroke-linecap:butt;stroke-linejoin:round;stroke-miterlimit:10;stroke-dasharray:none;stroke-opacity:1" id="path3716" d="M 0,0 -9,-15.588"/></g><g id="g3718" transform="translate(345.75121,432.0061)"><path style="fill:none;stroke:#000;stroke-width:.75;stroke-linecap:butt;stroke-linejoin:round;stroke-miterlimit:10;stroke-dasharray:none;stroke-opacity:1" id="path3720" d="M 0,0 9,-15.588"/></g><g id="g3722" transform="translate(339.7513,421.61369)"><path style="fill:none;stroke:#000;stroke-width:.75;stroke-linecap:butt;stroke-linejoin:round;stroke-miterlimit:10;stroke-dasharray:none;stroke-opacity:1" id="path3724" d="M 0,0 3.6,-6.235"/></g><g id="g3726" transform="translate(363.39211,421.8212)"><path style="fill:none;stroke:#000;stroke-width:.75;stroke-linecap:butt;stroke-linejoin:round;stroke-miterlimit:10;stroke-dasharray:none;stroke-opacity:1" id="path3728" d="M 0,0 -3.6,-6.235"/></g><g id="g3730" transform="translate(342.2655,252.0865)"><path style="fill:none;stroke:#000;stroke-width:2.5;stroke-linecap:butt;stroke-linejoin:round;stroke-miterlimit:10;stroke-dasharray:none;stroke-opacity:1" id="path3732" d="M 0,0 -54,93.531"/></g><g id="g3734" transform="translate(288.2654,345.6172)"><path style="fill:none;stroke:#000;stroke-width:2.5;stroke-linecap:butt;stroke-linejoin:round;stroke-miterlimit:10;stroke-dasharray:none;stroke-opacity:1" id="path3736" d="M 0,0 H -108"/></g><g id="g3738" transform="translate(342.2654,252.0865)"><path style="fill:none;stroke:#000;stroke-width:2.5;stroke-linecap:butt;stroke-linejoin:round;stroke-miterlimit:10;stroke-dasharray:none;stroke-opacity:1" id="path3740" d="M 0,0 H -108"/></g><g id="g3742" transform="translate(234.7076,252.3419)"><path style="fill:none;stroke:#000;stroke-width:2.5;stroke-linecap:butt;stroke-linejoin:round;stroke-miterlimit:10;stroke-dasharray:none;stroke-opacity:1" id="path3744" d="M 0,0 -54,93.531"/></g><g id="g3746" transform="translate(330.4451,252.1902)"><path style="fill:none;stroke:#000;stroke-width:.75;stroke-linecap:butt;stroke-linejoin:round;stroke-miterlimit:10;stroke-dasharray:none;stroke-opacity:1" id="path3748" d="M 0,0 -9,15.588"/></g><g id="g3750" transform="translate(336.26559,262.4789)"><path style="fill:none;stroke:#000;stroke-width:.75;stroke-linecap:butt;stroke-linejoin:round;stroke-miterlimit:10;stroke-dasharray:none;stroke-opacity:1" id="path3752" d="M 0,0 H -18"/></g><g id="g3754" transform="translate(330.2654,272.8712)"><path style="fill:none;stroke:#000;stroke-width:.75;stroke-linecap:butt;stroke-linejoin:round;stroke-miterlimit:10;stroke-dasharray:none;stroke-opacity:1" id="path3756" d="M 0,0 H -7.2"/></g><g id="g3758" transform="translate(318.62469,252.2939)"><path style="fill:none;stroke:#000;stroke-width:.75;stroke-linecap:butt;stroke-linejoin:round;stroke-miterlimit:10;stroke-dasharray:none;stroke-opacity:1" id="path3760" d="M 0,0 -3.6,6.235"/></g><g id="g3762" transform="translate(192.5717,345.7941)"><path style="fill:none;stroke:#000;stroke-width:.75;stroke-linecap:butt;stroke-linejoin:round;stroke-miterlimit:10;stroke-dasharray:none;stroke-opacity:1" id="path3764" d="M 0,0 9,-15.588"/></g><g id="g3766" transform="translate(186.75121,335.5054)"><path style="fill:none;stroke:#000;stroke-width:.75;stroke-linecap:butt;stroke-linejoin:round;stroke-miterlimit:10;stroke-dasharray:none;stroke-opacity:1" id="path3768" d="M 0,0 H 18"/></g><g id="g3770" transform="translate(192.7513,325.1132)"><path style="fill:none;stroke:#000;stroke-width:.75;stroke-linecap:butt;stroke-linejoin:round;stroke-miterlimit:10;stroke-dasharray:none;stroke-opacity:1" id="path3772" d="M 0,0 H 7.2"/></g><g id="g3774" transform="translate(204.392,345.6904)"><path style="fill:none;stroke:#000;stroke-width:.75;stroke-linecap:butt;stroke-linejoin:round;stroke-miterlimit:10;stroke-dasharray:none;stroke-opacity:1" id="path3776" d="M 0,0 3.6,-6.235"/></g><g id="g3778" transform="translate(360,243.5554)"><path style="fill:none;stroke:#000;stroke-width:2.5;stroke-linecap:butt;stroke-linejoin:round;stroke-miterlimit:10;stroke-dasharray:none;stroke-opacity:1" id="path3780" d="M 0,0 H 108"/></g><g id="g3782" transform="translate(468,243.5553)"><path style="fill:none;stroke:#000;stroke-width:2.5;stroke-linecap:butt;stroke-linejoin:round;stroke-miterlimit:10;stroke-dasharray:none;stroke-opacity:1" id="path3784" d="M 0,0 54,-93.531"/></g><g id="g3786" transform="translate(360,243.5553)"><path style="fill:none;stroke:#000;stroke-width:2.5;stroke-linecap:butt;stroke-linejoin:round;stroke-miterlimit:10;stroke-dasharray:none;stroke-opacity:1" id="path3788" d="M 0,0 54,-93.531"/></g><g id="g3790" transform="translate(414,150.5352)"><path style="fill:none;stroke:#000;stroke-width:2.5;stroke-linecap:butt;stroke-linejoin:round;stroke-miterlimit:10;stroke-dasharray:none;stroke-opacity:1" id="path3792" d="M 0,0 H 108"/></g><g id="g3794" transform="translate(366,233.3705)"><path style="fill:none;stroke:#000;stroke-width:.75;stroke-linecap:butt;stroke-linejoin:round;stroke-miterlimit:10;stroke-dasharray:none;stroke-opacity:1" id="path3796" d="M 0,0 H 18"/></g><g id="g3798" transform="translate(372,243.5555)"><path style="fill:none;stroke:#000;stroke-width:.75;stroke-linecap:butt;stroke-linejoin:round;stroke-miterlimit:10;stroke-dasharray:none;stroke-opacity:1" id="path3800" d="M 0,0 9,-15.588"/></g><g id="g3802" transform="translate(384,243.5553)"><path style="fill:none;stroke:#000;stroke-width:.75;stroke-linecap:butt;stroke-linejoin:round;stroke-miterlimit:10;stroke-dasharray:none;stroke-opacity:1" id="path3804" d="M 0,0 3.6,-6.235"/></g><g id="g3806" transform="translate(372,223.18559)"><path style="fill:none;stroke:#000;stroke-width:.75;stroke-linecap:butt;stroke-linejoin:round;stroke-miterlimit:10;stroke-dasharray:none;stroke-opacity:1" id="path3808" d="M 0,0 H 7.2"/></g><g id="g3810" transform="translate(516,160.77049)"><path style="fill:none;stroke:#000;stroke-width:.75;stroke-linecap:butt;stroke-linejoin:round;stroke-miterlimit:10;stroke-dasharray:none;stroke-opacity:1" id="path3812" d="M 0,0 H -18"/></g><g id="g3814" transform="translate(510,150.58549)"><path style="fill:none;stroke:#000;stroke-width:.75;stroke-linecap:butt;stroke-linejoin:round;stroke-miterlimit:10;stroke-dasharray:none;stroke-opacity:1" id="path3816" d="M 0,0 -9,15.588"/></g><g id="g3818" transform="translate(498,150.5856)"><path style="fill:none;stroke:#000;stroke-width:.75;stroke-linecap:butt;stroke-linejoin:round;stroke-miterlimit:10;stroke-dasharray:none;stroke-opacity:1" id="path3820" d="M 0,0 -3.6,6.235"/></g><g id="g3822" transform="translate(510,170.9554)"><path style="fill:none;stroke:#000;stroke-width:.75;stroke-linecap:butt;stroke-linejoin:round;stroke-miterlimit:10;stroke-dasharray:none;stroke-opacity:1" id="path3824" d="M 0,0 H -7.2"/></g><g id="g3826" transform="translate(351.2655,238.67889)"><path style="fill:none;stroke:#000;stroke-width:2.5;stroke-linecap:butt;stroke-linejoin:round;stroke-miterlimit:10;stroke-dasharray:none;stroke-opacity:1" id="path3828" d="M 0,0 54,-93.531"/></g><g id="g3830" transform="translate(405.2654,145.1481)"><path style="fill:none;stroke:#000;stroke-width:2.5;stroke-linecap:butt;stroke-linejoin:round;stroke-miterlimit:10;stroke-dasharray:none;stroke-opacity:1" id="path3832" d="M 0,0 -54,-93.531"/></g><g id="g3834" transform="translate(351.2654,238.6788)"><path style="fill:none;stroke:#000;stroke-width:2.5;stroke-linecap:butt;stroke-linejoin:round;stroke-miterlimit:10;stroke-dasharray:none;stroke-opacity:1" id="path3836" d="M 0,0 -54,-93.531"/></g><g id="g3838" transform="translate(297.7076,145.4034)"><path style="fill:none;stroke:#000;stroke-width:2.5;stroke-linecap:butt;stroke-linejoin:round;stroke-miterlimit:10;stroke-dasharray:none;stroke-opacity:1" id="path3840" d="M 0,0 54,-93.531"/></g><g id="g3842" transform="translate(345.4451,228.3903)"><path style="fill:none;stroke:#000;stroke-width:.75;stroke-linecap:butt;stroke-linejoin:round;stroke-miterlimit:10;stroke-dasharray:none;stroke-opacity:1" id="path3844" d="M 0,0 9,-15.588"/></g><g id="g3846" transform="translate(357.26559,228.2867)"><path style="fill:none;stroke:#000;stroke-width:.75;stroke-linecap:butt;stroke-linejoin:round;stroke-miterlimit:10;stroke-dasharray:none;stroke-opacity:1" id="path3848" d="M 0,0 -9,-15.588"/></g><g id="g3850" transform="translate(363.2654,217.8942)"><path style="fill:none;stroke:#000;stroke-width:.75;stroke-linecap:butt;stroke-linejoin:round;stroke-miterlimit:10;stroke-dasharray:none;stroke-opacity:1" id="path3852" d="M 0,0 -3.6,-6.235"/></g><g id="g3854" transform="translate(339.62469,218.1017)"><path style="fill:none;stroke:#000;stroke-width:.75;stroke-linecap:butt;stroke-linejoin:round;stroke-miterlimit:10;stroke-dasharray:none;stroke-opacity:1" id="path3856" d="M 0,0 3.6,-6.235"/></g><g id="g3858" transform="translate(357.5717,62.186493)"><path style="fill:none;stroke:#000;stroke-width:.75;stroke-linecap:butt;stroke-linejoin:round;stroke-miterlimit:10;stroke-dasharray:none;stroke-opacity:1" id="path3860" d="M 0,0 -9,15.588"/></g><g id="g3862" transform="translate(345.75121,62.2901)"><path style="fill:none;stroke:#000;stroke-width:.75;stroke-linecap:butt;stroke-linejoin:round;stroke-miterlimit:10;stroke-dasharray:none;stroke-opacity:1" id="path3864" d="M 0,0 9,15.588"/></g><g id="g3866" transform="translate(339.7513,72.682602)"><path style="fill:none;stroke:#000;stroke-width:.75;stroke-linecap:butt;stroke-linejoin:round;stroke-miterlimit:10;stroke-dasharray:none;stroke-opacity:1" id="path3868" d="M 0,0 3.6,6.235"/></g><g id="g3870" transform="translate(363.39211,72.475098)"><path style="fill:none;stroke:#000;stroke-width:.75;stroke-linecap:butt;stroke-linejoin:round;stroke-miterlimit:10;stroke-dasharray:none;stroke-opacity:1" id="path3872" d="M 0,0 -3.6,6.235"/></g><g id="g3874" transform="translate(342.2655,243.6172)"><path style="fill:none;stroke:#000;stroke-width:2.5;stroke-linecap:butt;stroke-linejoin:round;stroke-miterlimit:10;stroke-dasharray:none;stroke-opacity:1" id="path3876" d="M 0,0 -54,-93.531"/></g><g id="g3878" transform="translate(288.2654,150.0865)"><path style="fill:none;stroke:#000;stroke-width:2.5;stroke-linecap:butt;stroke-linejoin:round;stroke-miterlimit:10;stroke-dasharray:none;stroke-opacity:1" id="path3880" d="M 0,0 H -108"/></g><g id="g3882" transform="translate(342.2654,243.6172)"><path style="fill:none;stroke:#000;stroke-width:2.5;stroke-linecap:butt;stroke-linejoin:round;stroke-miterlimit:10;stroke-dasharray:none;stroke-opacity:1" id="path3884" d="M 0,0 H -108"/></g><g id="g3886" transform="translate(234.7076,243.36189)"><path style="fill:none;stroke:#000;stroke-width:2.5;stroke-linecap:butt;stroke-linejoin:round;stroke-miterlimit:10;stroke-dasharray:none;stroke-opacity:1" id="path3888" d="M 0,0 -54,-93.531"/></g><g id="g3890" transform="translate(330.4451,243.5135)"><path style="fill:none;stroke:#000;stroke-width:.75;stroke-linecap:butt;stroke-linejoin:round;stroke-miterlimit:10;stroke-dasharray:none;stroke-opacity:1" id="path3892" d="M 0,0 -9,-15.588"/></g><g id="g3894" transform="translate(336.26559,233.2249)"><path style="fill:none;stroke:#000;stroke-width:.75;stroke-linecap:butt;stroke-linejoin:round;stroke-miterlimit:10;stroke-dasharray:none;stroke-opacity:1" id="path3896" d="M 0,0 H -18"/></g><g id="g3898" transform="translate(330.2654,222.8326)"><path style="fill:none;stroke:#000;stroke-width:.75;stroke-linecap:butt;stroke-linejoin:round;stroke-miterlimit:10;stroke-dasharray:none;stroke-opacity:1" id="path3900" d="M 0,0 H -7.2"/></g><g id="g3902" transform="translate(318.62469,243.40981)"><path style="fill:none;stroke:#000;stroke-width:.75;stroke-linecap:butt;stroke-linejoin:round;stroke-miterlimit:10;stroke-dasharray:none;stroke-opacity:1" id="path3904" d="M 0,0 -3.6,-6.235"/></g><g id="g3906" transform="translate(192.5717,149.9097)"><path style="fill:none;stroke:#000;stroke-width:.75;stroke-linecap:butt;stroke-linejoin:round;stroke-miterlimit:10;stroke-dasharray:none;stroke-opacity:1" id="path3908" d="M 0,0 9,15.588"/></g><g id="g3910" transform="translate(186.75121,160.1983)"><path style="fill:none;stroke:#000;stroke-width:.75;stroke-linecap:butt;stroke-linejoin:round;stroke-miterlimit:10;stroke-dasharray:none;stroke-opacity:1" id="path3912" d="M 0,0 H 18"/></g><g id="g3914" transform="translate(192.7513,170.59061)"><path style="fill:none;stroke:#000;stroke-width:.75;stroke-linecap:butt;stroke-linejoin:round;stroke-miterlimit:10;stroke-dasharray:none;stroke-opacity:1" id="path3916" d="M 0,0 H 7.2"/></g><g id="g3918" transform="translate(204.392,150.0134)"><path style="fill:none;stroke:#000;stroke-width:.75;stroke-linecap:butt;stroke-linejoin:round;stroke-miterlimit:10;stroke-dasharray:none;stroke-opacity:1" id="path3920" d="M 0,0 3.6,6.235"/></g><text style="font-style:italic;font-variant:normal;font-weight:700;font-stretch:normal;font-size:20.04000092px;font-family:'Times New Roman';-inkscape-font-specification:TimesNewRomanPS-BoldItalicMT;writing-mode:lr-tb;fill:#000;fill-opacity:1;fill-rule:nonzero;stroke:none" id="text3934" transform="matrix(1,0,0,-1,414.0246,292.68)"><tspan id="tspan3922" x="0 10.08 20.16 27.956 33.467 38.156" y="0">part 0</tspan><tspan id="tspan3924" x="-86.633 -76.553 -66.473 -58.677 -53.166 -48.477" y="-46.092">part 1</tspan><tspan id="tspan3926" x="-173.346 -163.266 -153.186 -145.39 -139.879 -135.19" y="0">part 2</tspan><tspan id="tspan3928" x="-173.346 -163.266 -153.186 -145.39 -139.879 -135.19" y="98.356">part 3</tspan><tspan id="tspan3930" x="-86.653 -76.573 -66.493 -58.697 -53.186 -48.497" y="151.863">part 4</tspan><tspan id="tspan3932" x="-.16 9.92 20 27.795 33.306 37.996" y="98.517">part 5</tspan></text><text style="font-style:italic;font-variant:normal;font-weight:400;font-stretch:normal;font-size:12px;font-family:'Times New Roman';-inkscape-font-specification:TimesNewRomanPS-ItalicMT;writing-mode:lr-tb;fill:#000;fill-opacity:1;fill-rule:nonzero;stroke:none" id="text3938" transform="matrix(1,0,0,-1,540.7537,339.9398)"><tspan id="tspan3936" x="0 3.84 9.84 12.84 18.84" y="0">(9,9)</tspan></text><g id="g3940" transform="translate(396.605,262.5257)"><path style="fill:none;stroke:#000;stroke-width:1;stroke-linecap:butt;stroke-linejoin:round;stroke-miterlimit:10;stroke-dasharray:none;stroke-opacity:1" id="path3942" d="M 0,0 -25.421,-4.406"/></g><g id="g3944" transform="translate(372.6815,255.33521)"><path style="fill:#000;fill-opacity:1;fill-rule:evenodd;stroke:none" id="path3946" d="m 0,0 -4.454,2.273 3.429,3.639 z"/></g><g id="g3948" transform="translate(538.7899,344.4166)"><path style="fill:none;stroke:#000;stroke-width:1;stroke-linecap:butt;stroke-linejoin:round;stroke-miterlimit:10;stroke-dasharray:none;stroke-opacity:1" id="path3950" d="M 0,0 -25.421,-4.406"/></g><g id="g3952" transform="translate(514.86639,337.2261)"><path style="fill:#000;fill-opacity:1;fill-rule:evenodd;stroke:none" id="path3954" d="m 0,0 -4.454,2.273 3.429,3.639 z"/></g><text style="font-style:italic;font-variant:normal;font-weight:400;font-stretch:normal;font-size:12px;font-family:'Times New Roman';-inkscape-font-specification:TimesNewRomanPS-ItalicMT;writing-mode:lr-tb;fill:#000;fill-opacity:1;fill-rule:nonzero;stroke:none" id="text3958" transform="matrix(1,0,0,-1,398.0142,258.3699)"><tspan id="tspan3956" x="0 3.84 9.84 12.84 18.84" y="0">(1,1)</tspan></text><g id="g3960" transform="translate(447.3,383.8828)"><path style="fill:none;stroke:#000;stroke-width:.75;stroke-linecap:butt;stroke-linejoin:round;stroke-miterlimit:10;stroke-dasharray:none;stroke-opacity:1" id="path3962" d="M 0,0 H 48"/></g><g id="g3964" transform="translate(495.3,384.3136)"><path style="fill:none;stroke:#000;stroke-width:.75;stroke-linecap:butt;stroke-linejoin:round;stroke-miterlimit:10;stroke-dasharray:none;stroke-opacity:1" id="path3966" d="M 0,0 24,41.569"/></g><g id="g3968" transform="translate(447.3,384.3136)"><path style="fill:none;stroke:#000;stroke-width:.75;stroke-linecap:butt;stroke-linejoin:round;stroke-miterlimit:10;stroke-dasharray:none;stroke-opacity:1" id="path3970" d="M 0,0 24,41.569"/></g><g id="g3972" transform="translate(471.3,425.8828)"><path style="fill:none;stroke:#000;stroke-width:.75;stroke-linecap:butt;stroke-linejoin:round;stroke-miterlimit:10;stroke-dasharray:none;stroke-opacity:1" id="path3974" d="M 0,0 H 48"/></g><g id="g3976"><g id="g3978" clip-path="url(#clipPath3982)"><g id="g3984" transform="translate(468.8,425.94769)"><path style="fill:#000;fill-opacity:1;fill-rule:evenodd;stroke:#000;stroke-width:.75;stroke-linecap:butt;stroke-linejoin:round;stroke-miterlimit:10;stroke-dasharray:none;stroke-opacity:1" id="path3986" d="M 0,0 C 0,1.455 1.161,2.635 2.594,2.635 4.027,2.635 5.188,1.455 5.188,0 V 0 C 5.188,-1.455 4.027,-2.635 2.594,-2.635 1.161,-2.635 0,-1.455 0,0 Z"/></g></g></g><g id="g3988"><g id="g3990" clip-path="url(#clipPath3994)"><g id="g3996" transform="translate(516.81219,425.94769)"><path style="fill:#000;fill-opacity:1;fill-rule:evenodd;stroke:#000;stroke-width:.75;stroke-linecap:butt;stroke-linejoin:round;stroke-miterlimit:10;stroke-dasharray:none;stroke-opacity:1" id="path3998" d="M 0,0 C 0,1.455 1.161,2.635 2.594,2.635 4.027,2.635 5.188,1.455 5.188,0 V 0 C 5.188,-1.455 4.027,-2.635 2.594,-2.635 1.161,-2.635 0,-1.455 0,0 Z"/></g></g></g><g id="g4000"><g id="g4002" clip-path="url(#clipPath4006)"><g id="g4008" transform="translate(444.3,383.94769)"><path style="fill:#000;fill-opacity:1;fill-rule:evenodd;stroke:none" id="path4010" d="M 0,0 C 0,1.455 1.161,2.635 2.594,2.635 4.027,2.635 5.188,1.455 5.188,0 5.188,-1.455 4.027,-2.635 2.594,-2.635 1.161,-2.635 0,-1.455 0,0"/></g><g id="g4012" transform="translate(444.3,383.94769)"><path style="fill:none;stroke:#000;stroke-width:.75;stroke-linecap:butt;stroke-linejoin:round;stroke-miterlimit:10;stroke-dasharray:none;stroke-opacity:1" id="path4014" d="M 0,0 C 0,1.455 1.161,2.635 2.594,2.635 4.027,2.635 5.188,1.455 5.188,0 5.188,-1.455 4.027,-2.635 2.594,-2.635 1.161,-2.635 0,-1.455 0,0 Z"/></g></g></g><g id="g4016"><g id="g4018" clip-path="url(#clipPath4022)"><g id="g4024" transform="translate(492.31219,383.94769)"><path style="fill:#000;fill-opacity:1;fill-rule:evenodd;stroke:none" id="path4026" d="M 0,0 C 0,1.455 1.161,2.635 2.594,2.635 4.027,2.635 5.188,1.455 5.188,0 5.188,-1.455 4.027,-2.635 2.594,-2.635 1.161,-2.635 0,-1.455 0,0"/></g><g id="g4028" transform="translate(492.31219,383.94769)"><path style="fill:none;stroke:#000;stroke-width:.75;stroke-linecap:butt;stroke-linejoin:round;stroke-miterlimit:10;stroke-dasharray:none;stroke-opacity:1" id="path4030" d="M 0,0 C 0,1.455 1.161,2.635 2.594,2.635 4.027,2.635 5.188,1.455 5.188,0 5.188,-1.455 4.027,-2.635 2.594,-2.635 1.161,-2.635 0,-1.455 0,0 Z"/></g></g></g><text style="font-style:italic;font-variant:normal;font-weight:400;font-stretch:normal;font-size:12px;font-family:'Times New Roman';-inkscape-font-specification:TimesNewRomanPS-ItalicMT;writing-mode:lr-tb;fill:#000;fill-opacity:1;fill-rule:nonzero;stroke:none" id="text4040" transform="matrix(1,0,0,-1,437.2756,387.0178)"><tspan id="tspan4032" x="0" y="0">0</tspan><tspan id="tspan4034" x="48" y=".12">1</tspan><tspan id="tspan4036" x="72.6" y="-41.88">2</tspan><tspan id="tspan4038" x="24.6" y="-42">3</tspan></text><g id="g4042" transform="translate(447,384.3)"><path style="fill:none;stroke:#000;stroke-width:.5;stroke-linecap:butt;stroke-linejoin:round;stroke-miterlimit:10;stroke-dasharray:2,1.5;stroke-dashoffset:0;stroke-opacity:1" id="path4044" d="M 0,0 44.7,-49.2"/></g><g id="g4046" transform="translate(519.3,425.7)"><path style="fill:none;stroke:#000;stroke-width:.5;stroke-linecap:butt;stroke-linejoin:round;stroke-miterlimit:10;stroke-dasharray:2,1.5;stroke-dashoffset:0;stroke-opacity:1" id="path4048" d="M 0,0 -9.9,-81"/></g><g id="g4050" transform="translate(494.7,384.3)"><path style="fill:none;stroke:#000;stroke-width:.5;stroke-linecap:butt;stroke-linejoin:round;stroke-miterlimit:10;stroke-dasharray:2,1.5;stroke-dashoffset:0;stroke-opacity:1" id="path4052" d="M 0,0 9,-49.2"/></g><g id="g4054" transform="translate(485.39999,383.7)"><path style="fill:none;stroke:#000;stroke-width:.5;stroke-linecap:butt;stroke-linejoin:round;stroke-miterlimit:10;stroke-dasharray:2,1.5;stroke-dashoffset:0;stroke-opacity:1" id="path4056" d="M 0,0 12.6,-39"/></g><g id="g4058" transform="translate(414,249.6151)"><path style="fill:none;stroke:#000;stroke-width:1;stroke-linecap:butt;stroke-linejoin:round;stroke-miterlimit:10;stroke-dasharray:none;stroke-opacity:1" id="path4060" d="M 0,0 V -3.36"/></g><g id="g4062" transform="translate(416,247.2551)"><path style="fill:#000;fill-opacity:1;fill-rule:evenodd;stroke:none" id="path4064" d="M 0,0 -2,-4 -4,0 Z"/></g><g id="g4066" transform="translate(411.99969,248.6153)"><path style="fill:#000;fill-opacity:1;fill-rule:evenodd;stroke:none" id="path4068" d="M 0,0 2,4 4,0 Z"/></g><g id="g4070" transform="translate(288,249)"><path style="fill:none;stroke:#000;stroke-width:1;stroke-linecap:butt;stroke-linejoin:round;stroke-miterlimit:10;stroke-dasharray:none;stroke-opacity:1" id="path4072" d="M 0,0 V -3.36"/></g><g id="g4074" transform="translate(290,246.64)"><path style="fill:#000;fill-opacity:1;fill-rule:evenodd;stroke:none" id="path4076" d="M 0,0 -2,-4 -4,0 Z"/></g><g id="g4078" transform="translate(285.9996,248.0002)"><path style="fill:#000;fill-opacity:1;fill-rule:evenodd;stroke:none" id="path4080" d="M 0,0 2,4 4,0 Z"/></g><g id="g4082" transform="translate(378.492,296.80991)"><path style="fill:none;stroke:#000;stroke-width:1;stroke-linecap:butt;stroke-linejoin:round;stroke-miterlimit:10;stroke-dasharray:none;stroke-opacity:1" id="path4084" d="M 0,0 2.91,-1.68"/></g><g id="g4086" transform="translate(381.536,297.36211)"><path style="fill:#000;fill-opacity:1;fill-rule:evenodd;stroke:none" id="path4088" d="M 0,0 2.464,-3.732 -2,-3.464 Z"/></g><g id="g4090" transform="translate(378.3582,294.578)"><path style="fill:#000;fill-opacity:1;fill-rule:evenodd;stroke:none" id="path4092" d="M 0,0 -2.464,3.732 2,3.464 Z"/></g><g id="g4094" transform="translate(320.5981,199.3649)"><path style="fill:none;stroke:#000;stroke-width:1;stroke-linecap:butt;stroke-linejoin:round;stroke-miterlimit:10;stroke-dasharray:none;stroke-opacity:1" id="path4096" d="M 0,0 2.91,-1.68"/></g><g id="g4098" transform="translate(323.6422,199.9171)"><path style="fill:#000;fill-opacity:1;fill-rule:evenodd;stroke:none" id="path4100" d="M 0,0 2.464,-3.732 -2,-3.464 Z"/></g><g id="g4102" transform="translate(320.4644,197.1329)"><path style="fill:#000;fill-opacity:1;fill-rule:evenodd;stroke:none" id="path4104" d="M 0,0 -2.464,3.732 2,3.464 Z"/></g><g id="g4106" transform="translate(381.7018,199.6881)"><path style="fill:none;stroke:#000;stroke-width:1;stroke-linecap:butt;stroke-linejoin:round;stroke-miterlimit:10;stroke-dasharray:none;stroke-opacity:1" id="path4108" d="M 0,0 -2.574,-2.16"/></g><g id="g4110" transform="translate(381.1795,196.6393)"><path style="fill:#000;fill-opacity:1;fill-rule:evenodd;stroke:none" id="path4112" d="m 0,0 -4.35,-1.039 1.779,4.103 z"/></g><g id="g4114" transform="translate(379.65021,200.57761)"><path style="fill:#000;fill-opacity:1;fill-rule:evenodd;stroke:none" id="path4116" d="M 0,0 4.35,1.039 2.571,-3.064 Z"/></g><g id="g4118" transform="translate(323.83211,297.5916)"><path style="fill:none;stroke:#000;stroke-width:1;stroke-linecap:butt;stroke-linejoin:round;stroke-miterlimit:10;stroke-dasharray:none;stroke-opacity:1" id="path4120" d="M 0,0 -2.574,-2.16"/></g><g id="g4122" transform="translate(323.30969,294.5428)"><path style="fill:#000;fill-opacity:1;fill-rule:evenodd;stroke:none" id="path4124" d="m 0,0 -4.35,-1.039 1.779,4.103 z"/></g><g id="g4126" transform="translate(321.7804,298.48109)"><path style="fill:#000;fill-opacity:1;fill-rule:evenodd;stroke:none" id="path4128" d="M 0,0 4.35,1.039 2.571,-3.064 Z"/></g></g></svg>