<svg xmlns="http://www.w3.org/2000/svg" xmlns:svg="http://www.w3.org/2000/svg" id="svg1752" width="493.006" height="205.326" version="1.1" viewBox="0 0 493.006 205.326" xml:space="preserve"><metadata id="metadata1758"/><g id="g1760" transform="matrix(1.3333333,0,0,-1.3333333,-4.2935985,209.78639)"><g id="g1762" transform="scale(0.1)"><g id="g1764"><path style="fill:none;stroke:#a0a0a4;stroke-width:15;stroke-linecap:round;stroke-linejoin:round;stroke-miterlimit:10;stroke-dasharray:none;stroke-opacity:1" id="path1766" d="M 432,795.6 H 792"/><path style="fill:none;stroke:#a0a0a4;stroke-width:15;stroke-linecap:round;stroke-linejoin:round;stroke-miterlimit:10;stroke-dasharray:none;stroke-opacity:1" id="path1768" d="M 71.9998,795.6 H 432"/><path style="fill:none;stroke:#a0a0a4;stroke-width:15;stroke-linecap:round;stroke-linejoin:round;stroke-miterlimit:10;stroke-dasharray:none;stroke-opacity:1" id="path1770" d="m 432,1155.6 v -360"/><path style="fill:none;stroke:#a0a0a4;stroke-width:15;stroke-linecap:round;stroke-linejoin:round;stroke-miterlimit:10;stroke-dasharray:none;stroke-opacity:1" id="path1772" d="m 432,795.6 v -360"/><path style="fill:none;stroke:#000;stroke-width:7.5;stroke-linecap:round;stroke-linejoin:round;stroke-miterlimit:10;stroke-dasharray:10,20;stroke-dashoffset:0;stroke-opacity:1" id="path1774" d="m 71.9998,1155.6 v -720"/><path style="fill:none;stroke:#000;stroke-width:7.5;stroke-linecap:round;stroke-linejoin:round;stroke-miterlimit:10;stroke-dasharray:10,20;stroke-dashoffset:0;stroke-opacity:1" id="path1776" d="m 792,1155.6 v -720"/><path style="fill:none;stroke:#000;stroke-width:7.5;stroke-linecap:round;stroke-linejoin:round;stroke-miterlimit:10;stroke-dasharray:10,20;stroke-dashoffset:0;stroke-opacity:1" id="path1778" d="M 71.9998,1155.6 H 792"/><path style="fill:none;stroke:#000;stroke-width:7.5;stroke-linecap:round;stroke-linejoin:round;stroke-miterlimit:10;stroke-dasharray:10,20;stroke-dashoffset:0;stroke-opacity:1" id="path1780" d="M 71.9998,435.6 H 792"/><path style="fill:#a0a0a4;fill-opacity:1;fill-rule:evenodd;stroke:none" id="path1782" d="m 475.2,795.608 c -0.033,33.254 -35.994,54.009 -64.805,37.402 -28.808,-16.714 -28.755,-58.235 0.052,-74.849 28.833,-16.568 64.727,4.185 64.753,37.439"/><path style="fill:none;stroke:#000;stroke-width:7.5;stroke-linecap:round;stroke-linejoin:round;stroke-miterlimit:10;stroke-dasharray:none;stroke-opacity:1" id="path1784" d="m 475.2,795.608 c -0.033,33.254 -35.994,54.009 -64.805,37.402 -28.808,-16.714 -28.755,-58.235 0.052,-74.849 28.833,-16.568 64.727,4.185 64.753,37.439"/><path style="fill:#000;fill-opacity:1;fill-rule:evenodd;stroke:none" id="path1786" d="M 756,752.4 V 846 L 849.6,799.2 756,752.4"/><path style="fill:none;stroke:#000;stroke-width:7.5;stroke-linecap:round;stroke-linejoin:round;stroke-miterlimit:10;stroke-dasharray:none;stroke-opacity:1" id="path1788" d="M 756,752.4 V 846 L 849.6,799.2 756,752.4"/><path style="fill:#000;fill-opacity:1;fill-rule:evenodd;stroke:none" id="path1790" d="M 35.9998,752.4 V 846 L 129.6,799.2 35.9998,752.4"/><path style="fill:none;stroke:#000;stroke-width:7.5;stroke-linecap:round;stroke-linejoin:round;stroke-miterlimit:10;stroke-dasharray:none;stroke-opacity:1" id="path1792" d="M 35.9998,752.4 V 846 L 129.6,799.2 35.9998,752.4"/><path style="fill:#000;fill-opacity:1;fill-rule:evenodd;stroke:none" id="path1794" d="m 434.4,1206 46.8,-92.4 h -92.4 l 45.6,92.4"/><path style="fill:none;stroke:#000;stroke-width:7.5;stroke-linecap:round;stroke-linejoin:round;stroke-miterlimit:10;stroke-dasharray:none;stroke-opacity:1" id="path1796" d="m 434.4,1206 46.8,-92.4 h -92.4 l 45.6,92.4"/><path style="fill:#000;fill-opacity:1;fill-rule:nonzero;stroke:none" id="path1798" d="m 435.6,1206 v -15.6 l -36,-70.8 h 72 l -36,70.8 v 15.6 l 46.8,-93.6 h -93.6 l 46.8,93.6"/><path style="fill:#000;fill-opacity:1;fill-rule:evenodd;stroke:none" id="path1800" d="m 434.4,486 46.8,-92.4 h -92.4 l 45.6,92.4"/><path style="fill:none;stroke:#000;stroke-width:7.5;stroke-linecap:round;stroke-linejoin:round;stroke-miterlimit:10;stroke-dasharray:none;stroke-opacity:1" id="path1802" d="m 434.4,486 46.8,-92.4 h -92.4 l 45.6,92.4"/><path style="fill:#000;fill-opacity:1;fill-rule:nonzero;stroke:none" id="path1804" d="m 435.6,486 v -15.6 l -36,-70.8 h 72 l -36,70.8 V 486 l 46.8,-93.6 h -93.6 l 46.8,93.6"/><path style="fill:none;stroke:#a0a0a4;stroke-width:15;stroke-linecap:round;stroke-linejoin:round;stroke-miterlimit:10;stroke-dasharray:none;stroke-opacity:1" id="path1806" d="m 3308.4,799.2 360,360"/><path style="fill:none;stroke:#a0a0a4;stroke-width:15;stroke-linecap:round;stroke-linejoin:round;stroke-miterlimit:10;stroke-dasharray:none;stroke-opacity:1" id="path1808" d="m 2948.4,1159.2 360,-360"/><path style="fill:none;stroke:#a0a0a4;stroke-width:15;stroke-linecap:round;stroke-linejoin:round;stroke-miterlimit:10;stroke-dasharray:none;stroke-opacity:1" id="path1810" d="m 2948.4,439.2 360,360"/><path style="fill:none;stroke:#a0a0a4;stroke-width:15;stroke-linecap:round;stroke-linejoin:round;stroke-miterlimit:10;stroke-dasharray:none;stroke-opacity:1" id="path1812" d="m 3308.4,799.2 360,-360"/><path style="fill:none;stroke:#a0a0a4;stroke-width:15;stroke-linecap:round;stroke-linejoin:round;stroke-miterlimit:10;stroke-dasharray:none;stroke-opacity:1" id="path1814" d="m 3308.4,1159.2 v -360"/><path style="fill:none;stroke:#a0a0a4;stroke-width:15;stroke-linecap:round;stroke-linejoin:round;stroke-miterlimit:10;stroke-dasharray:none;stroke-opacity:1" id="path1816" d="m 3308.4,799.2 v -360"/><path style="fill:none;stroke:#a0a0a4;stroke-width:15;stroke-linecap:round;stroke-linejoin:round;stroke-miterlimit:10;stroke-dasharray:none;stroke-opacity:1" id="path1818" d="m 3306.72,1518.98 c -124.67,-224.32 -123.77,-497.9 2.38,-721.397"/><path style="fill:none;stroke:#a0a0a4;stroke-width:15;stroke-linecap:round;stroke-linejoin:round;stroke-miterlimit:10;stroke-dasharray:none;stroke-opacity:1" id="path1820" d="M 3306.72,791.777 C 3182.05,567.456 3182.95,293.879 3309.1,70.3828"/><path style="fill:none;stroke:#000;stroke-width:7.5;stroke-linecap:round;stroke-linejoin:round;stroke-miterlimit:10;stroke-dasharray:10,20;stroke-dashoffset:0;stroke-opacity:1" id="path1822" d="M 2948.4,1519.2 V 79.2"/><path style="fill:none;stroke:#000;stroke-width:7.5;stroke-linecap:round;stroke-linejoin:round;stroke-miterlimit:10;stroke-dasharray:10,20;stroke-dashoffset:0;stroke-opacity:1" id="path1824" d="M 3668.4,1519.2 V 79.2"/><path style="fill:none;stroke:#000;stroke-width:7.5;stroke-linecap:round;stroke-linejoin:round;stroke-miterlimit:10;stroke-dasharray:10,20;stroke-dashoffset:0;stroke-opacity:1" id="path1826" d="m 2948.4,799.2 h 720"/><path style="fill:none;stroke:#000;stroke-width:7.5;stroke-linecap:round;stroke-linejoin:round;stroke-miterlimit:10;stroke-dasharray:10,20;stroke-dashoffset:0;stroke-opacity:1" id="path1828" d="m 2948.4,79.2 h 720"/><path style="fill:#000;fill-opacity:1;fill-rule:evenodd;stroke:none" id="path1830" d="m 3351.6,439.208 c -0.03,33.254 -35.99,54.009 -64.81,37.402 -28.8,-16.714 -28.75,-58.235 0.06,-74.849 28.83,-16.568 64.72,4.185 64.75,37.439"/><path style="fill:none;stroke:#000;stroke-width:7.5;stroke-linecap:round;stroke-linejoin:round;stroke-miterlimit:10;stroke-dasharray:none;stroke-opacity:1" id="path1832" d="m 3351.6,439.208 c -0.03,33.254 -35.99,54.009 -64.81,37.402 -28.8,-16.714 -28.75,-58.235 0.06,-74.849 28.83,-16.568 64.72,4.185 64.75,37.439"/><path style="fill:#000;fill-opacity:1;fill-rule:evenodd;stroke:none" id="path1834" d="m 3632.4,396 v 93.6 L 3726,442.8 3632.4,396"/><path style="fill:none;stroke:#000;stroke-width:7.5;stroke-linecap:round;stroke-linejoin:round;stroke-miterlimit:10;stroke-dasharray:none;stroke-opacity:1" id="path1836" d="m 3632.4,396 v 93.6 L 3726,442.8 3632.4,396"/><path style="fill:#000;fill-opacity:1;fill-rule:evenodd;stroke:none" id="path1838" d="m 2912.4,396 v 93.6 L 3006,442.8 2912.4,396"/><path style="fill:none;stroke:#000;stroke-width:7.5;stroke-linecap:round;stroke-linejoin:round;stroke-miterlimit:10;stroke-dasharray:none;stroke-opacity:1" id="path1840" d="m 2912.4,396 v 93.6 L 3006,442.8 2912.4,396"/><path style="fill:#a0a0a4;fill-opacity:1;fill-rule:evenodd;stroke:none" id="path1842" d="m 3310.8,849.6 46.8,-92.4 h -92.4 l 45.6,92.4"/><path style="fill:none;stroke:#000;stroke-width:7.5;stroke-linecap:round;stroke-linejoin:round;stroke-miterlimit:10;stroke-dasharray:none;stroke-opacity:1" id="path1844" d="m 3310.8,849.6 46.8,-92.4 h -92.4 l 45.6,92.4"/><path style="fill:#000;fill-opacity:1;fill-rule:nonzero;stroke:none" id="path1846" d="M 3312,849.6 V 834 l -36,-70.8 h 72 l -36,70.8 v 15.6 l 46.8,-93.6 h -93.6 l 46.8,93.6"/><path style="fill:#000;fill-opacity:1;fill-rule:evenodd;stroke:none" id="path1848" d="m 3310.8,129.6 46.8,-92.4 h -92.4 l 45.6,92.4"/><path style="fill:none;stroke:#000;stroke-width:7.5;stroke-linecap:round;stroke-linejoin:round;stroke-miterlimit:10;stroke-dasharray:none;stroke-opacity:1" id="path1850" d="m 3310.8,129.6 46.8,-92.4 h -92.4 l 45.6,92.4"/><path style="fill:#000;fill-opacity:1;fill-rule:nonzero;stroke:none" id="path1852" d="M 3312,129.6 V 114 l -36,-70.8 h 72 l -36,70.8 v 15.6 l 46.8,-93.6002 h -93.6 L 3312,129.6"/><path style="fill:none;stroke:#000;stroke-width:7.5;stroke-linecap:round;stroke-linejoin:round;stroke-miterlimit:10;stroke-dasharray:10,20;stroke-dashoffset:0;stroke-opacity:1" id="path1854" d="m 2948.4,1519.2 h 720"/><path style="fill:#000;fill-opacity:1;fill-rule:evenodd;stroke:none" id="path1856" d="m 3632.4,1116 v 93.6 l 93.6,-46.8 -93.6,-46.8"/><path style="fill:none;stroke:#000;stroke-width:7.5;stroke-linecap:round;stroke-linejoin:round;stroke-miterlimit:10;stroke-dasharray:none;stroke-opacity:1" id="path1858" d="m 3632.4,1116 v 93.6 l 93.6,-46.8 -93.6,-46.8"/><path style="fill:#000;fill-opacity:1;fill-rule:evenodd;stroke:none" id="path1860" d="m 2912.4,1116 v 93.6 l 93.6,-46.8 -93.6,-46.8"/><path style="fill:none;stroke:#000;stroke-width:7.5;stroke-linecap:round;stroke-linejoin:round;stroke-miterlimit:10;stroke-dasharray:none;stroke-opacity:1" id="path1862" d="m 2912.4,1116 v 93.6 l 93.6,-46.8 -93.6,-46.8"/><path style="fill:#000;fill-opacity:1;fill-rule:evenodd;stroke:none" id="path1864" d="m 3310.8,1569.6 46.8,-92.4 h -92.4 l 45.6,92.4"/><path style="fill:none;stroke:#000;stroke-width:7.5;stroke-linecap:round;stroke-linejoin:round;stroke-miterlimit:10;stroke-dasharray:none;stroke-opacity:1" id="path1866" d="m 3310.8,1569.6 46.8,-92.4 h -92.4 l 45.6,92.4"/><path style="fill:#000;fill-opacity:1;fill-rule:nonzero;stroke:none" id="path1868" d="M 3312,1569.6 V 1554 l -36,-70.8 h 72 l -36,70.8 v 15.6 l 46.8,-93.6 h -93.6 l 46.8,93.6"/><path style="fill:#000;fill-opacity:1;fill-rule:evenodd;stroke:none" id="path1870" d="m 3351.6,1159.21 c -0.03,33.25 -35.99,54.01 -64.81,37.4 -28.8,-16.71 -28.75,-58.23 0.06,-74.85 28.83,-16.57 64.72,4.19 64.75,37.44"/><path style="fill:none;stroke:#000;stroke-width:7.5;stroke-linecap:round;stroke-linejoin:round;stroke-miterlimit:10;stroke-dasharray:none;stroke-opacity:1" id="path1872" d="m 3351.6,1159.21 c -0.03,33.25 -35.99,54.01 -64.81,37.4 -28.8,-16.71 -28.75,-58.23 0.06,-74.85 28.83,-16.57 64.72,4.19 64.75,37.44"/><path style="fill:none;stroke:#a0a0a4;stroke-width:15;stroke-linecap:round;stroke-linejoin:round;stroke-miterlimit:10;stroke-dasharray:none;stroke-opacity:1" id="path1874" d="m 1868.4,799.2 360,360"/><path style="fill:none;stroke:#a0a0a4;stroke-width:15;stroke-linecap:round;stroke-linejoin:round;stroke-miterlimit:10;stroke-dasharray:none;stroke-opacity:1" id="path1876" d="m 1868.4,799.2 360,-360"/><path style="fill:none;stroke:#a0a0a4;stroke-width:15;stroke-linecap:round;stroke-linejoin:round;stroke-miterlimit:10;stroke-dasharray:none;stroke-opacity:1" id="path1878" d="m 1508.4,1159.2 360,-360"/><path style="fill:none;stroke:#a0a0a4;stroke-width:15;stroke-linecap:round;stroke-linejoin:round;stroke-miterlimit:10;stroke-dasharray:none;stroke-opacity:1" id="path1880" d="m 1508.4,439.2 360,360"/><path style="fill:none;stroke:#a0a0a4;stroke-width:15;stroke-linecap:round;stroke-linejoin:round;stroke-miterlimit:10;stroke-dasharray:none;stroke-opacity:1" id="path1882" d="m 1868.4,799.2 h 360"/><path style="fill:none;stroke:#a0a0a4;stroke-width:15;stroke-linecap:round;stroke-linejoin:round;stroke-miterlimit:10;stroke-dasharray:none;stroke-opacity:1" id="path1884" d="m 1508.4,799.2 h 360"/><path style="fill:none;stroke:#a0a0a4;stroke-width:15;stroke-linecap:round;stroke-linejoin:round;stroke-miterlimit:10;stroke-dasharray:none;stroke-opacity:1" id="path1886" d="m 2594.62,799.243 c -223.89,124.505 -496.19,124.568 -720.14,0.167"/><path style="fill:none;stroke:#a0a0a4;stroke-width:15;stroke-linecap:round;stroke-linejoin:round;stroke-miterlimit:10;stroke-dasharray:none;stroke-opacity:1" id="path1888" d="m 1874.62,799.243 c -223.89,124.505 -496.19,124.568 -720.14,0.167"/><path style="fill:none;stroke:#000;stroke-width:7.5;stroke-linecap:round;stroke-linejoin:round;stroke-miterlimit:10;stroke-dasharray:10,20;stroke-dashoffset:0;stroke-opacity:1" id="path1890" d="m 1148.4,1159.2 v -720"/><path style="fill:none;stroke:#000;stroke-width:7.5;stroke-linecap:round;stroke-linejoin:round;stroke-miterlimit:10;stroke-dasharray:10,20;stroke-dashoffset:0;stroke-opacity:1" id="path1892" d="m 1868.4,1159.2 v -720"/><path style="fill:none;stroke:#000;stroke-width:7.5;stroke-linecap:round;stroke-linejoin:round;stroke-miterlimit:10;stroke-dasharray:10,20;stroke-dashoffset:0;stroke-opacity:1" id="path1894" d="m 1148.4,1159.2 h 1440"/><path style="fill:none;stroke:#000;stroke-width:7.5;stroke-linecap:round;stroke-linejoin:round;stroke-miterlimit:10;stroke-dasharray:10,20;stroke-dashoffset:0;stroke-opacity:1" id="path1896" d="m 1148.4,439.2 h 1440"/><path style="fill:#000;fill-opacity:1;fill-rule:evenodd;stroke:none" id="path1898" d="m 1551.6,799.208 c -0.03,33.254 -35.99,54.009 -64.81,37.402 -28.8,-16.714 -28.75,-58.235 0.06,-74.849 28.83,-16.568 64.72,4.185 64.75,37.439"/><path style="fill:none;stroke:#000;stroke-width:7.5;stroke-linecap:round;stroke-linejoin:round;stroke-miterlimit:10;stroke-dasharray:none;stroke-opacity:1" id="path1900" d="m 1551.6,799.208 c -0.03,33.254 -35.99,54.009 -64.81,37.402 -28.8,-16.714 -28.75,-58.235 0.06,-74.849 28.83,-16.568 64.72,4.185 64.75,37.439"/><path style="fill:#a0a0a4;fill-opacity:1;fill-rule:evenodd;stroke:none" id="path1902" d="m 1832.4,756 v 93.6 L 1926,802.8 1832.4,756"/><path style="fill:none;stroke:#000;stroke-width:7.5;stroke-linecap:round;stroke-linejoin:round;stroke-miterlimit:10;stroke-dasharray:none;stroke-opacity:1" id="path1904" d="m 1832.4,756 v 93.6 L 1926,802.8 1832.4,756"/><path style="fill:#000;fill-opacity:1;fill-rule:evenodd;stroke:none" id="path1906" d="m 1112.4,756 v 93.6 L 1206,802.8 1112.4,756"/><path style="fill:none;stroke:#000;stroke-width:7.5;stroke-linecap:round;stroke-linejoin:round;stroke-miterlimit:10;stroke-dasharray:none;stroke-opacity:1" id="path1908" d="m 1112.4,756 v 93.6 L 1206,802.8 1112.4,756"/><path style="fill:#000;fill-opacity:1;fill-rule:evenodd;stroke:none" id="path1910" d="m 1510.8,1209.6 46.8,-92.4 h -92.4 l 45.6,92.4"/><path style="fill:none;stroke:#000;stroke-width:7.5;stroke-linecap:round;stroke-linejoin:round;stroke-miterlimit:10;stroke-dasharray:none;stroke-opacity:1" id="path1912" d="m 1510.8,1209.6 46.8,-92.4 h -92.4 l 45.6,92.4"/><path style="fill:#000;fill-opacity:1;fill-rule:nonzero;stroke:none" id="path1914" d="M 1512,1209.6 V 1194 l -36,-70.8 h 72 l -36,70.8 v 15.6 l 46.8,-93.6 h -93.6 l 46.8,93.6"/><path style="fill:#000;fill-opacity:1;fill-rule:evenodd;stroke:none" id="path1916" d="m 1510.8,489.6 46.8,-92.4 h -92.4 l 45.6,92.4"/><path style="fill:none;stroke:#000;stroke-width:7.5;stroke-linecap:round;stroke-linejoin:round;stroke-miterlimit:10;stroke-dasharray:none;stroke-opacity:1" id="path1918" d="m 1510.8,489.6 46.8,-92.4 h -92.4 l 45.6,92.4"/><path style="fill:#000;fill-opacity:1;fill-rule:nonzero;stroke:none" id="path1920" d="M 1512,489.6 V 474 l -36,-70.8 h 72 l -36,70.8 v 15.6 l 46.8,-93.6 h -93.6 l 46.8,93.6"/><path style="fill:none;stroke:#000;stroke-width:7.5;stroke-linecap:round;stroke-linejoin:round;stroke-miterlimit:10;stroke-dasharray:10,20;stroke-dashoffset:0;stroke-opacity:1" id="path1922" d="m 2588.4,1159.2 v -720"/><path style="fill:#000;fill-opacity:1;fill-rule:evenodd;stroke:none" id="path1924" d="m 2230.8,1209.6 46.8,-92.4 h -92.4 l 45.6,92.4"/><path style="fill:none;stroke:#000;stroke-width:7.5;stroke-linecap:round;stroke-linejoin:round;stroke-miterlimit:10;stroke-dasharray:none;stroke-opacity:1" id="path1926" d="m 2230.8,1209.6 46.8,-92.4 h -92.4 l 45.6,92.4"/><path style="fill:#000;fill-opacity:1;fill-rule:nonzero;stroke:none" id="path1928" d="M 2232,1209.6 V 1194 l -36,-70.8 h 72 l -36,70.8 v 15.6 l 46.8,-93.6 h -93.6 l 46.8,93.6"/><path style="fill:#000;fill-opacity:1;fill-rule:evenodd;stroke:none" id="path1930" d="m 2230.8,489.6 46.8,-92.4 h -92.4 l 45.6,92.4"/><path style="fill:none;stroke:#000;stroke-width:7.5;stroke-linecap:round;stroke-linejoin:round;stroke-miterlimit:10;stroke-dasharray:none;stroke-opacity:1" id="path1932" d="m 2230.8,489.6 46.8,-92.4 h -92.4 l 45.6,92.4"/><path style="fill:#000;fill-opacity:1;fill-rule:nonzero;stroke:none" id="path1934" d="M 2232,489.6 V 474 l -36,-70.8 h 72 l -36,70.8 v 15.6 l 46.8,-93.6 h -93.6 l 46.8,93.6"/><path style="fill:#000;fill-opacity:1;fill-rule:evenodd;stroke:none" id="path1936" d="m 2552.4,748.8 v 93.6 l 93.6,-46.8 -93.6,-46.8"/><path style="fill:none;stroke:#000;stroke-width:7.5;stroke-linecap:round;stroke-linejoin:round;stroke-miterlimit:10;stroke-dasharray:none;stroke-opacity:1" id="path1938" d="m 2552.4,748.8 v 93.6 l 93.6,-46.8 -93.6,-46.8"/><path style="fill:#000;fill-opacity:1;fill-rule:evenodd;stroke:none" id="path1940" d="m 2278.8,799.208 c -0.03,33.254 -35.99,54.009 -64.81,37.402 -28.8,-16.714 -28.75,-58.235 0.06,-74.849 28.83,-16.568 64.72,4.185 64.75,37.439"/><path style="fill:none;stroke:#000;stroke-width:7.5;stroke-linecap:round;stroke-linejoin:round;stroke-miterlimit:10;stroke-dasharray:none;stroke-opacity:1" id="path1942" d="m 2278.8,799.208 c -0.03,33.254 -35.99,54.009 -64.81,37.402 -28.8,-16.714 -28.75,-58.235 0.06,-74.849 28.83,-16.568 64.72,4.185 64.75,37.439"/></g></g></g></svg>