<svg xmlns="http://www.w3.org/2000/svg" xmlns:svg="http://www.w3.org/2000/svg" id="svg3044" width="421.493" height="209.192" version="1.1" viewBox="0 0 421.493 209.192" xml:space="preserve"><metadata id="metadata3050"/><g id="g3052" transform="matrix(1.3333333,0,0,-1.3333333,-13.76,245.11999)"><g id="g3054" transform="scale(0.1)"><g id="g3056"><path style="fill:none;stroke:#000;stroke-width:1;stroke-linecap:round;stroke-linejoin:round;stroke-miterlimit:10;stroke-dasharray:10,20;stroke-dashoffset:0;stroke-opacity:1" id="path3058" d="M 450,1112.4 1119.6,784.8"/><path style="fill:none;stroke:#000;stroke-width:1;stroke-linecap:round;stroke-linejoin:round;stroke-miterlimit:10;stroke-dasharray:10,20;stroke-dashoffset:0;stroke-opacity:1" id="path3060" d="M 118.8,1112.4 968.4,777.6"/><path style="fill:none;stroke:#000;stroke-width:1;stroke-linecap:round;stroke-linejoin:round;stroke-miterlimit:10;stroke-dasharray:10,20;stroke-dashoffset:0;stroke-opacity:1" id="path3062" d="m 442.8,792 684,-180"/><path style="fill:none;stroke:#000;stroke-width:1;stroke-linecap:round;stroke-linejoin:round;stroke-miterlimit:10;stroke-dasharray:10,20;stroke-dashoffset:0;stroke-opacity:1" id="path3064" d="M 118.8,784.8 957.6,615.6"/><path style="fill:none;stroke:#000;stroke-width:1;stroke-linecap:round;stroke-linejoin:round;stroke-miterlimit:10;stroke-dasharray:none;stroke-opacity:1" id="path3066" d="M 2822.4,1332 V 968.4"/><path style="fill:none;stroke:#000;stroke-width:1;stroke-linecap:round;stroke-linejoin:round;stroke-miterlimit:10;stroke-dasharray:none;stroke-opacity:1" id="path3068" d="m 2466,964.8 h 716.4 v 363.6 H 2466 Z"/><path style="fill:none;stroke:#000;stroke-width:1;stroke-linecap:round;stroke-linejoin:round;stroke-miterlimit:10;stroke-dasharray:none;stroke-opacity:1" id="path3070" d="m 2642.4,1447.2 h 360 v 363.6 h -360 z"/><path style="fill:none;stroke:#a0a0a4;stroke-width:15;stroke-linecap:round;stroke-linejoin:round;stroke-miterlimit:10;stroke-dasharray:none;stroke-opacity:1" id="path3072" d="m 2822.4,1627.2 v -180"/><path style="fill:none;stroke:#a0a0a4;stroke-width:15;stroke-linecap:round;stroke-linejoin:round;stroke-miterlimit:10;stroke-dasharray:none;stroke-opacity:1" id="path3074" d="m 2466,1150.8 10.8,6 10.8,4.8 9.6,4.8 10.8,4.8 10.8,3.6 10.8,3.6 12,3.6 10.8,3.6 10.8,2.4 12,2.4 10.8,2.4 12,1.2 10.8,1.2 12,1.2 h 12 l 10.8,1.2 12,-1.2 h 12 l 12,-1.2 10.8,-1.2 12,-1.2 10.8,-2.4 12,-2.4 10.8,-2.4 12,-3.6 10.8,-3.6 10.8,-3.6 10.8,-3.6 10.8,-4.8 10.8,-4.8 10.8,-6 9.6,-4.8"/><path style="fill:none;stroke:#a0a0a4;stroke-width:15;stroke-linecap:round;stroke-linejoin:round;stroke-miterlimit:10;stroke-dasharray:none;stroke-opacity:1" id="path3076" d="m 2622,1153.2 h 200.4"/><path style="fill:none;stroke:#000;stroke-width:5;stroke-linecap:round;stroke-linejoin:round;stroke-miterlimit:10;stroke-dasharray:none;stroke-opacity:1" id="path3078" d="M 784.8,613.2 H 1452"/><path style="fill:none;stroke:#000;stroke-width:5;stroke-linecap:round;stroke-linejoin:round;stroke-miterlimit:10;stroke-dasharray:none;stroke-opacity:1" id="path3080" d="M 784.8,781.2 H 1452"/><path style="fill:none;stroke:#000;stroke-width:5;stroke-linecap:round;stroke-linejoin:round;stroke-miterlimit:10;stroke-dasharray:none;stroke-opacity:1" id="path3082" d="M 784.8,446.4 H 1452"/><path style="fill:none;stroke:#000;stroke-width:5;stroke-linecap:round;stroke-linejoin:round;stroke-miterlimit:10;stroke-dasharray:none;stroke-opacity:1" id="path3084" d="m 952.8,946.8 v -666"/><path style="fill:none;stroke:#000;stroke-width:5;stroke-linecap:round;stroke-linejoin:round;stroke-miterlimit:10;stroke-dasharray:none;stroke-opacity:1" id="path3086" d="m 1118.4,946.8 v -666"/><path style="fill:none;stroke:#000;stroke-width:5;stroke-linecap:round;stroke-linejoin:round;stroke-miterlimit:10;stroke-dasharray:none;stroke-opacity:1" id="path3088" d="m 1286.4,946.8 v -666"/><path style="fill:none;stroke:#000;stroke-width:20;stroke-linecap:round;stroke-linejoin:round;stroke-miterlimit:10;stroke-dasharray:none;stroke-opacity:1" id="path3090" d="m 786,946.8 v -666"/><path style="fill:none;stroke:#000;stroke-width:20;stroke-linecap:round;stroke-linejoin:round;stroke-miterlimit:10;stroke-dasharray:none;stroke-opacity:1" id="path3092" d="m 1453.2,946.8 v -666"/><path style="fill:none;stroke:#000;stroke-width:20;stroke-linecap:round;stroke-linejoin:round;stroke-miterlimit:10;stroke-dasharray:none;stroke-opacity:1" id="path3094" d="M 784.8,945.6 H 1452"/><path style="fill:none;stroke:#000;stroke-width:20;stroke-linecap:round;stroke-linejoin:round;stroke-miterlimit:10;stroke-dasharray:none;stroke-opacity:1" id="path3096" d="m 784.8,279.6 h 668.4"/><path style="fill:none;stroke:#000;stroke-width:5;stroke-linecap:round;stroke-linejoin:round;stroke-miterlimit:10;stroke-dasharray:none;stroke-opacity:1" id="path3098" d="m 1453.2,613.2 666,-164.4"/><path style="fill:none;stroke:#000;stroke-width:5;stroke-linecap:round;stroke-linejoin:round;stroke-miterlimit:10;stroke-dasharray:none;stroke-opacity:1" id="path3100" d="m 1453.2,781.2 666,-249.6"/><path style="fill:none;stroke:#000;stroke-width:5;stroke-linecap:round;stroke-linejoin:round;stroke-miterlimit:10;stroke-dasharray:none;stroke-opacity:1" id="path3102" d="m 1453.2,446.4 666,-81.6"/><path style="fill:none;stroke:#000;stroke-width:5;stroke-linecap:round;stroke-linejoin:round;stroke-miterlimit:10;stroke-dasharray:none;stroke-opacity:1" id="path3104" d="M 1617.6,865.2 V 280.8"/><path style="fill:none;stroke:#000;stroke-width:5;stroke-linecap:round;stroke-linejoin:round;stroke-miterlimit:10;stroke-dasharray:none;stroke-opacity:1" id="path3106" d="M 1784.4,782.4 V 280.8"/><path style="fill:none;stroke:#000;stroke-width:5;stroke-linecap:round;stroke-linejoin:round;stroke-miterlimit:10;stroke-dasharray:none;stroke-opacity:1" id="path3108" d="M 1951.2,698.4 V 280.8"/><path style="fill:none;stroke:#000;stroke-width:20;stroke-linecap:round;stroke-linejoin:round;stroke-miterlimit:10;stroke-dasharray:none;stroke-opacity:1" id="path3110" d="m 1453.2,945.6 v -666"/><path style="fill:none;stroke:#000;stroke-width:20;stroke-linecap:round;stroke-linejoin:round;stroke-miterlimit:10;stroke-dasharray:none;stroke-opacity:1" id="path3112" d="M 2119.2,614.4 V 279.6"/><path style="fill:none;stroke:#000;stroke-width:20;stroke-linecap:round;stroke-linejoin:round;stroke-miterlimit:10;stroke-dasharray:none;stroke-opacity:1" id="path3114" d="m 1453.2,945.6 666,-331.2"/><path style="fill:none;stroke:#000;stroke-width:20;stroke-linecap:round;stroke-linejoin:round;stroke-miterlimit:10;stroke-dasharray:none;stroke-opacity:1" id="path3116" d="m 1453.2,279.6 h 666"/><path style="fill:none;stroke:#000;stroke-width:5;stroke-linecap:round;stroke-linejoin:round;stroke-miterlimit:10;stroke-dasharray:none;stroke-opacity:1" id="path3118" d="m 784.8,1280.4 h 500.4"/><path style="fill:none;stroke:#000;stroke-width:5;stroke-linecap:round;stroke-linejoin:round;stroke-miterlimit:10;stroke-dasharray:none;stroke-opacity:1" id="path3120" d="m 784.8,1447.2 h 416.4"/><path style="fill:none;stroke:#000;stroke-width:5;stroke-linecap:round;stroke-linejoin:round;stroke-miterlimit:10;stroke-dasharray:none;stroke-opacity:1" id="path3122" d="M 784.8,1113.6 H 1368"/><path style="fill:none;stroke:#000;stroke-width:5;stroke-linecap:round;stroke-linejoin:round;stroke-miterlimit:10;stroke-dasharray:none;stroke-opacity:1" id="path3124" d="m 868.8,1612.8 82.8,-666"/><path style="fill:none;stroke:#000;stroke-width:5;stroke-linecap:round;stroke-linejoin:round;stroke-miterlimit:10;stroke-dasharray:none;stroke-opacity:1" id="path3126" d="M 952.8,1612.8 1118.4,945.6"/><path style="fill:none;stroke:#000;stroke-width:5;stroke-linecap:round;stroke-linejoin:round;stroke-miterlimit:10;stroke-dasharray:none;stroke-opacity:1" id="path3128" d="M 1035.6,1612.8 1285.2,945.6"/><path style="fill:none;stroke:#000;stroke-width:20;stroke-linecap:round;stroke-linejoin:round;stroke-miterlimit:10;stroke-dasharray:none;stroke-opacity:1" id="path3130" d="M 786,1612.8 V 945.6"/><path style="fill:none;stroke:#000;stroke-width:20;stroke-linecap:round;stroke-linejoin:round;stroke-miterlimit:10;stroke-dasharray:none;stroke-opacity:1" id="path3132" d="M 1118.4,1612.8 1452,946.8"/><path style="fill:none;stroke:#000;stroke-width:20;stroke-linecap:round;stroke-linejoin:round;stroke-miterlimit:10;stroke-dasharray:none;stroke-opacity:1" id="path3134" d="m 784.8,1612.8 h 333.6"/><path style="fill:none;stroke:#000;stroke-width:20;stroke-linecap:round;stroke-linejoin:round;stroke-miterlimit:10;stroke-dasharray:none;stroke-opacity:1" id="path3136" d="m 784.8,945.6 h 668.4"/><path style="fill:none;stroke:#000;stroke-width:20;stroke-linecap:round;stroke-linejoin:round;stroke-miterlimit:10;stroke-dasharray:none;stroke-opacity:1" id="path3138" d="m 1453.2,946.8 415.2,416.4"/><path style="fill:none;stroke:#000;stroke-width:5;stroke-linecap:round;stroke-linejoin:round;stroke-miterlimit:10;stroke-dasharray:none;stroke-opacity:1" id="path3140" d="m 1700.4,1195.2 462,-276"/><path style="fill:none;stroke:#000;stroke-width:5;stroke-linecap:round;stroke-linejoin:round;stroke-miterlimit:10;stroke-dasharray:none;stroke-opacity:1" id="path3142" d="m 1785.6,1279.2 387.6,-219.6"/><path style="fill:none;stroke:#000;stroke-width:5;stroke-linecap:round;stroke-linejoin:round;stroke-miterlimit:10;stroke-dasharray:none;stroke-opacity:1" id="path3144" d="M 1575.6,1089.6 2142,780"/><path style="fill:none;stroke:#000;stroke-width:5;stroke-linecap:round;stroke-linejoin:round;stroke-miterlimit:10;stroke-dasharray:none;stroke-opacity:1" id="path3146" d="M 1618.8,864 1956,1320"/><path style="fill:none;stroke:#000;stroke-width:5;stroke-linecap:round;stroke-linejoin:round;stroke-miterlimit:10;stroke-dasharray:none;stroke-opacity:1" id="path3148" d="m 1785.6,782.4 249.6,498"/><path style="fill:none;stroke:#000;stroke-width:5;stroke-linecap:round;stroke-linejoin:round;stroke-miterlimit:10;stroke-dasharray:none;stroke-opacity:1" id="path3150" d="m 1951.2,698.4 168,541.2"/><path style="fill:none;stroke:#000;stroke-width:20;stroke-linecap:round;stroke-linejoin:round;stroke-miterlimit:10;stroke-dasharray:none;stroke-opacity:1" id="path3152" d="m 2119.2,614.4 84,583.2"/><path style="fill:none;stroke:#000;stroke-width:20;stroke-linecap:round;stroke-linejoin:round;stroke-miterlimit:10;stroke-dasharray:none;stroke-opacity:1" id="path3154" d="m 1868.4,1363.2 334.8,-165.6"/><path style="fill:none;stroke:#000;stroke-width:20;stroke-linecap:round;stroke-linejoin:round;stroke-miterlimit:10;stroke-dasharray:none;stroke-opacity:1" id="path3156" d="m 1453.2,946.8 666,-332.4"/><path style="fill:none;stroke:#000;stroke-width:5;stroke-linecap:round;stroke-linejoin:round;stroke-miterlimit:10;stroke-dasharray:none;stroke-opacity:1" id="path3158" d="M 1423.2,1657.2 1694.4,1188"/><path style="fill:none;stroke:#000;stroke-width:5;stroke-linecap:round;stroke-linejoin:round;stroke-miterlimit:10;stroke-dasharray:none;stroke-opacity:1" id="path3160" d="m 1562.4,1677.6 222,-399.6"/><path style="fill:none;stroke:#000;stroke-width:5;stroke-linecap:round;stroke-linejoin:round;stroke-miterlimit:10;stroke-dasharray:none;stroke-opacity:1" id="path3162" d="m 1285.2,1636.8 296.4,-559.2"/><path style="fill:none;stroke:#000;stroke-width:5;stroke-linecap:round;stroke-linejoin:round;stroke-miterlimit:10;stroke-dasharray:none;stroke-opacity:1" id="path3164" d="M 1201.2,1448.4 1742.4,1614"/><path style="fill:none;stroke:#000;stroke-width:5;stroke-linecap:round;stroke-linejoin:round;stroke-miterlimit:10;stroke-dasharray:none;stroke-opacity:1" id="path3166" d="m 1285.2,1280.4 498,254.4"/><path style="fill:none;stroke:#000;stroke-width:5;stroke-linecap:round;stroke-linejoin:round;stroke-miterlimit:10;stroke-dasharray:none;stroke-opacity:1" id="path3168" d="m 1369.2,1114.8 453.6,336"/><path style="fill:none;stroke:#000;stroke-width:20;stroke-linecap:round;stroke-linejoin:round;stroke-miterlimit:10;stroke-dasharray:none;stroke-opacity:1" id="path3170" d="m 1118.4,1612.8 584.4,84"/><path style="fill:none;stroke:#000;stroke-width:20;stroke-linecap:round;stroke-linejoin:round;stroke-miterlimit:10;stroke-dasharray:none;stroke-opacity:1" id="path3172" d="m 1452,948 414,412.8"/><path style="fill:none;stroke:#000;stroke-width:20;stroke-linecap:round;stroke-linejoin:round;stroke-miterlimit:10;stroke-dasharray:none;stroke-opacity:1" id="path3174" d="m 1702.8,1696.8 163.2,-336"/><path style="fill:none;stroke:#000;stroke-width:20;stroke-linecap:round;stroke-linejoin:round;stroke-miterlimit:10;stroke-dasharray:none;stroke-opacity:1" id="path3176" d="M 1118.4,1612.8 1453.2,945.6"/><path style="fill:#fff;fill-opacity:1;fill-rule:evenodd;stroke:none" id="path3178" d="m 121.2,783.6 h 330 v 328.8 h -330 z"/><path style="fill:none;stroke:#000;stroke-width:7.5;stroke-linecap:round;stroke-linejoin:round;stroke-miterlimit:10;stroke-dasharray:none;stroke-opacity:1" id="path3180" d="m 121.2,783.6 h 330 v 328.8 h -330 z"/><path style="fill:#000;fill-opacity:1;fill-rule:evenodd;stroke:none" id="path3182" d="m 285.6,966 h 3.6 l 3.6,-1.2 3.6,-2.4 2.4,-2.4 2.4,-2.4 1.2,-3.6 2.4,-3.6 v -7.2 l -2.4,-3.6 -1.2,-3.6 -2.4,-1.2 -2.4,-2.4 -3.6,-1.2 -3.6,-2.4 H 282 l -3.6,2.4 -2.4,1.2 -3.6,2.4 -1.2,1.2 -2.4,3.6 -1.2,3.6 v 7.2 l 1.2,3.6 2.4,3.6 1.2,2.4 3.6,2.4 2.4,2.4 3.6,1.2 h 3.6"/><path style="fill:none;stroke:#000;stroke-width:5;stroke-linecap:round;stroke-linejoin:round;stroke-miterlimit:10;stroke-dasharray:none;stroke-opacity:1" id="path3184" d="m 285.6,966 h 3.6 l 3.6,-1.2 3.6,-2.4 2.4,-2.4 2.4,-2.4 1.2,-3.6 1.2,-3.6 v -7.2 l -1.2,-3.6 -1.2,-3.6 -2.4,-1.2 -2.4,-2.4 -3.6,-1.2 -3.6,-1.2 H 282 l -3.6,1.2 -2.4,1.2 -3.6,2.4 -1.2,1.2 -2.4,3.6 -1.2,3.6 v 7.2 l 1.2,3.6 2.4,3.6 1.2,2.4 3.6,2.4 2.4,2.4 3.6,1.2 z"/><path style="fill:none;stroke:#000;stroke-width:5;stroke-linecap:round;stroke-linejoin:round;stroke-miterlimit:10;stroke-dasharray:none;stroke-opacity:1" id="path3186" d="m 285.6,966 h 3.6 l 3.6,-1.2 3.6,-2.4 2.4,-2.4 2.4,-2.4 1.2,-3.6 1.2,-3.6 v -7.2 l -1.2,-3.6 -1.2,-3.6 -2.4,-1.2 -2.4,-2.4 -3.6,-1.2 -3.6,-1.2 H 282 l -3.6,1.2 -2.4,1.2 -3.6,2.4 -1.2,1.2 -2.4,3.6 -1.2,3.6 v 7.2 l 1.2,3.6 2.4,3.6 1.2,2.4 3.6,2.4 2.4,2.4 3.6,1.2 z"/><path style="fill:#000;fill-opacity:1;fill-rule:evenodd;stroke:none" id="path3188" d="m 436.8,922.8 43.2,22.8 -43.2,21.6 v -44.4"/><path style="fill:#000;fill-opacity:1;fill-rule:evenodd;stroke:none" id="path3190" d="m 103.2,922.8 44.4,22.8 -44.4,21.6 v -44.4"/><path style="fill:#000;fill-opacity:1;fill-rule:evenodd;stroke:none" id="path3192" d="m 286.8,1137.6 -20.4,-44.4 h 43.2 l -22.8,44.4"/><path style="fill:#000;fill-opacity:1;fill-rule:evenodd;stroke:none" id="path3194" d="m 288,804 -21.6,-43.2 h 43.2 L 288,804"/><path style="fill:none;stroke:#a0a0a4;stroke-width:15;stroke-linecap:round;stroke-linejoin:round;stroke-miterlimit:10;stroke-dasharray:none;stroke-opacity:1" id="path3196" d="m 2820,1633.2 h 180"/><path style="fill:none;stroke:#a0a0a4;stroke-width:15;stroke-linecap:round;stroke-linejoin:round;stroke-miterlimit:10;stroke-dasharray:none;stroke-opacity:1" id="path3198" d="m 2640,1633.2 h 180"/><path style="fill:none;stroke:#a0a0a4;stroke-width:15;stroke-linecap:round;stroke-linejoin:round;stroke-miterlimit:10;stroke-dasharray:none;stroke-opacity:1" id="path3200" d="m 2821.2,1813.2 v -180"/><path style="fill:#000;fill-opacity:1;fill-rule:evenodd;stroke:none" id="path3202" d="m 2982,1610.4 48,25.2 -48,22.8 v -48"/><path style="fill:#000;fill-opacity:1;fill-rule:evenodd;stroke:none" id="path3204" d="m 2623.2,1610.4 46.8,25.2 -46.8,22.8 v -48"/><path style="fill:#000;fill-opacity:1;fill-rule:evenodd;stroke:none" id="path3206" d="m 2822.4,1838.4 -24,-48 h 48 l -24,48"/><path style="fill:#000;fill-opacity:1;fill-rule:evenodd;stroke:none" id="path3208" d="m 2822.4,1479.6 -24,-48 h 48 l -24,48"/><path style="fill:none;stroke:#a0a0a4;stroke-width:15;stroke-linecap:round;stroke-linejoin:round;stroke-miterlimit:10;stroke-dasharray:none;stroke-opacity:1" id="path3210" d="m 2820,1154.4 180,178.8"/><path style="fill:none;stroke:#a0a0a4;stroke-width:15;stroke-linecap:round;stroke-linejoin:round;stroke-miterlimit:10;stroke-dasharray:none;stroke-opacity:1" id="path3212" d="m 2820,1154.4 180,-180"/><path style="fill:none;stroke:#a0a0a4;stroke-width:15;stroke-linecap:round;stroke-linejoin:round;stroke-miterlimit:10;stroke-dasharray:none;stroke-opacity:1" id="path3214" d="m 2640,1333.2 180,-178.8"/><path style="fill:none;stroke:#a0a0a4;stroke-width:15;stroke-linecap:round;stroke-linejoin:round;stroke-miterlimit:10;stroke-dasharray:none;stroke-opacity:1" id="path3216" d="m 2640,974.4 180,180"/><path style="fill:none;stroke:#a0a0a4;stroke-width:15;stroke-linecap:round;stroke-linejoin:round;stroke-miterlimit:10;stroke-dasharray:none;stroke-opacity:1" id="path3218" d="m 2820,1153.2 h 180"/><path style="fill:none;stroke:#a0a0a4;stroke-width:15;stroke-linecap:round;stroke-linejoin:round;stroke-miterlimit:10;stroke-dasharray:none;stroke-opacity:1" id="path3220" d="m 2826,1150.8 10.8,6 10.8,4.8 9.6,4.8 10.8,4.8 10.8,3.6 10.8,3.6 10.8,3.6 12,3.6 10.8,2.4 10.8,2.4 12,2.4 10.8,1.2 12,1.2 12,1.2 h 10.8 l 12,1.2 12,-1.2 h 10.8 l 12,-1.2 12,-1.2 10.8,-1.2 12,-2.4 10.8,-2.4 12,-2.4 10.8,-3.6 10.8,-3.6 10.8,-3.6 10.8,-3.6 10.8,-4.8 10.8,-4.8 10.8,-6 9.6,-4.8"/><path style="fill:#a0a0a4;fill-opacity:1;fill-rule:evenodd;stroke:none" id="path3222" d="m 2803.2,1132.8 45.6,22.8 -45.6,22.8 v -45.6"/><path style="fill:none;stroke:#000;stroke-width:7.5;stroke-linecap:round;stroke-linejoin:round;stroke-miterlimit:10;stroke-dasharray:none;stroke-opacity:1" id="path3224" d="m 2803.2,1132.8 45.6,22.8 -45.6,22.8 v -45.6"/><path style="fill:#000;fill-opacity:1;fill-rule:evenodd;stroke:none" id="path3226" d="m 2443.2,1131.6 48,24 -48,22.8 v -46.8"/><path style="fill:#000;fill-opacity:1;fill-rule:evenodd;stroke:none" id="path3228" d="m 2642.4,1358.4 -24,-48 h 48 l -24,48"/><path style="fill:#000;fill-opacity:1;fill-rule:evenodd;stroke:none" id="path3230" d="m 2642.4,999.6 -24,-48 h 48 l -24,48"/><path style="fill:#000;fill-opacity:1;fill-rule:evenodd;stroke:none" id="path3232" d="m 3000,1358.4 -22.8,-48 h 48 l -25.2,48"/><path style="fill:#000;fill-opacity:1;fill-rule:evenodd;stroke:none" id="path3234" d="m 3000,999.6 -22.8,-48 h 48 l -25.2,48"/><path style="fill:#000;fill-opacity:1;fill-rule:evenodd;stroke:none" id="path3236" d="m 3162,1128 46.8,24 -46.8,24 v -48"/><path style="fill:#000;fill-opacity:1;fill-rule:evenodd;stroke:none" id="path3238" d="m 3003.6,1173.6 3.6,-1.2 3.6,-1.2 3.6,-1.2 2.4,-2.4 2.4,-2.4 2.4,-3.6 2.4,-3.6 v -8.4 l -2.4,-3.6 -2.4,-2.4 -2.4,-3.6 -2.4,-2.4 -3.6,-1.2 -3.6,-1.2 -3.6,-2.4 -3.6,2.4 -3.6,1.2 -3.6,1.2 -3.6,2.4 -2.4,3.6 -1.2,2.4 -1.2,3.6 v 8.4 l 1.2,3.6 1.2,3.6 2.4,2.4 3.6,2.4 3.6,1.2 3.6,1.2 3.6,1.2"/><path style="fill:none;stroke:#000;stroke-width:5;stroke-linecap:round;stroke-linejoin:round;stroke-miterlimit:10;stroke-dasharray:none;stroke-opacity:1" id="path3240" d="m 3003.6,1173.6 3.6,-1.2 3.6,-1.2 3.6,-1.2 2.4,-2.4 2.4,-2.4 2.4,-3.6 1.2,-3.6 v -8.4 l -1.2,-3.6 -2.4,-2.4 -2.4,-3.6 -2.4,-2.4 -3.6,-1.2 -3.6,-1.2 -3.6,-1.2 -3.6,1.2 -3.6,1.2 -3.6,1.2 -3.6,2.4 -2.4,3.6 -1.2,2.4 -1.2,3.6 v 8.4 l 1.2,3.6 1.2,3.6 2.4,2.4 3.6,2.4 3.6,1.2 3.6,1.2 z"/><path style="fill:none;stroke:#000;stroke-width:5;stroke-linecap:round;stroke-linejoin:round;stroke-miterlimit:10;stroke-dasharray:none;stroke-opacity:1" id="path3242" d="m 3003.6,1173.6 3.6,-1.2 3.6,-1.2 3.6,-1.2 2.4,-2.4 2.4,-2.4 2.4,-3.6 1.2,-3.6 v -8.4 l -1.2,-3.6 -2.4,-2.4 -2.4,-3.6 -2.4,-2.4 -3.6,-1.2 -3.6,-1.2 -3.6,-1.2 -3.6,1.2 -3.6,1.2 -3.6,1.2 -3.6,2.4 -2.4,3.6 -1.2,2.4 -1.2,3.6 v 8.4 l 1.2,3.6 1.2,3.6 2.4,2.4 3.6,2.4 3.6,1.2 3.6,1.2 z"/><path style="fill:none;stroke:#c00000;stroke-width:20;stroke-linecap:round;stroke-linejoin:round;stroke-miterlimit:10;stroke-dasharray:none;stroke-opacity:1" id="path3244" d="m 2397.6,897.6 h 856.8 v 502.8 h -856.8 z"/><path style="fill:#000;fill-opacity:1;fill-rule:evenodd;stroke:none" id="path3246" d="m 2643.6,1170 3.6,-1.2 3.6,-1.2 3.6,-1.2 2.4,-2.4 2.4,-2.4 2.4,-3.6 1.2,-3.6 v -8.4 l -1.2,-3.6 -2.4,-2.4 -2.4,-3.6 -2.4,-2.4 -3.6,-1.2 -3.6,-1.2 -3.6,-1.2 -3.6,1.2 -3.6,1.2 -3.6,1.2 -3.6,2.4 -2.4,3.6 -1.2,2.4 -1.2,3.6 v 8.4 l 1.2,3.6 1.2,3.6 2.4,2.4 3.6,2.4 3.6,1.2 3.6,1.2 3.6,1.2"/><path style="fill:none;stroke:#000;stroke-width:5;stroke-linecap:round;stroke-linejoin:round;stroke-miterlimit:10;stroke-dasharray:none;stroke-opacity:1" id="path3248" d="m 2643.6,1170 3.6,-1.2 3.6,-1.2 3.6,-1.2 2.4,-2.4 2.4,-2.4 2.4,-3.6 1.2,-3.6 v -8.4 l -1.2,-3.6 -2.4,-2.4 -2.4,-3.6 -2.4,-2.4 -3.6,-1.2 -3.6,-1.2 -3.6,-1.2 -3.6,1.2 -3.6,1.2 -3.6,1.2 -3.6,2.4 -2.4,3.6 -1.2,2.4 -1.2,3.6 v 8.4 l 1.2,3.6 1.2,3.6 2.4,2.4 3.6,2.4 3.6,1.2 3.6,1.2 3.6,1.2"/><path style="fill:#a0a0a4;fill-opacity:1;fill-rule:evenodd;stroke:none" id="path3250" d="m 2820,1652.4 3.6,-1.2 3.6,-1.2 3.6,-1.2 2.4,-2.4 2.4,-2.4 2.4,-3.6 1.2,-3.6 v -8.4 l -1.2,-3.6 -2.4,-2.4 -2.4,-3.6 -2.4,-2.4 -3.6,-1.2 -3.6,-1.2 -3.6,-1.2 -3.6,1.2 -3.6,1.2 -3.6,1.2 -3.6,2.4 -2.4,3.6 -1.2,2.4 -1.2,3.6 v 8.4 l 1.2,3.6 1.2,3.6 2.4,2.4 3.6,2.4 3.6,1.2 3.6,1.2 3.6,1.2"/><path style="fill:none;stroke:#000;stroke-width:7.5;stroke-linecap:round;stroke-linejoin:round;stroke-miterlimit:10;stroke-dasharray:none;stroke-opacity:1" id="path3252" d="m 2820,1652.4 3.6,-1.2 3.6,-1.2 3.6,-1.2 2.4,-2.4 2.4,-2.4 2.4,-3.6 1.2,-3.6 v -8.4 l -1.2,-3.6 -2.4,-2.4 -2.4,-3.6 -2.4,-2.4 -3.6,-1.2 -3.6,-1.2 -3.6,-1.2 -3.6,1.2 -3.6,1.2 -3.6,1.2 -3.6,2.4 -2.4,3.6 -1.2,2.4 -1.2,3.6 v 8.4 l 1.2,3.6 1.2,3.6 2.4,2.4 3.6,2.4 3.6,1.2 3.6,1.2 3.6,1.2"/></g></g></g></svg>