<svg xmlns="http://www.w3.org/2000/svg" xmlns:svg="http://www.w3.org/2000/svg" id="svg7412" width="289.414" height="288.774" version="1.1" viewBox="0 0 289.414 288.774" xml:space="preserve"><metadata id="metadata7418"/><g id="g7420" transform="matrix(1.3333333,0,0,-1.3333333,-4.732357,293.50761)"><g id="g7422" transform="scale(0.1)"><g id="g7424"><path style="fill:none;stroke:#000;stroke-width:1;stroke-linecap:butt;stroke-linejoin:round;stroke-miterlimit:10;stroke-dasharray:none;stroke-opacity:1" id="path7426" d="m 40.7998,35.9998 h 2164.8 v 2164.8 h -2164.8 z"/><path style="fill:none;stroke:#000;stroke-width:1;stroke-linecap:round;stroke-linejoin:round;stroke-miterlimit:10;stroke-dasharray:none;stroke-opacity:1" id="path7428" d="M 35.9998,760.8 H 2193.6"/><path style="fill:none;stroke:#000;stroke-width:1;stroke-linecap:round;stroke-linejoin:round;stroke-miterlimit:10;stroke-dasharray:none;stroke-opacity:1" id="path7430" d="M 40.7998,1480.8 H 2193.6"/><path style="fill:none;stroke:#000;stroke-width:1;stroke-linecap:round;stroke-linejoin:round;stroke-miterlimit:10;stroke-dasharray:none;stroke-opacity:1" id="path7432" d="M 759.6,2200.8 V 44.3999"/><path style="fill:none;stroke:#000;stroke-width:1;stroke-linecap:round;stroke-linejoin:round;stroke-miterlimit:10;stroke-dasharray:none;stroke-opacity:1" id="path7434" d="M 1480.8,2198.4 V 41.9998"/><g id="g7436" transform="scale(10)"><text style="font-style:italic;font-variant:normal;font-size:18px;font-family:'Times New Roman';-inkscape-font-specification:Times-Italic;writing-mode:lr-tb;fill:#000;fill-opacity:1;fill-rule:nonzero;stroke:none" id="text7442" transform="matrix(0.833333,0,0,-1,16.08,33.36)"><tspan id="tspan7438" x="0 5.994 11.988 20.988 25.488 31.482 40.482 46.476" y="0">(-1,-1)</tspan><tspan id="tspan7440" x="22.464 28.458 37.458 41.958 50.958 56.952" y="-126.36">(0,0)</tspan></text></g><path style="fill:#a0a0a4;fill-opacity:1;fill-rule:evenodd;stroke:none" id="path7444" d="m 1168.8,1124.51 c -0.11,34.18 -36.13,55.42 -64.85,38.31 -28.76,-17.15 -28.71,-59.82 0.1,-76.9 28.9,-17.02 64.8,4.41 64.75,38.58"/><path style="fill:none;stroke:#a0a0a4;stroke-width:1;stroke-linecap:round;stroke-linejoin:round;stroke-miterlimit:10;stroke-dasharray:none;stroke-opacity:1" id="path7446" d="m 1168.8,1124.51 c -0.11,34.18 -36.13,55.42 -64.85,38.31 -28.76,-17.15 -28.71,-59.82 0.1,-76.9 28.9,-17.02 64.8,4.41 64.75,38.58"/><path style="fill:none;stroke:#a0a0a4;stroke-width:42.5;stroke-linecap:round;stroke-linejoin:round;stroke-miterlimit:10;stroke-dasharray:none;stroke-opacity:1" id="path7448" d="M 405.6,1125.6 H 1116"/><path style="fill:none;stroke:#a00000;stroke-width:42.5;stroke-linecap:round;stroke-linejoin:round;stroke-miterlimit:10;stroke-dasharray:none;stroke-opacity:1" id="path7450" d="m 1128,1124.4 h 710.4"/><path style="fill:none;stroke:#000;stroke-width:15;stroke-linecap:round;stroke-linejoin:round;stroke-miterlimit:10;stroke-dasharray:none;stroke-opacity:1" id="path7452" d="M 696,1545.6 979.2,1262.4"/><path style="fill:#000;fill-opacity:1;fill-rule:evenodd;stroke:none" id="path7454" d="m 998.4,1243.2 -61.2,20.4 38.4,2.4 2.4,38.4 20.4,-61.2"/><path style="fill:none;stroke:#000;stroke-width:7.5;stroke-linecap:round;stroke-linejoin:round;stroke-miterlimit:10;stroke-dasharray:none;stroke-opacity:1" id="path7456" d="m 998.4,1243.2 -61.2,20.4 38.4,2.4 2.4,38.4 20.4,-61.2"/><path style="fill:#fff;fill-opacity:1;fill-rule:evenodd;stroke:none" id="path7458" d="m 1230,1136.42 c -0.08,82.21 -88.99,133.52 -160.21,92.46 -71.222,-41.31 -71.091,-143.96 0.12,-185.04 71.29,-40.96 160.02,10.35 160.09,92.56"/><g id="g7460" transform="scale(10)"><text style="font-style:italic;font-variant:normal;font-weight:700;font-size:18px;font-family:'Times New Roman';-inkscape-font-specification:Times-BoldItalic;writing-mode:lr-tb;fill:#000;fill-opacity:1;fill-rule:nonzero;stroke:none" id="text7464" transform="matrix(0.861111,0,0,-1,107.76,106.44)"><tspan id="tspan7462" x="0 9" y="0">0</tspan></text></g><path style="fill:#fff;fill-opacity:1;fill-rule:evenodd;stroke:none" id="path7466" d="m 872.4,1140.02 c -0.081,82.21 -88.986,133.52 -160.211,92.46 -71.221,-41.31 -71.09,-143.96 0.126,-185.04 71.282,-40.96 160.02,10.35 160.085,92.56"/><g id="g7468" transform="scale(10)"><text style="font-style:italic;font-variant:normal;font-weight:700;font-size:18px;font-family:'Times New Roman';-inkscape-font-specification:Times-BoldItalic;writing-mode:lr-tb;fill:#000;fill-opacity:1;fill-rule:nonzero;stroke:none" id="text7472" transform="matrix(0.861111,0,0,-1,72,106.8)"><tspan id="tspan7470" x="0 9" y="0">1</tspan></text></g><path style="fill:#fff;fill-opacity:1;fill-rule:evenodd;stroke:none" id="path7474" d="m 1592.4,1140.02 c -0.08,82.21 -88.99,133.52 -160.21,92.46 -71.22,-41.31 -71.09,-143.96 0.12,-185.04 71.29,-40.96 160.02,10.35 160.09,92.56"/><g id="g7476" transform="scale(10)"><text style="font-style:italic;font-variant:normal;font-weight:700;font-size:18px;font-family:'Times New Roman';-inkscape-font-specification:Times-BoldItalic;writing-mode:lr-tb;fill:#a00000;fill-opacity:1;fill-rule:nonzero;stroke:none" id="text7480" transform="matrix(0.861111,0,0,-1,144,106.8)"><tspan id="tspan7478" x="0 9" y="0">2</tspan></text></g><path style="fill:#000;fill-opacity:1;fill-rule:evenodd;stroke:none" id="path7482" d="m 458.4,1126.87 c -0.089,40.65 -46.069,65.96 -82.859,45.62 -36.755,-20.4 -36.662,-71.22 0.169,-91.48 36.864,-20.21 82.751,5.27 82.69,45.85"/><path style="fill:none;stroke:#000;stroke-width:7.5;stroke-linecap:round;stroke-linejoin:round;stroke-miterlimit:10;stroke-dasharray:none;stroke-opacity:1" id="path7484" d="m 458.4,1126.87 c -0.089,40.65 -46.069,65.96 -82.859,45.62 -36.755,-20.4 -36.662,-71.22 0.169,-91.48 36.864,-20.21 82.751,5.27 82.69,45.85"/><path style="fill:#a00000;fill-opacity:1;fill-rule:evenodd;stroke:none" id="path7486" d="m 1898.4,1124.41 c -0.04,41.57 -44.99,67.51 -81.01,46.75 -36.01,-20.89 -35.94,-72.79 0.07,-93.56 36.04,-20.71 80.91,5.23 80.94,46.8"/><path style="fill:none;stroke:#a00000;stroke-width:7.5;stroke-linecap:round;stroke-linejoin:round;stroke-miterlimit:10;stroke-dasharray:none;stroke-opacity:1" id="path7488" d="m 1898.4,1124.41 c -0.04,41.57 -44.99,67.51 -81.01,46.75 -36.01,-20.89 -35.94,-72.79 0.07,-93.56 36.04,-20.71 80.91,5.23 80.94,46.8"/></g></g></g></svg>