<svg xmlns="http://www.w3.org/2000/svg" xmlns:svg="http://www.w3.org/2000/svg" id="svg2436" width="419.424" height="215.904" version="1.1" viewBox="0 0 419.424 215.904" xml:space="preserve"><metadata id="metadata2442"/><defs id="defs2440"><clipPath id="clipPath2580" clipPathUnits="userSpaceOnUse"><path id="path2578" d="M 0,0 H 720 V 540 H 0 Z"/></clipPath><clipPath id="clipPath2596" clipPathUnits="userSpaceOnUse"><path id="path2594" d="M 0,0 H 720 V 540 H 0 Z"/></clipPath><clipPath id="clipPath2612" clipPathUnits="userSpaceOnUse"><path id="path2610" d="M 0,0 H 720 V 540 H 0 Z"/></clipPath><clipPath id="clipPath2628" clipPathUnits="userSpaceOnUse"><path id="path2626" d="M 0,0 H 720 V 540 H 0 Z"/></clipPath></defs><g id="g2444" transform="matrix(1.3333333,0,0,-1.3333333,-218.592,386.496)"><g id="g2446" transform="translate(387.2999,154.2346)"><path style="fill:none;stroke:#000;stroke-width:.5;stroke-linecap:butt;stroke-linejoin:round;stroke-miterlimit:10;stroke-dasharray:2,1.5;stroke-dashoffset:0;stroke-opacity:1" id="path2448" d="M 0,0 10.2,106.2"/></g><g id="g2450" transform="translate(459.5999,195.9346)"><path style="fill:none;stroke:#000;stroke-width:.5;stroke-linecap:butt;stroke-linejoin:round;stroke-miterlimit:10;stroke-dasharray:2,1.5;stroke-dashoffset:0;stroke-opacity:1" id="path2452" d="M 0,0 -45.6,74.1"/></g><g id="g2454" transform="translate(411.8998,195.9346)"><path style="fill:none;stroke:#000;stroke-width:.5;stroke-linecap:butt;stroke-linejoin:round;stroke-miterlimit:10;stroke-dasharray:2,1.5;stroke-dashoffset:0;stroke-opacity:1" id="path2456" d="M 0,0 -9.3,74.1"/></g><g id="g2458" transform="translate(434.64,155.31461)"><path style="fill:none;stroke:#000;stroke-width:.5;stroke-linecap:butt;stroke-linejoin:round;stroke-miterlimit:10;stroke-dasharray:2,1.5;stroke-dashoffset:0;stroke-opacity:1" id="path2460" d="M 0,0 -26.64,105.12"/></g><g id="g2462" transform="translate(249.98669,190.8519)"><path style="fill:none;stroke:#a50021;stroke-width:2.5;stroke-linecap:butt;stroke-linejoin:round;stroke-miterlimit:10;stroke-dasharray:none;stroke-opacity:1" id="path2464" d="M 0,0 54,93.531"/></g><text style="font-style:italic;font-variant:normal;font-weight:700;font-stretch:normal;font-size:20.04000092px;font-family:'Times New Roman';-inkscape-font-specification:TimesNewRomanPS-BoldItalicMT;writing-mode:lr-tb;fill:#a50021;fill-opacity:1;fill-rule:nonzero;stroke:none" id="text2468" transform="matrix(1,0,0,-1,222.8768,234.149)"><tspan id="tspan2466" x="0 10.08 20.16 27.956 33.467 38.156" y="0">part 1</tspan></text><g id="g2470" transform="translate(277.2132,232.04449)"><path style="fill:none;stroke:#a50021;stroke-width:1;stroke-linecap:butt;stroke-linejoin:round;stroke-miterlimit:10;stroke-dasharray:none;stroke-opacity:1" id="path2472" d="M 0,0 2.91,-1.68"/></g><g id="g2474" transform="translate(280.2572,232.5966)"><path style="fill:#a50021;fill-opacity:1;fill-rule:evenodd;stroke:none" id="path2476" d="M 0,0 2.464,-3.732 -2,-3.464 Z"/></g><g id="g2478" transform="translate(277.07941,229.81261)"><path style="fill:#a50021;fill-opacity:1;fill-rule:evenodd;stroke:none" id="path2480" d="M 0,0 -2.464,3.732 2,3.464 Z"/></g><g id="g2482" transform="translate(258.72121,187.2346)"><path style="fill:none;stroke:#000;stroke-width:2.5;stroke-linecap:butt;stroke-linejoin:round;stroke-miterlimit:10;stroke-dasharray:none;stroke-opacity:1" id="path2484" d="M 0,0 H 108"/></g><g id="g2486" transform="translate(366.72121,187.2346)"><path style="fill:none;stroke:#000;stroke-width:2.5;stroke-linecap:butt;stroke-linejoin:round;stroke-miterlimit:10;stroke-dasharray:none;stroke-opacity:1" id="path2488" d="M 0,0 54,93.531"/></g><g id="g2490" transform="translate(258.72121,187.2346)"><path style="fill:none;stroke:#a50021;stroke-width:2.5;stroke-linecap:butt;stroke-linejoin:round;stroke-miterlimit:10;stroke-dasharray:none;stroke-opacity:1" id="path2492" d="M 0,0 54,93.531"/></g><g id="g2494" transform="translate(312.72121,280.2547)"><path style="fill:none;stroke:#000;stroke-width:2.5;stroke-linecap:butt;stroke-linejoin:round;stroke-miterlimit:10;stroke-dasharray:none;stroke-opacity:1" id="path2496" d="M 0,0 H 108"/></g><g id="g2498" transform="translate(264.72121,197.4194)"><path style="fill:none;stroke:#000;stroke-width:.75;stroke-linecap:butt;stroke-linejoin:round;stroke-miterlimit:10;stroke-dasharray:none;stroke-opacity:1" id="path2500" d="M 0,0 H 18"/></g><g id="g2502" transform="translate(270.72121,187.23441)"><path style="fill:none;stroke:#000;stroke-width:.75;stroke-linecap:butt;stroke-linejoin:round;stroke-miterlimit:10;stroke-dasharray:none;stroke-opacity:1" id="path2504" d="M 0,0 9,15.588"/></g><g id="g2506" transform="translate(282.72121,187.2346)"><path style="fill:none;stroke:#000;stroke-width:.75;stroke-linecap:butt;stroke-linejoin:round;stroke-miterlimit:10;stroke-dasharray:none;stroke-opacity:1" id="path2508" d="M 0,0 3.6,6.235"/></g><g id="g2510" transform="translate(270.72121,207.60429)"><path style="fill:none;stroke:#000;stroke-width:.75;stroke-linecap:butt;stroke-linejoin:round;stroke-miterlimit:10;stroke-dasharray:none;stroke-opacity:1" id="path2512" d="M 0,0 H 7.2"/></g><g id="g2514" transform="translate(414.72121,270.01939)"><path style="fill:none;stroke:#000;stroke-width:.75;stroke-linecap:butt;stroke-linejoin:round;stroke-miterlimit:10;stroke-dasharray:none;stroke-opacity:1" id="path2516" d="M 0,0 H -18"/></g><g id="g2518" transform="translate(408.72121,280.2045)"><path style="fill:none;stroke:#000;stroke-width:.75;stroke-linecap:butt;stroke-linejoin:round;stroke-miterlimit:10;stroke-dasharray:none;stroke-opacity:1" id="path2520" d="M 0,0 -9,-15.588"/></g><g id="g2522" transform="translate(396.72121,280.2043)"><path style="fill:none;stroke:#000;stroke-width:.75;stroke-linecap:butt;stroke-linejoin:round;stroke-miterlimit:10;stroke-dasharray:none;stroke-opacity:1" id="path2524" d="M 0,0 -3.6,-6.235"/></g><g id="g2526" transform="translate(408.72121,259.83459)"><path style="fill:none;stroke:#000;stroke-width:.75;stroke-linecap:butt;stroke-linejoin:round;stroke-miterlimit:10;stroke-dasharray:none;stroke-opacity:1" id="path2528" d="M 0,0 H -7.2"/></g><text style="font-style:italic;font-variant:normal;font-weight:700;font-stretch:normal;font-size:20.04000092px;font-family:'Times New Roman';-inkscape-font-specification:TimesNewRomanPS-BoldItalicMT;writing-mode:lr-tb;fill:#000;fill-opacity:1;fill-rule:nonzero;stroke:none" id="text2532" transform="matrix(1,0,0,-1,312.6158,227.9146)"><tspan id="tspan2530" x="0 10.08 20.16 27.956 33.467 38.156" y="0">part 0</tspan></text><text style="font-style:italic;font-variant:normal;font-weight:400;font-stretch:normal;font-size:12px;font-family:'Times New Roman';-inkscape-font-specification:TimesNewRomanPS-ItalicMT;writing-mode:lr-tb;fill:#000;fill-opacity:1;fill-rule:nonzero;stroke:none" id="text2536" transform="matrix(1,0,0,-1,439.4749,275.1744)"><tspan id="tspan2534" x="0 3.84 9.84 12.84 18.84" y="0">(9,9)</tspan></text><g id="g2538" transform="translate(437.51109,279.6512)"><path style="fill:none;stroke:#000;stroke-width:1;stroke-linecap:butt;stroke-linejoin:round;stroke-miterlimit:10;stroke-dasharray:none;stroke-opacity:1" id="path2540" d="M 0,0 -25.421,-4.406"/></g><g id="g2542" transform="translate(413.5876,272.46069)"><path style="fill:#000;fill-opacity:1;fill-rule:evenodd;stroke:none" id="path2544" d="m 0,0 -4.454,2.273 3.429,3.639 z"/></g><text style="font-style:italic;font-variant:normal;font-weight:400;font-stretch:normal;font-size:12px;font-family:'Times New Roman';-inkscape-font-specification:TimesNewRomanPS-ItalicMT;writing-mode:lr-tb;fill:#000;fill-opacity:1;fill-rule:nonzero;stroke:none" id="text2548" transform="matrix(1,0,0,-1,296.7354,193.6045)"><tspan id="tspan2546" x="0 3.84 9.84 12.84 18.84" y="0">(1,1)</tspan></text><g id="g2550" transform="translate(295.3262,197.76019)"><path style="fill:none;stroke:#000;stroke-width:1;stroke-linecap:butt;stroke-linejoin:round;stroke-miterlimit:10;stroke-dasharray:none;stroke-opacity:1" id="path2552" d="M 0,0 -25.421,-4.406"/></g><g id="g2554" transform="translate(271.40269,190.56979)"><path style="fill:#000;fill-opacity:1;fill-rule:evenodd;stroke:none" id="path2556" d="m 0,0 -4.454,2.273 3.429,3.639 z"/></g><g id="g2558" transform="translate(387.3,154.0192)"><path style="fill:none;stroke:#000;stroke-width:.75;stroke-linecap:butt;stroke-linejoin:round;stroke-miterlimit:10;stroke-dasharray:none;stroke-opacity:1" id="path2560" d="M 0,0 H 48"/></g><g id="g2562" transform="translate(435.3,154.45)"><path style="fill:none;stroke:#000;stroke-width:.75;stroke-linecap:butt;stroke-linejoin:round;stroke-miterlimit:10;stroke-dasharray:none;stroke-opacity:1" id="path2564" d="M 0,0 24,41.569"/></g><g id="g2566" transform="translate(387.3,154.45)"><path style="fill:none;stroke:#000;stroke-width:.75;stroke-linecap:butt;stroke-linejoin:round;stroke-miterlimit:10;stroke-dasharray:none;stroke-opacity:1" id="path2568" d="M 0,0 24,41.569"/></g><g id="g2570" transform="translate(411.3,196.0192)"><path style="fill:none;stroke:#000;stroke-width:.75;stroke-linecap:butt;stroke-linejoin:round;stroke-miterlimit:10;stroke-dasharray:none;stroke-opacity:1" id="path2572" d="M 0,0 H 48"/></g><g id="g2574"><g id="g2576" clip-path="url(#clipPath2580)"><g id="g2582" transform="translate(408.8,196.08411)"><path style="fill:#000;fill-opacity:1;fill-rule:evenodd;stroke:none" id="path2584" d="M 0,0 C 0,1.455 1.161,2.635 2.594,2.635 4.027,2.635 5.188,1.455 5.188,0 5.188,-1.455 4.027,-2.635 2.594,-2.635 1.161,-2.635 0,-1.455 0,0"/></g><g id="g2586" transform="translate(408.8,196.08411)"><path style="fill:none;stroke:#000;stroke-width:.75;stroke-linecap:butt;stroke-linejoin:round;stroke-miterlimit:10;stroke-dasharray:none;stroke-opacity:1" id="path2588" d="M 0,0 C 0,1.455 1.161,2.635 2.594,2.635 4.027,2.635 5.188,1.455 5.188,0 5.188,-1.455 4.027,-2.635 2.594,-2.635 1.161,-2.635 0,-1.455 0,0 Z"/></g></g></g><g id="g2590"><g id="g2592" clip-path="url(#clipPath2596)"><g id="g2598" transform="translate(456.81219,196.08411)"><path style="fill:#000;fill-opacity:1;fill-rule:evenodd;stroke:none" id="path2600" d="M 0,0 C 0,1.455 1.161,2.635 2.594,2.635 4.027,2.635 5.188,1.455 5.188,0 5.188,-1.455 4.027,-2.635 2.594,-2.635 1.161,-2.635 0,-1.455 0,0"/></g><g id="g2602" transform="translate(456.81219,196.08411)"><path style="fill:none;stroke:#000;stroke-width:.75;stroke-linecap:butt;stroke-linejoin:round;stroke-miterlimit:10;stroke-dasharray:none;stroke-opacity:1" id="path2604" d="M 0,0 C 0,1.455 1.161,2.635 2.594,2.635 4.027,2.635 5.188,1.455 5.188,0 5.188,-1.455 4.027,-2.635 2.594,-2.635 1.161,-2.635 0,-1.455 0,0 Z"/></g></g></g><g id="g2606"><g id="g2608" clip-path="url(#clipPath2612)"><g id="g2614" transform="translate(384.3,154.08411)"><path style="fill:#000;fill-opacity:1;fill-rule:evenodd;stroke:none" id="path2616" d="M 0,0 C 0,1.455 1.161,2.635 2.594,2.635 4.027,2.635 5.188,1.455 5.188,0 5.188,-1.455 4.027,-2.635 2.594,-2.635 1.161,-2.635 0,-1.455 0,0"/></g><g id="g2618" transform="translate(384.3,154.08411)"><path style="fill:none;stroke:#000;stroke-width:.75;stroke-linecap:butt;stroke-linejoin:round;stroke-miterlimit:10;stroke-dasharray:none;stroke-opacity:1" id="path2620" d="M 0,0 C 0,1.455 1.161,2.635 2.594,2.635 4.027,2.635 5.188,1.455 5.188,0 5.188,-1.455 4.027,-2.635 2.594,-2.635 1.161,-2.635 0,-1.455 0,0 Z"/></g></g></g><g id="g2622"><g id="g2624" clip-path="url(#clipPath2628)"><g id="g2630" transform="translate(432.31219,154.08411)"><path style="fill:#000;fill-opacity:1;fill-rule:evenodd;stroke:none" id="path2632" d="M 0,0 C 0,1.455 1.161,2.635 2.594,2.635 4.027,2.635 5.188,1.455 5.188,0 5.188,-1.455 4.027,-2.635 2.594,-2.635 1.161,-2.635 0,-1.455 0,0"/></g><g id="g2634" transform="translate(432.31219,154.08411)"><path style="fill:none;stroke:#000;stroke-width:.75;stroke-linecap:butt;stroke-linejoin:round;stroke-miterlimit:10;stroke-dasharray:none;stroke-opacity:1" id="path2636" d="M 0,0 C 0,1.455 1.161,2.635 2.594,2.635 4.027,2.635 5.188,1.455 5.188,0 5.188,-1.455 4.027,-2.635 2.594,-2.635 1.161,-2.635 0,-1.455 0,0 Z"/></g></g></g><text style="font-style:italic;font-variant:normal;font-weight:400;font-stretch:normal;font-size:12px;font-family:'Times New Roman';-inkscape-font-specification:TimesNewRomanPS-ItalicMT;writing-mode:lr-tb;fill:#000;fill-opacity:1;fill-rule:nonzero;stroke:none" id="text2646" transform="matrix(1,0,0,-1,389.5245,139.8289)"><tspan id="tspan2638" x="0" y="0">0</tspan><tspan id="tspan2640" x="48" y=".12">1</tspan><tspan id="tspan2642" x="72.6" y="-41.88">2</tspan><tspan id="tspan2644" x="24.6" y="-42">3</tspan></text></g></svg>