<svg xmlns="http://www.w3.org/2000/svg" xmlns:svg="http://www.w3.org/2000/svg" id="svg1304" width="386.667" height="266.667" version="1.1" viewBox="0 0 386.667 266.667" xml:space="preserve"><metadata id="metadata1310"/><g id="g1312" transform="matrix(1.3333333,0,0,-1.3333333,0,266.66667)"><g id="g1314" transform="scale(0.1)"><g id="g1316"><path style="fill:none;stroke:silver;stroke-width:20;stroke-linecap:round;stroke-linejoin:round;stroke-miterlimit:10;stroke-dasharray:none;stroke-opacity:1" id="path1318" d="m 696,1682.4 718.8,-1440"/><path style="fill:none;stroke:silver;stroke-width:20;stroke-linecap:round;stroke-linejoin:round;stroke-miterlimit:10;stroke-dasharray:none;stroke-opacity:1" id="path1320" d="M 696,1682.4 1416,241.2"/><path style="fill:none;stroke:silver;stroke-width:20;stroke-linecap:round;stroke-linejoin:round;stroke-miterlimit:10;stroke-dasharray:none;stroke-opacity:1" id="path1322" d="m 1416,242.4 897.6,900"/><path style="fill:none;stroke:silver;stroke-width:20;stroke-linecap:round;stroke-linejoin:round;stroke-miterlimit:10;stroke-dasharray:none;stroke-opacity:1" id="path1324" d="m 1413.6,246 895.2,891.6"/><path style="fill:none;stroke:silver;stroke-width:5;stroke-linecap:round;stroke-linejoin:round;stroke-miterlimit:10;stroke-dasharray:none;stroke-opacity:1" id="path1326" d="M 1350,1776 1953.6,782.4"/><path style="fill:none;stroke:silver;stroke-width:5;stroke-linecap:round;stroke-linejoin:round;stroke-miterlimit:10;stroke-dasharray:none;stroke-opacity:1" id="path1328" d="M 1652.4,1820.4 2133.6,961.2"/><path style="fill:none;stroke:silver;stroke-width:5;stroke-linecap:round;stroke-linejoin:round;stroke-miterlimit:10;stroke-dasharray:none;stroke-opacity:1" id="path1330" d="M 1053.6,1734 1716,547.2"/><path style="fill:none;stroke:silver;stroke-width:5;stroke-linecap:round;stroke-linejoin:round;stroke-miterlimit:10;stroke-dasharray:none;stroke-opacity:1" id="path1332" d="m 874.8,1324.8 1165.2,360"/><path style="fill:none;stroke:silver;stroke-width:5;stroke-linecap:round;stroke-linejoin:round;stroke-miterlimit:10;stroke-dasharray:none;stroke-opacity:1" id="path1334" d="M 1054.8,964.8 2125.2,1512"/><path style="fill:none;stroke:silver;stroke-width:5;stroke-linecap:round;stroke-linejoin:round;stroke-miterlimit:10;stroke-dasharray:none;stroke-opacity:1" id="path1336" d="m 1234.8,604.8 978,727.2"/><path style="fill:none;stroke:silver;stroke-width:20;stroke-linecap:round;stroke-linejoin:round;stroke-miterlimit:10;stroke-dasharray:none;stroke-opacity:1" id="path1338" d="m 696,1682.4 1258.8,180"/><path style="fill:none;stroke:silver;stroke-width:20;stroke-linecap:round;stroke-linejoin:round;stroke-miterlimit:10;stroke-dasharray:none;stroke-opacity:1" id="path1340" d="m 1954.8,1862.4 354,-724.8"/><g id="g1342" transform="scale(10)"><text style="font-style:italic;font-variant:normal;font-size:10px;font-family:'Times New Roman';-inkscape-font-specification:Times-Italic;writing-mode:lr-tb;fill:silver;fill-opacity:1;fill-rule:nonzero;stroke:none" id="text1346" transform="matrix(0.871795,0,0,-1,138.12,50.4)"><tspan id="tspan1344" x="0 3.33 8.33 10.83 15.83 19.16" y="0">(1,1)</tspan></text></g><g id="g1348" transform="scale(10)"><text style="font-style:italic;font-variant:normal;font-size:10px;font-family:'Times New Roman';-inkscape-font-specification:Times-Italic;writing-mode:lr-tb;fill:silver;fill-opacity:1;fill-rule:nonzero;stroke:none" id="text1352" transform="matrix(0.871795,0,0,-1,176.52,169.92)"><tspan id="tspan1350" x="0 3.33 8.33 10.83 15.83 19.16" y="0">(4,4)</tspan></text></g><path style="fill:#fff;fill-opacity:1;fill-rule:evenodd;stroke:none" id="path1354" d="m 1594.8,1381.2 h 18 l 19.2,-1.2 18,-1.2 18,-1.2 18,-2.4 16.8,-2.4 18,-3.6 15.6,-2.4 16.8,-4.8 15.6,-3.6 15.6,-4.8 14.4,-4.8 14.4,-6 14.4,-6 13.2,-6 12,-6 12,-7.2 12,-7.2 10.8,-7.2 10.8,-7.2 9.6,-8.4 8.4,-8.4 8.4,-8.4 7.2,-8.4 6,-8.4 6,-9.6 4.8,-9.6 4.8,-8.4 2.4,-9.6 2.4,-10.8 1.2,-9.6 2.4,-9.6 -2.4,-10.8 -1.2,-9.6 -2.4,-9.6 -2.4,-9.6 -4.8,-9.6 -4.8,-9.6 -6,-8.4 -6,-8.4 -7.2,-9.6 -8.4,-8.4 -8.4,-7.2 -9.6,-8.4 -10.8,-7.2 -10.8,-8.4 -12,-6 -12,-7.2 -12,-7.2 -13.2,-6 -14.4,-4.8 -14.4,-6 -14.4,-4.8 -15.6,-4.8 -15.6,-4.8 -16.8,-3.6 -15.6,-3.6 -18,-2.4 -16.8,-3.6 -18,-1.2 -18,-2.4 -18,-1.2 -19.2,-1.2 h -37.2 l -19.2,1.2 -18,1.2 -18,2.4 -18,1.2 -16.8,3.6 -16.8,2.4 -15.6,3.6 -16.8,3.6 -15.6,4.8 -15.6,4.8 -14.4,4.8 -14.4,6 -14.4,4.8 -13.2,6 -12,7.2 -12,7.2 -12,6 -10.8,8.4 -9.6,7.2 -9.6,8.4 -9.6,7.2 -8.4,8.4 -7.2,9.6 -6,8.4 -6,8.4 -4.8,9.6 -3.6,9.6 -3.6,9.6 -2.4,9.6 -1.2,9.6 -1.2,10.8 1.2,9.6 1.2,9.6 2.4,10.8 3.6,9.6 3.6,8.4 4.8,9.6 6,9.6 6,8.4 7.2,8.4 8.4,8.4 9.6,8.4 9.6,8.4 9.6,7.2 10.8,7.2 12,7.2 12,7.2 12,6 13.2,6 14.4,6 14.4,6 14.4,4.8 15.6,4.8 15.6,3.6 16.8,4.8 15.6,2.4 16.8,3.6 16.8,2.4 18,2.4 18,1.2 18,1.2 19.2,1.2 h 19.2"/><g id="g1356" transform="scale(10)"><text style="font-style:italic;font-variant:normal;font-weight:700;font-size:19.75px;font-family:'Times New Roman';-inkscape-font-specification:Times-BoldItalic;writing-mode:lr-tb;fill:silver;fill-opacity:1;fill-rule:nonzero;stroke:none" id="text1360" transform="matrix(0.873418,0,0,-1,136.56,112.56)"><tspan id="tspan1358" x="0 9.875 19.75 27.433 32.923 37.861 47.736" y="0">part 3</tspan></text></g><path style="fill:none;stroke:silver;stroke-width:20;stroke-linecap:round;stroke-linejoin:round;stroke-miterlimit:10;stroke-dasharray:none;stroke-opacity:1" id="path1362" d="m 696,1682.4 718.8,-1440"/><path style="fill:none;stroke:silver;stroke-width:20;stroke-linecap:round;stroke-linejoin:round;stroke-miterlimit:10;stroke-dasharray:none;stroke-opacity:1" id="path1364" d="m 1416,242.4 897.6,900"/><path style="fill:none;stroke:#000;stroke-width:20;stroke-linecap:round;stroke-linejoin:round;stroke-miterlimit:10;stroke-dasharray:none;stroke-opacity:1" id="path1366" d="M 696,1682.4 1416,241.2"/><path style="fill:none;stroke:#000;stroke-width:20;stroke-linecap:round;stroke-linejoin:round;stroke-miterlimit:10;stroke-dasharray:none;stroke-opacity:1" id="path1368" d="m 1413.6,246 895.2,891.6"/><path style="fill:none;stroke:#000;stroke-width:5;stroke-linecap:round;stroke-linejoin:round;stroke-miterlimit:10;stroke-dasharray:none;stroke-opacity:1" id="path1370" d="M 1350,1776 1953.6,782.4"/><path style="fill:none;stroke:#000;stroke-width:5;stroke-linecap:round;stroke-linejoin:round;stroke-miterlimit:10;stroke-dasharray:none;stroke-opacity:1" id="path1372" d="M 1652.4,1820.4 2133.6,961.2"/><path style="fill:none;stroke:#000;stroke-width:5;stroke-linecap:round;stroke-linejoin:round;stroke-miterlimit:10;stroke-dasharray:none;stroke-opacity:1" id="path1374" d="M 1053.6,1734 1716,547.2"/><path style="fill:none;stroke:#000;stroke-width:5;stroke-linecap:round;stroke-linejoin:round;stroke-miterlimit:10;stroke-dasharray:none;stroke-opacity:1" id="path1376" d="m 874.8,1324.8 1165.2,360"/><path style="fill:none;stroke:#000;stroke-width:5;stroke-linecap:round;stroke-linejoin:round;stroke-miterlimit:10;stroke-dasharray:none;stroke-opacity:1" id="path1378" d="M 1054.8,964.8 2125.2,1512"/><path style="fill:none;stroke:#000;stroke-width:5;stroke-linecap:round;stroke-linejoin:round;stroke-miterlimit:10;stroke-dasharray:none;stroke-opacity:1" id="path1380" d="m 1234.8,604.8 978,727.2"/><path style="fill:none;stroke:#000;stroke-width:20;stroke-linecap:round;stroke-linejoin:round;stroke-miterlimit:10;stroke-dasharray:none;stroke-opacity:1" id="path1382" d="m 696,1682.4 1258.8,180"/><path style="fill:none;stroke:#000;stroke-width:20;stroke-linecap:round;stroke-linejoin:round;stroke-miterlimit:10;stroke-dasharray:none;stroke-opacity:1" id="path1384" d="m 1954.8,1862.4 354,-724.8"/><g id="g1386" transform="scale(10)"><text style="font-style:italic;font-variant:normal;font-size:10px;font-family:'Times New Roman';-inkscape-font-specification:Times-Italic;writing-mode:lr-tb;fill:#000;fill-opacity:1;fill-rule:nonzero;stroke:none" id="text1392" transform="matrix(0.871795,0,0,-1,138.12,50.4)"><tspan id="tspan1388" x="0 3.33 8.33 10.83 15.83 19.16" y="0">(1,1)</tspan><tspan id="tspan1390" x="44.047 47.377 52.377 54.877 59.877 63.207" y="-119.52">(4,4)</tspan></text></g><path style="fill:#fff;fill-opacity:1;fill-rule:evenodd;stroke:none" id="path1394" d="m 1594.8,1381.2 h 18 l 19.2,-1.2 18,-1.2 18,-1.2 18,-2.4 16.8,-2.4 18,-3.6 15.6,-2.4 16.8,-4.8 15.6,-3.6 15.6,-4.8 14.4,-4.8 14.4,-6 14.4,-6 13.2,-6 12,-6 12,-7.2 12,-7.2 10.8,-7.2 10.8,-7.2 9.6,-8.4 8.4,-8.4 8.4,-8.4 7.2,-8.4 6,-8.4 6,-9.6 4.8,-9.6 4.8,-8.4 2.4,-9.6 2.4,-10.8 1.2,-9.6 2.4,-9.6 -2.4,-10.8 -1.2,-9.6 -2.4,-9.6 -2.4,-9.6 -4.8,-9.6 -4.8,-9.6 -6,-8.4 -6,-8.4 -7.2,-9.6 -8.4,-8.4 -8.4,-7.2 -9.6,-8.4 -10.8,-7.2 -10.8,-8.4 -12,-6 -12,-7.2 -12,-7.2 -13.2,-6 -14.4,-4.8 -14.4,-6 -14.4,-4.8 -15.6,-4.8 -15.6,-4.8 -16.8,-3.6 -15.6,-3.6 -18,-2.4 -16.8,-3.6 -18,-1.2 -18,-2.4 -18,-1.2 -19.2,-1.2 h -37.2 l -19.2,1.2 -18,1.2 -18,2.4 -18,1.2 -16.8,3.6 -16.8,2.4 -15.6,3.6 -16.8,3.6 -15.6,4.8 -15.6,4.8 -14.4,4.8 -14.4,6 -14.4,4.8 -13.2,6 -12,7.2 -12,7.2 -12,6 -10.8,8.4 -9.6,7.2 -9.6,8.4 -9.6,7.2 -8.4,8.4 -7.2,9.6 -6,8.4 -6,8.4 -4.8,9.6 -3.6,9.6 -3.6,9.6 -2.4,9.6 -1.2,9.6 -1.2,10.8 1.2,9.6 1.2,9.6 2.4,10.8 3.6,9.6 3.6,8.4 4.8,9.6 6,9.6 6,8.4 7.2,8.4 8.4,8.4 9.6,8.4 9.6,8.4 9.6,7.2 10.8,7.2 12,7.2 12,7.2 12,6 13.2,6 14.4,6 14.4,6 14.4,4.8 15.6,4.8 15.6,3.6 16.8,4.8 15.6,2.4 16.8,3.6 16.8,2.4 18,2.4 18,1.2 18,1.2 19.2,1.2 h 19.2"/><g id="g1396" transform="scale(10)"><text style="font-style:italic;font-variant:normal;font-weight:700;font-size:19.75px;font-family:'Times New Roman';-inkscape-font-specification:Times-BoldItalic;writing-mode:lr-tb;fill:#000;fill-opacity:1;fill-rule:nonzero;stroke:none" id="text1400" transform="matrix(0.873418,0,0,-1,136.56,112.56)"><tspan id="tspan1398" x="0 9.875 19.75 27.433 32.923 37.861 47.736" y="0">part 3</tspan></text></g><path style="fill:#009;fill-opacity:1;fill-rule:evenodd;stroke:none" id="path1402" d="m 1282.8,1644 h 6 l 4.8,-2.4 4.8,-2.4 4.8,-3.6 3.6,-4.8 2.4,-4.8 3.6,-6 v -12 l -3.6,-6 -2.4,-4.8 -3.6,-4.8 -4.8,-3.6 -4.8,-2.4 -4.8,-1.2 -3.6,-2.4 h -6 l -2.4,2.4 -6,1.2 -4.8,2.4 -4.8,3.6 -3.6,4.8 -2.4,4.8 -1.2,6 -1.2,2.4 v 7.2 l 1.2,2.4 1.2,6 2.4,4.8 3.6,4.8 4.8,3.6 4.8,2.4 6,2.4 h 6"/><path style="fill:none;stroke:#009;stroke-width:5;stroke-linecap:round;stroke-linejoin:round;stroke-miterlimit:10;stroke-dasharray:none;stroke-opacity:1" id="path1404" d="m 1282.8,1644 h 6 l 4.8,-2.4 4.8,-2.4 4.8,-3.6 3.6,-4.8 2.4,-4.8 2.4,-6 v -12 l -2.4,-6 -2.4,-4.8 -3.6,-4.8 -4.8,-3.6 -4.8,-2.4 -4.8,-1.2 -3.6,-1.2 h -6 l -2.4,1.2 -6,1.2 -4.8,2.4 -4.8,3.6 -3.6,4.8 -2.4,4.8 -1.2,6 -1.2,2.4 v 7.2 l 1.2,2.4 1.2,6 2.4,4.8 3.6,4.8 4.8,3.6 4.8,2.4 6,2.4 z"/><path style="fill:#a00000;fill-opacity:1;fill-rule:evenodd;stroke:none" id="path1406" d="m 1282.8,1644 h 6 l 4.8,-2.4 4.8,-2.4 4.8,-3.6 3.6,-4.8 2.4,-4.8 2.4,-6 v -12 l -2.4,-6 -2.4,-4.8 -3.6,-4.8 -4.8,-3.6 -4.8,-2.4 -4.8,-1.2 -3.6,-1.2 h -6 l -2.4,1.2 -6,1.2 -4.8,2.4 -4.8,3.6 -3.6,4.8 -2.4,4.8 -1.2,6 -1.2,2.4 v 7.2 l 1.2,2.4 1.2,6 2.4,4.8 3.6,4.8 4.8,3.6 4.8,2.4 6,2.4 h 6"/><path style="fill:none;stroke:#a00000;stroke-width:5;stroke-linecap:round;stroke-linejoin:round;stroke-miterlimit:10;stroke-dasharray:none;stroke-opacity:1" id="path1408" d="m 1282.8,1644 h 6 l 4.8,-2.4 4.8,-2.4 4.8,-3.6 3.6,-4.8 2.4,-4.8 2.4,-6 v -12 l -2.4,-6 -2.4,-4.8 -3.6,-4.8 -4.8,-3.6 -4.8,-2.4 -4.8,-1.2 -3.6,-1.2 h -6 l -2.4,1.2 -6,1.2 -4.8,2.4 -4.8,3.6 -3.6,4.8 -2.4,4.8 -1.2,6 -1.2,2.4 v 7.2 l 1.2,2.4 1.2,6 2.4,4.8 3.6,4.8 4.8,3.6 4.8,2.4 6,2.4 h 6"/><path style="fill:#a00000;fill-opacity:1;fill-rule:evenodd;stroke:none" id="path1410" d="m 1401.6,1615.2 68.4,34.8 -68.4,34.8 v -69.6"/><path style="fill:none;stroke:#a00000;stroke-width:7.5;stroke-linecap:round;stroke-linejoin:round;stroke-miterlimit:10;stroke-dasharray:none;stroke-opacity:1" id="path1412" d="m 1401.6,1615.2 68.4,34.8 -68.4,34.8 v -69.6"/><path style="fill:#a00000;fill-opacity:1;fill-rule:evenodd;stroke:none" id="path1414" d="m 1114.8,1539.6 69.6,34.8 -69.6,34.8 v -69.6"/><path style="fill:none;stroke:#a00000;stroke-width:7.5;stroke-linecap:round;stroke-linejoin:round;stroke-miterlimit:10;stroke-dasharray:none;stroke-opacity:1" id="path1416" d="m 1114.8,1539.6 69.6,34.8 -69.6,34.8 v -69.6"/><path style="fill:#a00000;fill-opacity:1;fill-rule:evenodd;stroke:none" id="path1418" d="m 1363.2,1518 -33.6,-68.4 h 69.6 l -36,68.4"/><path style="fill:none;stroke:#a00000;stroke-width:7.5;stroke-linecap:round;stroke-linejoin:round;stroke-miterlimit:10;stroke-dasharray:none;stroke-opacity:1" id="path1420" d="m 1363.2,1518 -33.6,-68.4 h 69.6 l -36,68.4"/><path style="fill:#a00000;fill-opacity:1;fill-rule:evenodd;stroke:none" id="path1422" d="m 1233.6,1797.6 -34.8,-68.4 h 69.6 l -34.8,68.4"/><path style="fill:none;stroke:#a00000;stroke-width:7.5;stroke-linecap:round;stroke-linejoin:round;stroke-miterlimit:10;stroke-dasharray:none;stroke-opacity:1" id="path1424" d="m 1233.6,1797.6 -34.8,-68.4 h 69.6 l -34.8,68.4"/></g></g></g></svg>